<?xml version="1.0" encoding="UTF-8" standalone="no"?>
<!-- Generator: Adobe Illustrator 28.3.0, SVG Export Plug-In . SVG Version: 6.00 Build 0)  -->

<svg
   version="1.1"
   id="Layer_1"
   x="0px"
   y="0px"
   viewBox="0 0 151321 91809"
   xml:space="preserve"
   width="151321"
   height="91809"
   xmlns="http://www.w3.org/2000/svg"
   xmlns:svg="http://www.w3.org/2000/svg"><defs
   id="defs15" />
<style
   type="text/css"
   id="style1">
	.st0{fill:#4E763B;}
	.st1{fill:#FFFFFF;stroke:#FFFFFF;stroke-miterlimit:10;}
	.st2{fill:#FFFFFF;}
	.st3{fill:#FFFFFF;stroke:#4E763B;stroke-miterlimit:10;}
</style>
<g
   id="g15">
	<path
   class="st0"
   d="m 213.5,207.41 h -38 c -20.39,0 -36.92,-16.53 -36.92,-36.92 v -38 c 0,-20.39 16.53,-36.92 36.92,-36.92 h 38 c 20.39,0 36.92,16.53 36.92,36.92 v 38 c -0.01,20.4 -16.53,36.92 -36.92,36.92 z"
   id="path1" />
	<g
   id="g13">
		<line
   class="st1"
   x1="157.3"
   y1="159.42"
   x2="174.8"
   y2="145.22"
   id="line1" />
		<line
   class="st1"
   x1="157.21001"
   y1="159.42"
   x2="152.95"
   y2="181.55"
   id="line2" />
		<line
   class="st1"
   x1="197.09"
   y1="142.25999"
   x2="214.59"
   y2="128.06"
   id="line3" />
		<circle
   class="st2"
   cx="153.59"
   cy="178.24001"
   r="3.52"
   id="circle3" />
		<circle
   class="st2"
   cx="235.49001"
   cy="126.91"
   r="3.52"
   id="circle4" />
		<line
   class="st1"
   x1="174.8"
   y1="145.27"
   x2="197.11"
   y2="142.03999"
   id="line4" />
		<line
   class="st1"
   x1="214.59"
   y1="128.06"
   x2="237.09"
   y2="126.82"
   id="line5" />
		<g
   id="g5">
			<circle
   class="st3"
   cx="157.3"
   cy="159.42"
   r="7.2399998"
   id="circle5" />
			<path
   class="st0"
   d="m 160.05,159.42 c 0,1.52 -1.23,2.75 -2.75,2.75 -1.52,0 -2.75,-1.23 -2.75,-2.75 0,-1.52 1.23,-2.75 2.75,-2.75 0.91,0 1.72,0.44 2.22,1.13 0.33,0.45 0.53,1.01 0.53,1.62 z"
   id="path5" />
		</g>
		<g
   id="g7">
			<path
   class="st0"
   d="m 160.07,159.42 c 0,1.53 -1.24,2.76 -2.76,2.76 -1.53,0 -2.76,-1.24 -2.76,-2.76 0,-1.53 1.24,-2.76 2.76,-2.76 0.92,0 1.73,0.45 2.23,1.14 0.33,0.45 0.53,1.01 0.53,1.62 z"
   id="path6" />
			<path
   class="st0"
   d="m 159.15,157.93 4.49,-2.68 3.58,9.24 -7.83,-3.27 c 0.25,-0.56 0.77,-1.9 0.59,-2.5 -0.13,-0.42 -0.42,-0.45 -0.83,-0.79 z"
   id="path7" />
		</g>
		<g
   id="g8">
			<circle
   class="st3"
   cx="174.8"
   cy="145.27"
   r="7.2399998"
   id="circle7" />
			<path
   class="st0"
   d="m 177.55,145.27 c 0,1.52 -1.23,2.75 -2.75,2.75 -1.52,0 -2.75,-1.23 -2.75,-2.75 0,-1.52 1.23,-2.75 2.75,-2.75 0.91,0 1.72,0.44 2.22,1.13 0.33,0.46 0.53,1.02 0.53,1.62 z"
   id="path8" />
		</g>
		<g
   id="g9">
			<circle
   class="st3"
   cx="197.11"
   cy="142.03999"
   r="7.2399998"
   id="circle8" />
			<path
   class="st0"
   d="m 199.85,142.04 c 0,1.52 -1.23,2.75 -2.75,2.75 -1.52,0 -2.75,-1.23 -2.75,-2.75 0,-1.52 1.23,-2.75 2.75,-2.75 0.91,0 1.72,0.44 2.22,1.13 0.33,0.46 0.53,1.02 0.53,1.62 z"
   id="path9" />
		</g>
		<g
   id="g11">
			<path
   class="st0"
   d="m 199.87,142.04 c 0,1.53 -1.24,2.76 -2.76,2.76 -1.53,0 -2.76,-1.24 -2.76,-2.76 0,-1.53 1.24,-2.76 2.76,-2.76 0.92,0 1.73,0.45 2.23,1.14 0.33,0.45 0.53,1.01 0.53,1.62 z"
   id="path10" />
			<path
   class="st0"
   d="m 198.95,140.55 4.49,-2.68 3.58,9.24 -7.83,-3.27 c 0.25,-0.56 0.77,-1.9 0.59,-2.5 -0.13,-0.42 -0.42,-0.44 -0.83,-0.79 z"
   id="path11" />
		</g>
		<g
   id="g12">
			<circle
   class="st3"
   cx="214.59"
   cy="128.06"
   r="7.2399998"
   id="circle11" />
			<path
   class="st0"
   d="m 217.34,128.06 c 0,1.52 -1.23,2.75 -2.75,2.75 -1.52,0 -2.75,-1.23 -2.75,-2.75 0,-1.52 1.23,-2.75 2.75,-2.75 0.91,0 1.72,0.44 2.22,1.13 0.33,0.46 0.53,1.02 0.53,1.62 z"
   id="path12" />
		</g>
	</g>
	<g
   id="g14">
		<path
   class="st2"
   d="m 217.1,181.76 v -12.78 h 5.04 c 2.38,0 4.25,1.48 4.25,4.23 v 0.16 c 0,2.79 -1.82,4.25 -4.25,4.25 h -1.73 v 4.14 z m 3.31,-6.84 h 1.24 c 0.76,0 1.3,-0.45 1.3,-1.55 v -0.16 c 0,-1.08 -0.54,-1.53 -1.3,-1.53 h -1.24 z"
   id="path13" />
		<path
   class="st2"
   d="m 229.43,181.76 v -12.78 h 5.04 c 2.38,0 4.25,1.48 4.25,4.23 v 0.16 c 0,2.79 -1.82,4.25 -4.25,4.25 h -1.73 v 4.14 z m 3.31,-6.84 h 1.24 c 0.76,0 1.3,-0.45 1.3,-1.55 v -0.16 c 0,-1.08 -0.54,-1.53 -1.3,-1.53 h -1.24 z"
   id="path14" />
	</g>
</g>
</svg>
