<?xml version="1.0" encoding="utf-8" standalone="no"?>
<!DOCTYPE svg PUBLIC "-//W3C//DTD SVG 1.1//EN"
  "http://www.w3.org/Graphics/SVG/1.1/DTD/svg11.dtd">
<!-- Created with matplotlib (http://matplotlib.org/) -->
<svg height="384pt" version="1.1" viewBox="0 0 485 384" width="485pt" xmlns="http://www.w3.org/2000/svg" xmlns:xlink="http://www.w3.org/1999/xlink">
 <defs>
  <style type="text/css">
*{stroke-linecap:butt;stroke-linejoin:round;stroke-miterlimit:100000;}
  </style>
 </defs>
 <g id="figure_1">
  <g id="patch_1">
   <path d="M 0 384.485 
L 485.285 384.485 
L 485.285 0 
L 0 0 
z
" style="fill:#ffffff;"/>
  </g>
  <g id="axes_1">
   <g id="patch_2">
    <path d="M 31.685 352.8 
L 478.085 352.8 
L 478.085 7.2 
L 31.685 7.2 
z
" style="fill:#ffffff;"/>
   </g>
   <g id="line2d_1">
    <path clip-path="url(#pf1ffbdd667)" d="M 31.641231 7.733133 
L 36.018131 10.950061 
L 40.39503 16.855985 
L 44.77193 22.760501 
L 49.14883 24.398722 
L 53.525729 29.99538 
L 57.902629 36.197734 
L 62.279529 39.395987 
L 66.656429 41.666678 
L 71.033328 46.46894 
L 75.410228 52.861072 
L 79.787128 54.632539 
L 84.164027 61.942067 
L 88.540927 67.334833 
L 92.917827 72.329592 
L 97.294726 77.147012 
L 101.671626 77.583674 
L 106.048526 80.819393 
L 110.425426 84.650435 
L 114.802325 89.127733 
L 119.179225 92.938016 
L 123.556125 99.514869 
L 127.933024 101.51864 
L 132.309924 104.437476 
L 136.686824 106.55026 
L 141.063723 108.758956 
L 145.440623 112.111835 
L 149.817523 118.517544 
L 154.194422 124.930779 
L 158.571322 129.834528 
L 162.948222 133.943431 
L 167.325122 135.527019 
L 171.702021 141.956898 
L 176.078921 146.526106 
L 180.455821 153.201138 
L 184.83272 158.544427 
L 189.20962 165.066431 
L 193.58652 172.295176 
L 197.963419 174.834166 
L 202.340319 179.323471 
L 206.717219 184.022436 
L 211.094119 186.605822 
L 215.471018 188.161849 
L 219.847918 192.223898 
L 224.224818 199.681036 
L 228.601717 200.567405 
L 232.978617 204.922385 
L 237.355517 206.321045 
L 241.732416 209.639679 
L 246.109316 212.725487 
L 250.486216 213.303725 
L 254.863116 220.819119 
L 259.240015 222.549313 
L 263.616915 222.986679 
L 267.993815 229.517456 
L 272.370714 232.641245 
L 276.747614 238.861913 
L 281.124514 241.575332 
L 285.501413 246.861478 
L 289.878313 251.906776 
L 294.255213 252.990842 
L 298.632112 255.285155 
L 303.009012 256.687038 
L 307.385912 259.873591 
L 311.762812 262.018016 
L 316.139711 263.662542 
L 320.516611 268.437897 
L 324.893511 272.881514 
L 329.27041 278.092604 
L 333.64731 285.222131 
L 338.02421 292.109599 
L 342.401109 297.412373 
L 346.778009 304.356169 
L 351.154909 307.972422 
L 355.531809 308.145098 
L 359.908708 311.189058 
L 364.285608 318.509927 
L 368.662508 319.222548 
L 373.039407 323.756896 
L 377.416307 328.087368 
L 381.793207 330.34492 
L 386.170106 334.250936 
L 390.547006 340.918224 
L 394.923906 341.048921 
L 399.300805 346.810561 
L 403.677705 348.589416 
L 408.054605 353.683439 
L 412.431505 358.726671 
L 416.808404 363.090688 
L 421.185304 366.605459 
L 425.562204 374.047284 
L 429.939103 374.620218 
L 434.316003 374.45676 
L 438.692903 374.723576 
L 443.069802 374.904651 
L 447.446702 375.252231 
L 451.823602 375.145319 
L 456.200502 375.082748 
L 460.577401 374.976117 
L 464.954301 374.998525 
" style="fill:none;stroke:#000000;stroke-linecap:square;stroke-width:1.5;"/>
   </g>
   <g id="line2d_2">
    <path clip-path="url(#pf1ffbdd667)" d="M 31.641231 17.166519 
L 36.018131 22.608665 
L 40.39503 26.935486 
L 44.77193 30.334996 
L 49.14883 31.665645 
L 53.525729 32.425927 
L 57.902629 33.467031 
L 62.279529 34.236316 
L 66.656429 35.045028 
L 71.033328 36.201849 
L 75.410228 36.962168 
L 79.787128 37.336371 
L 84.164027 37.718012 
L 88.540927 38.365119 
L 92.917827 39.282556 
L 97.294726 39.542158 
L 101.671626 40.05383 
L 106.048526 40.169346 
L 110.425426 40.339451 
L 114.802325 40.973574 
L 119.179225 41.463385 
L 123.556125 41.884883 
L 127.933024 42.135494 
L 132.309924 42.225641 
L 136.686824 42.476889 
L 141.063723 42.639129 
L 145.440623 42.996164 
L 149.817523 43.323127 
L 154.194422 43.681842 
L 158.571322 44.089103 
L 162.948222 44.524831 
L 167.325122 44.592256 
L 171.702021 44.645604 
L 176.078921 44.647978 
L 180.455821 45.034811 
L 184.83272 45.246524 
L 189.20962 45.279407 
L 193.58652 45.413634 
L 197.963419 45.563731 
L 202.340319 45.726797 
L 206.717219 45.759824 
L 211.094119 45.863323 
L 215.471018 45.919627 
L 219.847918 45.994316 
L 224.224818 46.118914 
L 228.601717 46.312728 
L 232.978617 46.584923 
L 237.355517 46.795086 
L 241.732416 46.950424 
L 246.109316 47.188256 
L 250.486216 47.384182 
L 254.863116 47.60898 
L 259.240015 47.65143 
L 263.616915 47.7026 
L 267.993815 47.834827 
L 272.370714 47.920152 
L 276.747614 48.148245 
L 281.124514 48.367372 
L 285.501413 48.399257 
L 289.878313 48.51067 
L 294.255213 48.682032 
L 298.632112 48.84365 
L 303.009012 48.92172 
L 307.385912 49.054664 
L 311.762812 49.122914 
L 316.139711 49.152109 
L 320.516611 49.308814 
L 324.893511 49.444221 
L 329.27041 49.446427 
L 333.64731 49.499642 
L 338.02421 49.581983 
L 342.401109 49.63094 
L 346.778009 49.668612 
L 351.154909 49.723956 
L 355.531809 49.884486 
L 359.908708 50.024345 
L 364.285608 50.114755 
L 368.662508 50.219969 
L 373.039407 50.360356 
L 377.416307 50.511477 
L 381.793207 50.554829 
L 386.170106 50.711872 
L 390.547006 50.75914 
L 394.923906 50.873306 
L 399.300805 51.002624 
L 403.677705 51.124599 
L 408.054605 51.233544 
L 412.431505 51.378893 
L 416.808404 51.475154 
L 421.185304 51.502985 
L 425.562204 51.519749 
L 429.939103 51.612917 
L 434.316003 51.63275 
L 438.692903 51.73193 
L 443.069802 51.817384 
L 447.446702 51.912935 
L 451.823602 51.967809 
L 456.200502 51.969677 
L 460.577401 52.09838 
L 464.954301 52.100502 
L 469.331201 52.119326 
L 473.7081 52.186659 
L 478.085 52.25292 
L 482.4619 52.384482 
L 486.285 52.465139 
" style="fill:none;stroke:#000000;stroke-linecap:square;stroke-width:1.5;"/>
   </g>
   <g id="line2d_3">
    <path clip-path="url(#pf1ffbdd667)" d="M 31.641231 10.095736 
L 36.018131 11.392367 
L 40.39503 13.938405 
L 44.77193 15.072868 
L 49.14883 20.263153 
L 53.525729 23.945397 
L 57.902629 24.001591 
L 62.279529 25.692857 
L 66.656429 29.752152 
L 71.033328 31.937603 
L 75.410228 35.986069 
L 79.787128 41.328929 
L 84.164027 43.848675 
L 88.540927 46.813667 
L 92.917827 52.11809 
L 97.294726 54.426498 
L 101.671626 59.939139 
L 106.048526 64.789074 
L 110.425426 70.30604 
L 114.802325 75.363979 
L 119.179225 75.529326 
L 123.556125 80.174848 
L 127.933024 81.765419 
L 132.309924 85.935797 
L 136.686824 90.059931 
L 141.063723 93.255996 
L 145.440623 94.173832 
L 149.817523 96.30707 
L 154.194422 98.095629 
L 158.571322 99.783639 
L 162.948222 103.702742 
L 167.325122 106.313635 
L 171.702021 111.654697 
L 176.078921 116.280846 
L 180.455821 118.491066 
L 184.83272 122.962402 
L 189.20962 122.96981 
L 193.58652 124.305322 
L 197.963419 126.705692 
L 202.340319 128.648948 
L 206.717219 128.979202 
L 211.094119 130.781471 
L 215.471018 131.196342 
L 219.847918 133.166697 
L 224.224818 136.989652 
L 228.601717 137.157874 
L 232.978617 137.369171 
L 237.355517 140.696698 
L 241.732416 143.432014 
L 246.109316 146.414399 
L 250.486216 151.848953 
L 254.863116 153.611838 
L 259.240015 158.512778 
L 263.616915 158.813596 
L 267.993815 159.046877 
L 272.370714 162.777518 
L 276.747614 166.473325 
L 281.124514 171.804455 
L 285.501413 175.386824 
L 289.878313 178.376301 
L 294.255213 182.650935 
L 298.632112 183.884138 
L 303.009012 187.328579 
L 307.385912 192.107131 
L 311.762812 192.188141 
L 316.139711 196.792457 
L 320.516611 200.252512 
L 324.893511 204.558952 
L 329.27041 209.374216 
L 333.64731 211.314891 
L 338.02421 214.253449 
L 342.401109 216.097763 
L 346.778009 221.67943 
L 351.154909 221.900557 
L 355.531809 222.913055 
L 359.908708 224.947096 
L 364.285608 227.199587 
L 368.662508 232.264019 
L 373.039407 237.01871 
L 377.416307 237.102298 
L 381.793207 237.851058 
L 386.170106 242.203359 
L 390.547006 243.615829 
L 394.923906 244.739993 
L 399.300805 250.269874 
L 403.677705 253.644416 
L 408.054605 254.220095 
L 412.431505 254.3921 
L 416.808404 254.506802 
L 421.185304 254.410927 
L 425.562204 254.449769 
L 429.939103 254.693937 
L 434.316003 254.719285 
L 438.692903 254.700436 
L 443.069802 254.756856 
" style="fill:none;stroke:#000000;stroke-linecap:square;stroke-width:1.5;"/>
   </g>
   <g id="line2d_4">
    <path clip-path="url(#pf1ffbdd667)" d="M 31.641231 14.299872 
L 36.018131 19.606468 
L 40.39503 27.792014 
L 44.77193 34.944401 
L 49.14883 44.253167 
L 53.525729 53.255621 
L 57.902629 62.348269 
L 62.279529 64.801283 
L 66.656429 65.445625 
L 71.033328 66.995136 
L 75.410228 74.983472 
L 79.787128 77.508885 
L 84.164027 81.547179 
L 88.540927 81.629888 
L 92.917827 86.082389 
L 97.294726 94.136243 
L 101.671626 103.099361 
L 106.048526 107.533976 
L 110.425426 108.872752 
L 114.802325 109.078239 
L 119.179225 109.804735 
L 123.556125 111.442027 
L 127.933024 118.627844 
L 132.309924 127.393168 
L 136.686824 127.839004 
L 141.063723 131.186333 
L 145.440623 137.35492 
L 149.817523 139.901738 
L 154.194422 147.462251 
L 158.571322 156.173668 
L 162.948222 161.888241 
L 167.325122 164.96572 
L 171.702021 167.153018 
L 176.078921 172.203134 
L 180.455821 174.726243 
L 184.83272 182.551535 
L 189.20962 186.66996 
L 193.58652 192.685905 
L 197.963419 197.91654 
L 202.340319 202.993082 
L 206.717219 203.817253 
L 211.094119 207.104512 
L 215.471018 211.651065 
L 219.847918 215.133768 
L 224.224818 224.565737 
L 228.601717 230.794324 
L 232.978617 235.692064 
L 237.355517 239.63888 
L 241.732416 246.312835 
L 246.109316 254.52406 
L 250.486216 261.778319 
L 254.863116 267.766104 
L 259.240015 277.244023 
L 263.616915 279.228987 
L 267.993815 279.504082 
L 272.370714 288.580847 
L 276.747614 289.94731 
L 281.124514 290.889717 
L 285.501413 290.984498 
L 289.878313 291.251385 
L 294.255213 291.332896 
L 298.632112 291.341026 
L 303.009012 291.496715 
L 307.385912 291.198067 
L 311.762812 290.960575 
" style="fill:none;stroke:#000000;stroke-linecap:square;stroke-width:1.5;"/>
   </g>
   <g id="line2d_5">
    <path clip-path="url(#pf1ffbdd667)" d="M 31.641231 13.422307 
L 36.018131 14.714211 
L 40.39503 16.084603 
L 44.77193 17.228611 
L 49.14883 18.421403 
L 53.525729 19.552932 
L 57.902629 23.651208 
L 62.279529 28.96092 
L 66.656429 31.965754 
L 71.033328 35.789662 
L 75.410228 40.191667 
L 79.787128 43.190474 
L 84.164027 48.46436 
L 88.540927 54.336478 
L 92.917827 62.621599 
L 97.294726 70.928587 
L 101.671626 74.079691 
L 106.048526 77.501469 
L 110.425426 84.569098 
L 114.802325 95.038144 
L 119.179225 103.140716 
L 123.556125 113.328121 
L 127.933024 122.269145 
L 132.309924 130.905998 
L 136.686824 134.383289 
L 141.063723 137.503506 
L 145.440623 167.971236 
L 149.817523 199.557285 
L 154.194422 240.485799 
L 158.571322 278.385027 
L 162.948222 323.906895 
L 167.015719 385.485 
" style="fill:none;stroke:#000000;stroke-linecap:square;stroke-width:1.5;"/>
   </g>
   <g id="line2d_6">
    <defs>
     <path d="M 0 -10 
L -2.24514 -3.09017 
L -9.510565 -3.09017 
L -3.632713 1.18034 
L -5.877853 8.09017 
L -0 3.81966 
L 5.877853 8.09017 
L 3.632713 1.18034 
L 9.510565 -3.09017 
L 2.24514 -3.09017 
z
" id="m9d9e979a43" style="stroke:#000000;stroke-linejoin:bevel;stroke-width:0.5;"/>
    </defs>
    <g clip-path="url(#pf1ffbdd667)">
     <use style="fill:#0000ff;stroke:#000000;stroke-linejoin:bevel;stroke-width:0.5;" x="294.255212766" xlink:href="#m9d9e979a43" y="252.990842353"/>
    </g>
   </g>
   <g id="line2d_7">
    <defs>
     <path d="M 0 -10 
L -2.24514 -3.09017 
L -9.510565 -3.09017 
L -3.632713 1.18034 
L -5.877853 8.09017 
L -0 3.81966 
L 5.877853 8.09017 
L 3.632713 1.18034 
L 9.510565 -3.09017 
L 2.24514 -3.09017 
z
" id="mffa9951876" style="stroke:#000000;stroke-linejoin:bevel;stroke-width:0.5;"/>
    </defs>
    <g clip-path="url(#pf1ffbdd667)">
     <use style="fill:#ff0000;stroke:#000000;stroke-linejoin:bevel;stroke-width:0.5;" x="270.182264438" xlink:href="#mffa9951876" y="231.84"/>
    </g>
   </g>
   <g id="line2d_8">
    <g clip-path="url(#pf1ffbdd667)">
     <use style="fill:#0000ff;stroke:#000000;stroke-linejoin:bevel;stroke-width:0.5;" x="294.255212766" xlink:href="#m9d9e979a43" y="48.6820319077"/>
    </g>
   </g>
   <g id="line2d_9">
    <g clip-path="url(#pf1ffbdd667)">
     <use style="fill:#0000ff;stroke:#000000;stroke-linejoin:bevel;stroke-width:0.5;" x="294.255212766" xlink:href="#m9d9e979a43" y="182.650934566"/>
    </g>
   </g>
   <g id="line2d_10">
    <g clip-path="url(#pf1ffbdd667)">
     <use style="fill:#ff0000;stroke:#000000;stroke-linejoin:bevel;stroke-width:0.5;" x="366.474057751" xlink:href="#mffa9951876" y="231.84"/>
    </g>
   </g>
   <g id="line2d_11">
    <g clip-path="url(#pf1ffbdd667)">
     <use style="fill:#0000ff;stroke:#000000;stroke-linejoin:bevel;stroke-width:0.5;" x="294.255212766" xlink:href="#m9d9e979a43" y="291.332896422"/>
    </g>
   </g>
   <g id="line2d_12">
    <g clip-path="url(#pf1ffbdd667)">
     <use style="fill:#ff0000;stroke:#000000;stroke-linejoin:bevel;stroke-width:0.5;" x="230.790167173" xlink:href="#mffa9951876" y="231.84"/>
    </g>
   </g>
   <g id="line2d_13">
    <g clip-path="url(#pf1ffbdd667)">
     <use style="fill:#0000ff;stroke:#000000;stroke-linejoin:bevel;stroke-width:0.5;" x="294.255212766" xlink:href="#m9d9e979a43" y="59879.9050537"/>
    </g>
   </g>
   <g id="line2d_14">
    <g clip-path="url(#pf1ffbdd667)">
     <use style="fill:#ff0000;stroke:#000000;stroke-linejoin:bevel;stroke-width:0.5;" x="152.005972644" xlink:href="#mffa9951876" y="231.84"/>
    </g>
   </g>
   <g id="line2d_15">
    <path clip-path="url(#pf1ffbdd667)" d="M 294.255213 34560007.2 
M 294.255213 385.485 
L 294.255213 7.2 
" style="fill:none;stroke:#0000ff;stroke-dasharray:6.000000,6.000000;stroke-dashoffset:0.0;stroke-width:1.5;"/>
   </g>
   <g id="line2d_16">
    <path clip-path="url(#pf1ffbdd667)" d="M 31.641231 231.84 
L 486.285 231.84 
" style="fill:none;stroke:#ff0000;stroke-dasharray:6.000000,6.000000;stroke-dashoffset:0.0;stroke-width:1.5;"/>
   </g>
   <g id="patch_3">
    <path d="M 31.685 7.2 
L 478.085 7.2 
" style="fill:none;stroke:#000000;stroke-linecap:square;stroke-linejoin:miter;"/>
   </g>
   <g id="patch_4">
    <path d="M 478.085 352.8 
L 478.085 7.2 
" style="fill:none;stroke:#000000;stroke-linecap:square;stroke-linejoin:miter;"/>
   </g>
   <g id="patch_5">
    <path d="M 31.685 352.8 
L 478.085 352.8 
" style="fill:none;stroke:#000000;stroke-linecap:square;stroke-linejoin:miter;"/>
   </g>
   <g id="patch_6">
    <path d="M 31.685 352.8 
L 31.685 7.2 
" style="fill:none;stroke:#000000;stroke-linecap:square;stroke-linejoin:miter;"/>
   </g>
   <g id="matplotlib.axis_1">
    <g id="xtick_1"/>
    <g id="xtick_2">
     <g id="line2d_17">
      <path clip-path="url(#pf1ffbdd667)" d="M 119.179225 352.8 
L 119.179225 7.2 
" style="fill:none;stroke:#000000;stroke-dasharray:1.000000,3.000000;stroke-dashoffset:0.0;stroke-width:0.5;"/>
     </g>
     <g id="line2d_18">
      <defs>
       <path d="M 0 0 
L 0 -4 
" id="m45022c65e0" style="stroke:#000000;stroke-width:0.5;"/>
      </defs>
      <g>
       <use style="stroke:#000000;stroke-width:0.5;" x="119.179224924" xlink:href="#m45022c65e0" y="352.8"/>
      </g>
     </g>
     <g id="line2d_19">
      <defs>
       <path d="M 0 0 
L 0 4 
" id="m49928a92ed" style="stroke:#000000;stroke-width:0.5;"/>
      </defs>
      <g>
       <use style="stroke:#000000;stroke-width:0.5;" x="119.179224924" xlink:href="#m49928a92ed" y="7.2"/>
      </g>
     </g>
    </g>
    <g id="xtick_3">
     <g id="line2d_20">
      <path clip-path="url(#pf1ffbdd667)" d="M 206.717219 352.8 
L 206.717219 7.2 
" style="fill:none;stroke:#000000;stroke-dasharray:1.000000,3.000000;stroke-dashoffset:0.0;stroke-width:0.5;"/>
     </g>
     <g id="line2d_21">
      <g>
       <use style="stroke:#000000;stroke-width:0.5;" x="206.717218845" xlink:href="#m45022c65e0" y="352.8"/>
      </g>
     </g>
     <g id="line2d_22">
      <g>
       <use style="stroke:#000000;stroke-width:0.5;" x="206.717218845" xlink:href="#m49928a92ed" y="7.2"/>
      </g>
     </g>
    </g>
    <g id="xtick_4">
     <g id="line2d_23">
      <path clip-path="url(#pf1ffbdd667)" d="M 294.255213 352.8 
L 294.255213 7.2 
" style="fill:none;stroke:#000000;stroke-dasharray:1.000000,3.000000;stroke-dashoffset:0.0;stroke-width:0.5;"/>
     </g>
     <g id="line2d_24">
      <g>
       <use style="stroke:#000000;stroke-width:0.5;" x="294.255212766" xlink:href="#m45022c65e0" y="352.8"/>
      </g>
     </g>
     <g id="line2d_25">
      <g>
       <use style="stroke:#000000;stroke-width:0.5;" x="294.255212766" xlink:href="#m49928a92ed" y="7.2"/>
      </g>
     </g>
    </g>
    <g id="xtick_5">
     <g id="line2d_26">
      <path clip-path="url(#pf1ffbdd667)" d="M 381.793207 352.8 
L 381.793207 7.2 
" style="fill:none;stroke:#000000;stroke-dasharray:1.000000,3.000000;stroke-dashoffset:0.0;stroke-width:0.5;"/>
     </g>
     <g id="line2d_27">
      <g>
       <use style="stroke:#000000;stroke-width:0.5;" x="381.793206687" xlink:href="#m45022c65e0" y="352.8"/>
      </g>
     </g>
     <g id="line2d_28">
      <g>
       <use style="stroke:#000000;stroke-width:0.5;" x="381.793206687" xlink:href="#m49928a92ed" y="7.2"/>
      </g>
     </g>
    </g>
    <g id="xtick_6">
     <g id="line2d_29">
      <path clip-path="url(#pf1ffbdd667)" d="M 469.331201 352.8 
L 469.331201 7.2 
" style="fill:none;stroke:#000000;stroke-dasharray:1.000000,3.000000;stroke-dashoffset:0.0;stroke-width:0.5;"/>
     </g>
     <g id="line2d_30">
      <g>
       <use style="stroke:#000000;stroke-width:0.5;" x="469.331200608" xlink:href="#m45022c65e0" y="352.8"/>
      </g>
     </g>
     <g id="line2d_31">
      <g>
       <use style="stroke:#000000;stroke-width:0.5;" x="469.331200608" xlink:href="#m49928a92ed" y="7.2"/>
      </g>
     </g>
    </g>
    <g id="text_1">
     <!-- number of function evaluations -->
     <defs>
      <path id="BitstreamVeraSans-Roman-20"/>
      <path d="M 37.109375 75.984375 
L 37.109375 68.5 
L 28.515625 68.5 
Q 23.6875 68.5 21.796875 66.546875 
Q 19.921875 64.59375 19.921875 59.515625 
L 19.921875 54.6875 
L 34.71875 54.6875 
L 34.71875 47.703125 
L 19.921875 47.703125 
L 19.921875 0 
L 10.890625 0 
L 10.890625 47.703125 
L 2.296875 47.703125 
L 2.296875 54.6875 
L 10.890625 54.6875 
L 10.890625 58.5 
Q 10.890625 67.625 15.140625 71.796875 
Q 19.390625 75.984375 28.609375 75.984375 
z
" id="BitstreamVeraSans-Roman-66"/>
      <path d="M 34.28125 27.484375 
Q 23.390625 27.484375 19.1875 25 
Q 14.984375 22.515625 14.984375 16.5 
Q 14.984375 11.71875 18.140625 8.90625 
Q 21.296875 6.109375 26.703125 6.109375 
Q 34.1875 6.109375 38.703125 11.40625 
Q 43.21875 16.703125 43.21875 25.484375 
L 43.21875 27.484375 
z
M 52.203125 31.203125 
L 52.203125 0 
L 43.21875 0 
L 43.21875 8.296875 
Q 40.140625 3.328125 35.546875 0.953125 
Q 30.953125 -1.421875 24.3125 -1.421875 
Q 15.921875 -1.421875 10.953125 3.296875 
Q 6 8.015625 6 15.921875 
Q 6 25.140625 12.171875 29.828125 
Q 18.359375 34.515625 30.609375 34.515625 
L 43.21875 34.515625 
L 43.21875 35.40625 
Q 43.21875 41.609375 39.140625 45 
Q 35.0625 48.390625 27.6875 48.390625 
Q 23 48.390625 18.546875 47.265625 
Q 14.109375 46.140625 10.015625 43.890625 
L 10.015625 52.203125 
Q 14.9375 54.109375 19.578125 55.046875 
Q 24.21875 56 28.609375 56 
Q 40.484375 56 46.34375 49.84375 
Q 52.203125 43.703125 52.203125 31.203125 
" id="BitstreamVeraSans-Roman-61"/>
      <path d="M 54.890625 33.015625 
L 54.890625 0 
L 45.90625 0 
L 45.90625 32.71875 
Q 45.90625 40.484375 42.875 44.328125 
Q 39.84375 48.1875 33.796875 48.1875 
Q 26.515625 48.1875 22.3125 43.546875 
Q 18.109375 38.921875 18.109375 30.90625 
L 18.109375 0 
L 9.078125 0 
L 9.078125 54.6875 
L 18.109375 54.6875 
L 18.109375 46.1875 
Q 21.34375 51.125 25.703125 53.5625 
Q 30.078125 56 35.796875 56 
Q 45.21875 56 50.046875 50.171875 
Q 54.890625 44.34375 54.890625 33.015625 
" id="BitstreamVeraSans-Roman-6e"/>
      <path d="M 52 44.1875 
Q 55.375 50.25 60.0625 53.125 
Q 64.75 56 71.09375 56 
Q 79.640625 56 84.28125 50.015625 
Q 88.921875 44.046875 88.921875 33.015625 
L 88.921875 0 
L 79.890625 0 
L 79.890625 32.71875 
Q 79.890625 40.578125 77.09375 44.375 
Q 74.3125 48.1875 68.609375 48.1875 
Q 61.625 48.1875 57.5625 43.546875 
Q 53.515625 38.921875 53.515625 30.90625 
L 53.515625 0 
L 44.484375 0 
L 44.484375 32.71875 
Q 44.484375 40.625 41.703125 44.40625 
Q 38.921875 48.1875 33.109375 48.1875 
Q 26.21875 48.1875 22.15625 43.53125 
Q 18.109375 38.875 18.109375 30.90625 
L 18.109375 0 
L 9.078125 0 
L 9.078125 54.6875 
L 18.109375 54.6875 
L 18.109375 46.1875 
Q 21.1875 51.21875 25.484375 53.609375 
Q 29.78125 56 35.6875 56 
Q 41.65625 56 45.828125 52.96875 
Q 50 49.953125 52 44.1875 
" id="BitstreamVeraSans-Roman-6d"/>
      <path d="M 30.609375 48.390625 
Q 23.390625 48.390625 19.1875 42.75 
Q 14.984375 37.109375 14.984375 27.296875 
Q 14.984375 17.484375 19.15625 11.84375 
Q 23.34375 6.203125 30.609375 6.203125 
Q 37.796875 6.203125 41.984375 11.859375 
Q 46.1875 17.53125 46.1875 27.296875 
Q 46.1875 37.015625 41.984375 42.703125 
Q 37.796875 48.390625 30.609375 48.390625 
M 30.609375 56 
Q 42.328125 56 49.015625 48.375 
Q 55.71875 40.765625 55.71875 27.296875 
Q 55.71875 13.875 49.015625 6.21875 
Q 42.328125 -1.421875 30.609375 -1.421875 
Q 18.84375 -1.421875 12.171875 6.21875 
Q 5.515625 13.875 5.515625 27.296875 
Q 5.515625 40.765625 12.171875 48.375 
Q 18.84375 56 30.609375 56 
" id="BitstreamVeraSans-Roman-6f"/>
      <path d="M 9.421875 75.984375 
L 18.40625 75.984375 
L 18.40625 0 
L 9.421875 0 
z
" id="BitstreamVeraSans-Roman-6c"/>
      <path d="M 2.984375 54.6875 
L 12.5 54.6875 
L 29.59375 8.796875 
L 46.6875 54.6875 
L 56.203125 54.6875 
L 35.6875 0 
L 23.484375 0 
z
" id="BitstreamVeraSans-Roman-76"/>
      <path d="M 9.421875 54.6875 
L 18.40625 54.6875 
L 18.40625 0 
L 9.421875 0 
z
M 9.421875 75.984375 
L 18.40625 75.984375 
L 18.40625 64.59375 
L 9.421875 64.59375 
z
" id="BitstreamVeraSans-Roman-69"/>
      <path d="M 56.203125 29.59375 
L 56.203125 25.203125 
L 14.890625 25.203125 
Q 15.484375 15.921875 20.484375 11.0625 
Q 25.484375 6.203125 34.421875 6.203125 
Q 39.59375 6.203125 44.453125 7.46875 
Q 49.3125 8.734375 54.109375 11.28125 
L 54.109375 2.78125 
Q 49.265625 0.734375 44.1875 -0.34375 
Q 39.109375 -1.421875 33.890625 -1.421875 
Q 20.796875 -1.421875 13.15625 6.1875 
Q 5.515625 13.8125 5.515625 26.8125 
Q 5.515625 40.234375 12.765625 48.109375 
Q 20.015625 56 32.328125 56 
Q 43.359375 56 49.78125 48.890625 
Q 56.203125 41.796875 56.203125 29.59375 
M 47.21875 32.234375 
Q 47.125 39.59375 43.09375 43.984375 
Q 39.0625 48.390625 32.421875 48.390625 
Q 24.90625 48.390625 20.390625 44.140625 
Q 15.875 39.890625 15.1875 32.171875 
z
" id="BitstreamVeraSans-Roman-65"/>
      <path d="M 18.3125 70.21875 
L 18.3125 54.6875 
L 36.8125 54.6875 
L 36.8125 47.703125 
L 18.3125 47.703125 
L 18.3125 18.015625 
Q 18.3125 11.328125 20.140625 9.421875 
Q 21.96875 7.515625 27.59375 7.515625 
L 36.8125 7.515625 
L 36.8125 0 
L 27.59375 0 
Q 17.1875 0 13.234375 3.875 
Q 9.28125 7.765625 9.28125 18.015625 
L 9.28125 47.703125 
L 2.6875 47.703125 
L 2.6875 54.6875 
L 9.28125 54.6875 
L 9.28125 70.21875 
z
" id="BitstreamVeraSans-Roman-74"/>
      <path d="M 8.5 21.578125 
L 8.5 54.6875 
L 17.484375 54.6875 
L 17.484375 21.921875 
Q 17.484375 14.15625 20.5 10.265625 
Q 23.53125 6.390625 29.59375 6.390625 
Q 36.859375 6.390625 41.078125 11.03125 
Q 45.3125 15.671875 45.3125 23.6875 
L 45.3125 54.6875 
L 54.296875 54.6875 
L 54.296875 0 
L 45.3125 0 
L 45.3125 8.40625 
Q 42.046875 3.421875 37.71875 1 
Q 33.40625 -1.421875 27.6875 -1.421875 
Q 18.265625 -1.421875 13.375 4.4375 
Q 8.5 10.296875 8.5 21.578125 
" id="BitstreamVeraSans-Roman-75"/>
      <path d="M 41.109375 46.296875 
Q 39.59375 47.171875 37.8125 47.578125 
Q 36.03125 48 33.890625 48 
Q 26.265625 48 22.1875 43.046875 
Q 18.109375 38.09375 18.109375 28.8125 
L 18.109375 0 
L 9.078125 0 
L 9.078125 54.6875 
L 18.109375 54.6875 
L 18.109375 46.1875 
Q 20.953125 51.171875 25.484375 53.578125 
Q 30.03125 56 36.53125 56 
Q 37.453125 56 38.578125 55.875 
Q 39.703125 55.765625 41.0625 55.515625 
z
" id="BitstreamVeraSans-Roman-72"/>
      <path d="M 44.28125 53.078125 
L 44.28125 44.578125 
Q 40.484375 46.53125 36.375 47.5 
Q 32.28125 48.484375 27.875 48.484375 
Q 21.1875 48.484375 17.84375 46.4375 
Q 14.5 44.390625 14.5 40.28125 
Q 14.5 37.15625 16.890625 35.375 
Q 19.28125 33.59375 26.515625 31.984375 
L 29.59375 31.296875 
Q 39.15625 29.25 43.1875 25.515625 
Q 47.21875 21.78125 47.21875 15.09375 
Q 47.21875 7.46875 41.1875 3.015625 
Q 35.15625 -1.421875 24.609375 -1.421875 
Q 20.21875 -1.421875 15.453125 -0.5625 
Q 10.6875 0.296875 5.421875 2 
L 5.421875 11.28125 
Q 10.40625 8.6875 15.234375 7.390625 
Q 20.0625 6.109375 24.8125 6.109375 
Q 31.15625 6.109375 34.5625 8.28125 
Q 37.984375 10.453125 37.984375 14.40625 
Q 37.984375 18.0625 35.515625 20.015625 
Q 33.0625 21.96875 24.703125 23.78125 
L 21.578125 24.515625 
Q 13.234375 26.265625 9.515625 29.90625 
Q 5.8125 33.546875 5.8125 39.890625 
Q 5.8125 47.609375 11.28125 51.796875 
Q 16.75 56 26.8125 56 
Q 31.78125 56 36.171875 55.265625 
Q 40.578125 54.546875 44.28125 53.078125 
" id="BitstreamVeraSans-Roman-73"/>
      <path d="M 48.78125 52.59375 
L 48.78125 44.1875 
Q 44.96875 46.296875 41.140625 47.34375 
Q 37.3125 48.390625 33.40625 48.390625 
Q 24.65625 48.390625 19.8125 42.84375 
Q 14.984375 37.3125 14.984375 27.296875 
Q 14.984375 17.28125 19.8125 11.734375 
Q 24.65625 6.203125 33.40625 6.203125 
Q 37.3125 6.203125 41.140625 7.25 
Q 44.96875 8.296875 48.78125 10.40625 
L 48.78125 2.09375 
Q 45.015625 0.34375 40.984375 -0.53125 
Q 36.96875 -1.421875 32.421875 -1.421875 
Q 20.0625 -1.421875 12.78125 6.34375 
Q 5.515625 14.109375 5.515625 27.296875 
Q 5.515625 40.671875 12.859375 48.328125 
Q 20.21875 56 33.015625 56 
Q 37.15625 56 41.109375 55.140625 
Q 45.0625 54.296875 48.78125 52.59375 
" id="BitstreamVeraSans-Roman-63"/>
      <path d="M 48.6875 27.296875 
Q 48.6875 37.203125 44.609375 42.84375 
Q 40.53125 48.484375 33.40625 48.484375 
Q 26.265625 48.484375 22.1875 42.84375 
Q 18.109375 37.203125 18.109375 27.296875 
Q 18.109375 17.390625 22.1875 11.75 
Q 26.265625 6.109375 33.40625 6.109375 
Q 40.53125 6.109375 44.609375 11.75 
Q 48.6875 17.390625 48.6875 27.296875 
M 18.109375 46.390625 
Q 20.953125 51.265625 25.265625 53.625 
Q 29.59375 56 35.59375 56 
Q 45.5625 56 51.78125 48.09375 
Q 58.015625 40.1875 58.015625 27.296875 
Q 58.015625 14.40625 51.78125 6.484375 
Q 45.5625 -1.421875 35.59375 -1.421875 
Q 29.59375 -1.421875 25.265625 0.953125 
Q 20.953125 3.328125 18.109375 8.203125 
L 18.109375 0 
L 9.078125 0 
L 9.078125 75.984375 
L 18.109375 75.984375 
z
" id="BitstreamVeraSans-Roman-62"/>
     </defs>
     <g transform="translate(129.39875 373.9575)scale(0.16 -0.16)">
      <use xlink:href="#BitstreamVeraSans-Roman-6e"/>
      <use x="63.37890625" xlink:href="#BitstreamVeraSans-Roman-75"/>
      <use x="126.7578125" xlink:href="#BitstreamVeraSans-Roman-6d"/>
      <use x="224.169921875" xlink:href="#BitstreamVeraSans-Roman-62"/>
      <use x="287.646484375" xlink:href="#BitstreamVeraSans-Roman-65"/>
      <use x="349.169921875" xlink:href="#BitstreamVeraSans-Roman-72"/>
      <use x="390.283203125" xlink:href="#BitstreamVeraSans-Roman-20"/>
      <use x="422.0703125" xlink:href="#BitstreamVeraSans-Roman-6f"/>
      <use x="483.251953125" xlink:href="#BitstreamVeraSans-Roman-66"/>
      <use x="518.45703125" xlink:href="#BitstreamVeraSans-Roman-20"/>
      <use x="550.244140625" xlink:href="#BitstreamVeraSans-Roman-66"/>
      <use x="585.44921875" xlink:href="#BitstreamVeraSans-Roman-75"/>
      <use x="648.828125" xlink:href="#BitstreamVeraSans-Roman-6e"/>
      <use x="712.20703125" xlink:href="#BitstreamVeraSans-Roman-63"/>
      <use x="767.1875" xlink:href="#BitstreamVeraSans-Roman-74"/>
      <use x="806.396484375" xlink:href="#BitstreamVeraSans-Roman-69"/>
      <use x="834.1796875" xlink:href="#BitstreamVeraSans-Roman-6f"/>
      <use x="895.361328125" xlink:href="#BitstreamVeraSans-Roman-6e"/>
      <use x="958.740234375" xlink:href="#BitstreamVeraSans-Roman-20"/>
      <use x="990.52734375" xlink:href="#BitstreamVeraSans-Roman-65"/>
      <use x="1052.05078125" xlink:href="#BitstreamVeraSans-Roman-76"/>
      <use x="1111.23046875" xlink:href="#BitstreamVeraSans-Roman-61"/>
      <use x="1172.50976562" xlink:href="#BitstreamVeraSans-Roman-6c"/>
      <use x="1200.29296875" xlink:href="#BitstreamVeraSans-Roman-75"/>
      <use x="1263.671875" xlink:href="#BitstreamVeraSans-Roman-61"/>
      <use x="1324.95117188" xlink:href="#BitstreamVeraSans-Roman-74"/>
      <use x="1364.16015625" xlink:href="#BitstreamVeraSans-Roman-69"/>
      <use x="1391.94335938" xlink:href="#BitstreamVeraSans-Roman-6f"/>
      <use x="1453.125" xlink:href="#BitstreamVeraSans-Roman-6e"/>
      <use x="1516.50390625" xlink:href="#BitstreamVeraSans-Roman-73"/>
     </g>
    </g>
   </g>
   <g id="matplotlib.axis_2">
    <g id="ytick_1">
     <g id="line2d_32">
      <path clip-path="url(#pf1ffbdd667)" d="M 31.685 352.8 
L 478.085 352.8 
" style="fill:none;stroke:#000000;stroke-dasharray:1.000000,3.000000;stroke-dashoffset:0.0;stroke-width:0.5;"/>
     </g>
     <g id="line2d_33">
      <defs>
       <path d="M 0 0 
L 4 0 
" id="m36d85eaa80" style="stroke:#000000;stroke-width:0.5;"/>
      </defs>
      <g>
       <use style="stroke:#000000;stroke-width:0.5;" x="31.685" xlink:href="#m36d85eaa80" y="352.8"/>
      </g>
     </g>
     <g id="line2d_34">
      <defs>
       <path d="M 0 0 
L -4 0 
" id="m779fd0fd42" style="stroke:#000000;stroke-width:0.5;"/>
      </defs>
      <g>
       <use style="stroke:#000000;stroke-width:0.5;" x="478.085" xlink:href="#m779fd0fd42" y="352.8"/>
      </g>
     </g>
    </g>
    <g id="ytick_2">
     <g id="line2d_35">
      <path clip-path="url(#pf1ffbdd667)" d="M 31.685 283.68 
L 478.085 283.68 
" style="fill:none;stroke:#000000;stroke-dasharray:1.000000,3.000000;stroke-dashoffset:0.0;stroke-width:0.5;"/>
     </g>
     <g id="line2d_36">
      <g>
       <use style="stroke:#000000;stroke-width:0.5;" x="31.685" xlink:href="#m36d85eaa80" y="283.68"/>
      </g>
     </g>
     <g id="line2d_37">
      <g>
       <use style="stroke:#000000;stroke-width:0.5;" x="478.085" xlink:href="#m779fd0fd42" y="283.68"/>
      </g>
     </g>
    </g>
    <g id="ytick_3">
     <g id="line2d_38">
      <path clip-path="url(#pf1ffbdd667)" d="M 31.685 214.56 
L 478.085 214.56 
" style="fill:none;stroke:#000000;stroke-dasharray:1.000000,3.000000;stroke-dashoffset:0.0;stroke-width:0.5;"/>
     </g>
     <g id="line2d_39">
      <g>
       <use style="stroke:#000000;stroke-width:0.5;" x="31.685" xlink:href="#m36d85eaa80" y="214.56"/>
      </g>
     </g>
     <g id="line2d_40">
      <g>
       <use style="stroke:#000000;stroke-width:0.5;" x="478.085" xlink:href="#m779fd0fd42" y="214.56"/>
      </g>
     </g>
    </g>
    <g id="ytick_4">
     <g id="line2d_41">
      <path clip-path="url(#pf1ffbdd667)" d="M 31.685 145.44 
L 478.085 145.44 
" style="fill:none;stroke:#000000;stroke-dasharray:1.000000,3.000000;stroke-dashoffset:0.0;stroke-width:0.5;"/>
     </g>
     <g id="line2d_42">
      <g>
       <use style="stroke:#000000;stroke-width:0.5;" x="31.685" xlink:href="#m36d85eaa80" y="145.44"/>
      </g>
     </g>
     <g id="line2d_43">
      <g>
       <use style="stroke:#000000;stroke-width:0.5;" x="478.085" xlink:href="#m779fd0fd42" y="145.44"/>
      </g>
     </g>
    </g>
    <g id="ytick_5">
     <g id="line2d_44">
      <path clip-path="url(#pf1ffbdd667)" d="M 31.685 76.32 
L 478.085 76.32 
" style="fill:none;stroke:#000000;stroke-dasharray:1.000000,3.000000;stroke-dashoffset:0.0;stroke-width:0.5;"/>
     </g>
     <g id="line2d_45">
      <g>
       <use style="stroke:#000000;stroke-width:0.5;" x="31.685" xlink:href="#m36d85eaa80" y="76.32"/>
      </g>
     </g>
     <g id="line2d_46">
      <g>
       <use style="stroke:#000000;stroke-width:0.5;" x="478.085" xlink:href="#m779fd0fd42" y="76.32"/>
      </g>
     </g>
    </g>
    <g id="ytick_6">
     <g id="line2d_47">
      <path clip-path="url(#pf1ffbdd667)" d="M 31.685 7.2 
L 478.085 7.2 
" style="fill:none;stroke:#000000;stroke-dasharray:1.000000,3.000000;stroke-dashoffset:0.0;stroke-width:0.5;"/>
     </g>
     <g id="line2d_48">
      <g>
       <use style="stroke:#000000;stroke-width:0.5;" x="31.685" xlink:href="#m36d85eaa80" y="7.2"/>
      </g>
     </g>
     <g id="line2d_49">
      <g>
       <use style="stroke:#000000;stroke-width:0.5;" x="478.085" xlink:href="#m779fd0fd42" y="7.2"/>
      </g>
     </g>
    </g>
    <g id="text_2">
     <!-- quality indicator (to be minimized) -->
     <defs>
      <path d="M 8.015625 75.875 
L 15.828125 75.875 
Q 23.140625 64.359375 26.78125 53.3125 
Q 30.421875 42.28125 30.421875 31.390625 
Q 30.421875 20.453125 26.78125 9.375 
Q 23.140625 -1.703125 15.828125 -13.1875 
L 8.015625 -13.1875 
Q 14.5 -2 17.703125 9.0625 
Q 20.90625 20.125 20.90625 31.390625 
Q 20.90625 42.671875 17.703125 53.65625 
Q 14.5 64.65625 8.015625 75.875 
" id="BitstreamVeraSans-Roman-29"/>
      <path d="M 31 75.875 
Q 24.46875 64.65625 21.28125 53.65625 
Q 18.109375 42.671875 18.109375 31.390625 
Q 18.109375 20.125 21.3125 9.0625 
Q 24.515625 -2 31 -13.1875 
L 23.1875 -13.1875 
Q 15.875 -1.703125 12.234375 9.375 
Q 8.59375 20.453125 8.59375 31.390625 
Q 8.59375 42.28125 12.203125 53.3125 
Q 15.828125 64.359375 23.1875 75.875 
z
" id="BitstreamVeraSans-Roman-28"/>
      <path d="M 5.515625 54.6875 
L 48.1875 54.6875 
L 48.1875 46.484375 
L 14.40625 7.171875 
L 48.1875 7.171875 
L 48.1875 0 
L 4.296875 0 
L 4.296875 8.203125 
L 38.09375 47.515625 
L 5.515625 47.515625 
z
" id="BitstreamVeraSans-Roman-7a"/>
      <path d="M 32.171875 -5.078125 
Q 28.375 -14.84375 24.75 -17.8125 
Q 21.140625 -20.796875 15.09375 -20.796875 
L 7.90625 -20.796875 
L 7.90625 -13.28125 
L 13.1875 -13.28125 
Q 16.890625 -13.28125 18.9375 -11.515625 
Q 21 -9.765625 23.484375 -3.21875 
L 25.09375 0.875 
L 2.984375 54.6875 
L 12.5 54.6875 
L 29.59375 11.921875 
L 46.6875 54.6875 
L 56.203125 54.6875 
z
" id="BitstreamVeraSans-Roman-79"/>
      <path d="M 45.40625 46.390625 
L 45.40625 75.984375 
L 54.390625 75.984375 
L 54.390625 0 
L 45.40625 0 
L 45.40625 8.203125 
Q 42.578125 3.328125 38.25 0.953125 
Q 33.9375 -1.421875 27.875 -1.421875 
Q 17.96875 -1.421875 11.734375 6.484375 
Q 5.515625 14.40625 5.515625 27.296875 
Q 5.515625 40.1875 11.734375 48.09375 
Q 17.96875 56 27.875 56 
Q 33.9375 56 38.25 53.625 
Q 42.578125 51.265625 45.40625 46.390625 
M 14.796875 27.296875 
Q 14.796875 17.390625 18.875 11.75 
Q 22.953125 6.109375 30.078125 6.109375 
Q 37.203125 6.109375 41.296875 11.75 
Q 45.40625 17.390625 45.40625 27.296875 
Q 45.40625 37.203125 41.296875 42.84375 
Q 37.203125 48.484375 30.078125 48.484375 
Q 22.953125 48.484375 18.875 42.84375 
Q 14.796875 37.203125 14.796875 27.296875 
" id="BitstreamVeraSans-Roman-64"/>
      <path d="M 14.796875 27.296875 
Q 14.796875 17.390625 18.875 11.75 
Q 22.953125 6.109375 30.078125 6.109375 
Q 37.203125 6.109375 41.296875 11.75 
Q 45.40625 17.390625 45.40625 27.296875 
Q 45.40625 37.203125 41.296875 42.84375 
Q 37.203125 48.484375 30.078125 48.484375 
Q 22.953125 48.484375 18.875 42.84375 
Q 14.796875 37.203125 14.796875 27.296875 
M 45.40625 8.203125 
Q 42.578125 3.328125 38.25 0.953125 
Q 33.9375 -1.421875 27.875 -1.421875 
Q 17.96875 -1.421875 11.734375 6.484375 
Q 5.515625 14.40625 5.515625 27.296875 
Q 5.515625 40.1875 11.734375 48.09375 
Q 17.96875 56 27.875 56 
Q 33.9375 56 38.25 53.625 
Q 42.578125 51.265625 45.40625 46.390625 
L 45.40625 54.6875 
L 54.390625 54.6875 
L 54.390625 -20.796875 
L 45.40625 -20.796875 
z
" id="BitstreamVeraSans-Roman-71"/>
     </defs>
     <g transform="translate(19.3575 318.55)rotate(-90.0)scale(0.16 -0.16)">
      <use xlink:href="#BitstreamVeraSans-Roman-71"/>
      <use x="63.4765625" xlink:href="#BitstreamVeraSans-Roman-75"/>
      <use x="126.85546875" xlink:href="#BitstreamVeraSans-Roman-61"/>
      <use x="188.134765625" xlink:href="#BitstreamVeraSans-Roman-6c"/>
      <use x="215.91796875" xlink:href="#BitstreamVeraSans-Roman-69"/>
      <use x="243.701171875" xlink:href="#BitstreamVeraSans-Roman-74"/>
      <use x="282.91015625" xlink:href="#BitstreamVeraSans-Roman-79"/>
      <use x="342.08984375" xlink:href="#BitstreamVeraSans-Roman-20"/>
      <use x="373.876953125" xlink:href="#BitstreamVeraSans-Roman-69"/>
      <use x="401.66015625" xlink:href="#BitstreamVeraSans-Roman-6e"/>
      <use x="465.0390625" xlink:href="#BitstreamVeraSans-Roman-64"/>
      <use x="528.515625" xlink:href="#BitstreamVeraSans-Roman-69"/>
      <use x="556.298828125" xlink:href="#BitstreamVeraSans-Roman-63"/>
      <use x="611.279296875" xlink:href="#BitstreamVeraSans-Roman-61"/>
      <use x="672.55859375" xlink:href="#BitstreamVeraSans-Roman-74"/>
      <use x="711.767578125" xlink:href="#BitstreamVeraSans-Roman-6f"/>
      <use x="772.94921875" xlink:href="#BitstreamVeraSans-Roman-72"/>
      <use x="814.0625" xlink:href="#BitstreamVeraSans-Roman-20"/>
      <use x="845.849609375" xlink:href="#BitstreamVeraSans-Roman-28"/>
      <use x="884.86328125" xlink:href="#BitstreamVeraSans-Roman-74"/>
      <use x="924.072265625" xlink:href="#BitstreamVeraSans-Roman-6f"/>
      <use x="985.25390625" xlink:href="#BitstreamVeraSans-Roman-20"/>
      <use x="1017.04101562" xlink:href="#BitstreamVeraSans-Roman-62"/>
      <use x="1080.51757812" xlink:href="#BitstreamVeraSans-Roman-65"/>
      <use x="1142.04101562" xlink:href="#BitstreamVeraSans-Roman-20"/>
      <use x="1173.828125" xlink:href="#BitstreamVeraSans-Roman-6d"/>
      <use x="1271.24023438" xlink:href="#BitstreamVeraSans-Roman-69"/>
      <use x="1299.0234375" xlink:href="#BitstreamVeraSans-Roman-6e"/>
      <use x="1362.40234375" xlink:href="#BitstreamVeraSans-Roman-69"/>
      <use x="1390.18554688" xlink:href="#BitstreamVeraSans-Roman-6d"/>
      <use x="1487.59765625" xlink:href="#BitstreamVeraSans-Roman-69"/>
      <use x="1515.38085938" xlink:href="#BitstreamVeraSans-Roman-7a"/>
      <use x="1567.87109375" xlink:href="#BitstreamVeraSans-Roman-65"/>
      <use x="1629.39453125" xlink:href="#BitstreamVeraSans-Roman-64"/>
      <use x="1692.87109375" xlink:href="#BitstreamVeraSans-Roman-29"/>
     </g>
    </g>
   </g>
   <g id="text_3">
    <!-- fixed target -->
    <defs>
     <path d="M 45.40625 27.984375 
Q 45.40625 37.75 41.375 43.109375 
Q 37.359375 48.484375 30.078125 48.484375 
Q 22.859375 48.484375 18.828125 43.109375 
Q 14.796875 37.75 14.796875 27.984375 
Q 14.796875 18.265625 18.828125 12.890625 
Q 22.859375 7.515625 30.078125 7.515625 
Q 37.359375 7.515625 41.375 12.890625 
Q 45.40625 18.265625 45.40625 27.984375 
M 54.390625 6.78125 
Q 54.390625 -7.171875 48.1875 -13.984375 
Q 42 -20.796875 29.203125 -20.796875 
Q 24.46875 -20.796875 20.265625 -20.09375 
Q 16.0625 -19.390625 12.109375 -17.921875 
L 12.109375 -9.1875 
Q 16.0625 -11.328125 19.921875 -12.34375 
Q 23.78125 -13.375 27.78125 -13.375 
Q 36.625 -13.375 41.015625 -8.765625 
Q 45.40625 -4.15625 45.40625 5.171875 
L 45.40625 9.625 
Q 42.625 4.78125 38.28125 2.390625 
Q 33.9375 0 27.875 0 
Q 17.828125 0 11.671875 7.65625 
Q 5.515625 15.328125 5.515625 27.984375 
Q 5.515625 40.671875 11.671875 48.328125 
Q 17.828125 56 27.875 56 
Q 33.9375 56 38.28125 53.609375 
Q 42.625 51.21875 45.40625 46.390625 
L 45.40625 54.6875 
L 54.390625 54.6875 
z
" id="BitstreamVeraSans-Roman-67"/>
     <path d="M 54.890625 54.6875 
L 35.109375 28.078125 
L 55.90625 0 
L 45.3125 0 
L 29.390625 21.484375 
L 13.484375 0 
L 2.875 0 
L 24.125 28.609375 
L 4.6875 54.6875 
L 15.28125 54.6875 
L 29.78125 35.203125 
L 44.28125 54.6875 
z
" id="BitstreamVeraSans-Roman-78"/>
    </defs>
    <g style="fill:#ff0000;" transform="translate(40.3950303951 224.928)scale(0.16 -0.16)">
     <use xlink:href="#BitstreamVeraSans-Roman-66"/>
     <use x="35.205078125" xlink:href="#BitstreamVeraSans-Roman-69"/>
     <use x="62.98828125" xlink:href="#BitstreamVeraSans-Roman-78"/>
     <use x="122.12109375" xlink:href="#BitstreamVeraSans-Roman-65"/>
     <use x="183.64453125" xlink:href="#BitstreamVeraSans-Roman-64"/>
     <use x="247.12109375" xlink:href="#BitstreamVeraSans-Roman-20"/>
     <use x="278.908203125" xlink:href="#BitstreamVeraSans-Roman-74"/>
     <use x="318.1171875" xlink:href="#BitstreamVeraSans-Roman-61"/>
     <use x="379.396484375" xlink:href="#BitstreamVeraSans-Roman-72"/>
     <use x="420.494140625" xlink:href="#BitstreamVeraSans-Roman-67"/>
     <use x="483.970703125" xlink:href="#BitstreamVeraSans-Roman-65"/>
     <use x="545.494140625" xlink:href="#BitstreamVeraSans-Roman-74"/>
    </g>
   </g>
   <g id="text_4">
    <!-- fixed budget -->
    <g style="fill:#0000ff;" transform="translate(288.905113982 158.608)rotate(-90.0)scale(0.16 -0.16)">
     <use xlink:href="#BitstreamVeraSans-Roman-66"/>
     <use x="35.205078125" xlink:href="#BitstreamVeraSans-Roman-69"/>
     <use x="62.98828125" xlink:href="#BitstreamVeraSans-Roman-78"/>
     <use x="122.12109375" xlink:href="#BitstreamVeraSans-Roman-65"/>
     <use x="183.64453125" xlink:href="#BitstreamVeraSans-Roman-64"/>
     <use x="247.12109375" xlink:href="#BitstreamVeraSans-Roman-20"/>
     <use x="278.908203125" xlink:href="#BitstreamVeraSans-Roman-62"/>
     <use x="342.384765625" xlink:href="#BitstreamVeraSans-Roman-75"/>
     <use x="405.763671875" xlink:href="#BitstreamVeraSans-Roman-64"/>
     <use x="469.240234375" xlink:href="#BitstreamVeraSans-Roman-67"/>
     <use x="532.716796875" xlink:href="#BitstreamVeraSans-Roman-65"/>
     <use x="594.240234375" xlink:href="#BitstreamVeraSans-Roman-74"/>
    </g>
   </g>
  </g>
 </g>
 <defs>
  <clipPath id="pf1ffbdd667">
   <rect height="345.6" width="446.4" x="31.685" y="7.2"/>
  </clipPath>
 </defs>
</svg>
