<?xml version="1.0" encoding="utf-8" standalone="no"?>
<!DOCTYPE svg PUBLIC "-//W3C//DTD SVG 1.1//EN"
  "http://www.w3.org/Graphics/SVG/1.1/DTD/svg11.dtd">
<!-- Created with matplotlib (http://matplotlib.org/) -->
<svg height="380pt" version="1.1" viewBox="0 0 481 380" width="481pt" xmlns="http://www.w3.org/2000/svg" xmlns:xlink="http://www.w3.org/1999/xlink">
 <defs>
  <style type="text/css">
*{stroke-linecap:butt;stroke-linejoin:round;stroke-miterlimit:100000;}
  </style>
 </defs>
 <g id="figure_1">
  <g id="patch_1">
   <path d="M 0 380.485 
L 481.285 380.485 
L 481.285 0 
L 0 0 
z
" style="fill:#ffffff;"/>
  </g>
  <g id="axes_1">
   <g id="patch_2">
    <path d="M 27.685 352.8 
L 474.085 352.8 
L 474.085 7.2 
L 27.685 7.2 
z
" style="fill:#ffffff;"/>
   </g>
   <g id="line2d_1">
    <path clip-path="url(#p9ffe58be3e)" d="M 27.641231 8.189683 
L 32.018131 13.984995 
L 36.39503 19.126065 
L 40.77193 24.514706 
L 45.14883 25.085369 
L 49.525729 26.270358 
L 53.902629 33.44489 
L 58.279529 36.143343 
L 62.656429 40.61262 
L 67.033328 45.834914 
L 71.410228 52.584696 
L 75.787128 53.47068 
L 80.164027 60.715055 
L 84.540927 63.335196 
L 88.917827 70.090141 
L 93.294726 77.060536 
L 97.671626 78.783071 
L 102.048526 83.223868 
L 106.425426 89.380085 
L 110.802325 92.883902 
L 115.179225 96.13845 
L 119.556125 101.798495 
L 123.933024 102.132909 
L 128.309924 106.972799 
L 132.686824 107.648109 
L 137.063723 108.513757 
L 141.440623 113.671972 
L 145.817523 118.203111 
L 150.194422 125.727646 
L 154.571322 133.198728 
L 158.948222 137.91064 
L 163.325122 145.060544 
L 167.702021 150.079393 
L 172.078921 152.672892 
L 176.455821 154.43742 
L 180.83272 159.006338 
L 185.20962 166.192817 
L 189.58652 169.521591 
L 193.963419 175.786496 
L 198.340319 176.649519 
L 202.717219 178.723159 
L 207.094119 183.581407 
L 211.471018 187.685815 
L 215.847918 194.733719 
L 220.224818 198.656323 
L 224.601717 202.280767 
L 228.978617 209.463114 
L 233.355517 213.698492 
L 237.732416 214.263821 
L 242.109316 214.860333 
L 246.486216 220.530424 
L 250.863116 227.071524 
L 255.240015 233.889972 
L 259.616915 235.846217 
L 263.993815 237.146617 
L 268.370714 239.571428 
L 272.747614 240.426365 
L 277.124514 243.464952 
L 281.501413 243.687845 
L 285.878313 250.004197 
L 290.255213 253.947354 
L 294.632112 256.227239 
L 299.009012 257.001803 
L 303.385912 263.693838 
L 307.762812 264.54437 
L 312.139711 269.123444 
L 316.516611 275.418853 
L 320.893511 275.448097 
L 325.27041 282.157682 
L 329.64731 282.662303 
L 334.02421 283.196023 
L 338.401109 285.036556 
L 342.778009 289.838561 
L 347.154909 290.138714 
L 351.531809 291.091074 
L 355.908708 291.928655 
L 360.285608 294.215291 
L 364.662508 299.983526 
L 369.039407 303.939575 
L 373.416307 308.897986 
L 377.793207 316.248404 
L 382.170106 318.496212 
L 386.547006 319.483381 
L 390.923906 325.189598 
L 395.300805 330.22336 
L 399.677705 334.187046 
L 404.054605 336.525321 
L 408.431505 337.173251 
L 412.808404 339.452355 
L 417.185304 340.975104 
L 421.562204 343.13388 
L 425.939103 347.213165 
L 430.316003 350.010572 
L 434.692903 353.872869 
L 439.069802 354.76204 
L 443.446702 355.037936 
L 447.823602 357.159739 
L 452.200502 357.62061 
L 456.577401 364.941737 
L 460.954301 368.884233 
" style="fill:none;stroke:#000000;stroke-linecap:square;stroke-width:1.5;"/>
   </g>
   <g id="line2d_2">
    <path clip-path="url(#p9ffe58be3e)" d="M 27.641231 16.989918 
L 32.018131 18.134227 
L 36.39503 19.726476 
L 40.77193 21.593636 
L 45.14883 24.29061 
L 49.525729 25.067742 
L 53.902629 25.331157 
L 58.279529 26.535515 
L 62.656429 27.197511 
L 67.033328 27.304488 
L 71.410228 28.381909 
L 75.787128 28.901329 
L 80.164027 29.465701 
L 84.540927 30.210782 
L 88.917827 30.454957 
L 93.294726 31.026844 
L 97.671626 31.43411 
L 102.048526 31.945356 
L 106.425426 32.304529 
L 110.802325 32.329252 
L 115.179225 32.733852 
L 119.556125 33.342402 
L 123.933024 33.645868 
L 128.309924 33.986315 
L 132.686824 34.35485 
L 137.063723 34.446511 
L 141.440623 34.581162 
L 145.817523 34.944648 
L 150.194422 35.281121 
L 154.571322 35.415949 
L 158.948222 35.659084 
L 163.325122 35.760546 
L 167.702021 35.906576 
L 172.078921 36.294095 
L 176.455821 36.688279 
L 180.83272 36.871966 
L 185.20962 37.114672 
L 189.58652 37.382747 
L 193.963419 37.452836 
L 198.340319 37.613124 
L 202.717219 37.884976 
L 207.094119 38.151175 
L 211.471018 38.443549 
L 215.847918 38.648129 
L 220.224818 38.690523 
L 224.601717 38.887832 
L 228.978617 38.938186 
L 233.355517 39.110634 
L 237.732416 39.339142 
L 242.109316 39.460171 
L 246.486216 39.517133 
L 250.863116 39.591275 
L 255.240015 39.823997 
L 259.616915 39.987197 
L 263.993815 40.221547 
L 268.370714 40.324901 
L 272.747614 40.385583 
L 277.124514 40.623889 
L 281.501413 40.679599 
L 285.878313 40.717561 
L 290.255213 40.904846 
L 294.632112 41.053585 
L 299.009012 41.061761 
L 303.385912 41.20437 
L 307.762812 41.410497 
L 312.139711 41.512996 
L 316.516611 41.523847 
L 320.893511 41.618509 
L 325.27041 41.663348 
L 329.64731 41.699111 
L 334.02421 41.857872 
L 338.401109 42.003029 
L 342.778009 42.18088 
L 347.154909 42.306958 
L 351.531809 42.394533 
L 355.908708 42.51096 
L 360.285608 42.562169 
L 364.662508 42.716706 
L 369.039407 42.884588 
L 373.416307 42.916205 
L 377.793207 43.017998 
L 382.170106 43.075204 
L 386.547006 43.212336 
L 390.923906 43.338415 
L 395.300805 43.360868 
L 399.677705 43.397744 
L 404.054605 43.473627 
L 408.431505 43.626061 
L 412.808404 43.695551 
L 417.185304 43.817253 
L 421.562204 43.947292 
L 425.939103 43.961912 
L 430.316003 44.074213 
L 434.692903 44.173594 
L 439.069802 44.188883 
L 443.446702 44.313751 
L 447.823602 44.37975 
L 452.200502 44.50166 
L 456.577401 44.600722 
L 460.954301 44.654588 
L 465.331201 44.788722 
L 469.7081 44.896393 
L 474.085 44.902529 
L 478.4619 44.953837 
L 482.285 44.960077 
" style="fill:none;stroke:#000000;stroke-linecap:square;stroke-width:1.5;"/>
   </g>
   <g id="line2d_3">
    <path clip-path="url(#p9ffe58be3e)" d="M 27.641231 11.605352 
L 32.018131 16.538094 
L 36.39503 20.131137 
L 40.77193 25.099215 
L 45.14883 29.627468 
L 49.525729 31.332624 
L 53.902629 32.849793 
L 58.279529 36.972965 
L 62.656429 41.877686 
L 67.033328 47.216493 
L 71.410228 49.588764 
L 75.787128 51.909932 
L 80.164027 52.880001 
L 84.540927 55.696507 
L 88.917827 57.86169 
L 93.294726 60.331943 
L 97.671626 63.344179 
L 102.048526 65.839156 
L 106.425426 67.128808 
L 110.802325 68.506251 
L 115.179225 72.706901 
L 119.556125 77.669985 
L 123.933024 79.907957 
L 128.309924 84.636063 
L 132.686824 89.093568 
L 137.063723 93.764775 
L 141.440623 96.735189 
L 145.817523 98.317382 
L 150.194422 99.781792 
L 154.571322 100.679405 
L 158.948222 103.7638 
L 163.325122 107.952674 
L 167.702021 113.292194 
L 172.078921 118.752229 
L 176.455821 123.851141 
L 180.83272 127.144725 
L 185.20962 130.215219 
L 189.58652 132.98672 
L 193.963419 136.345378 
L 198.340319 141.221072 
L 202.717219 142.224359 
L 207.094119 143.172235 
L 211.471018 144.458268 
L 215.847918 146.05791 
L 220.224818 150.178178 
L 224.601717 152.904445 
L 228.978617 155.13186 
L 233.355517 158.001771 
L 237.732416 160.812009 
L 242.109316 165.500041 
L 246.486216 166.458391 
L 250.863116 168.432448 
L 255.240015 169.93468 
L 259.616915 170.926901 
L 263.993815 175.180531 
L 268.370714 180.361983 
L 272.747614 181.964868 
L 277.124514 185.51738 
L 281.501413 190.324742 
L 285.878313 195.80512 
L 290.255213 200.326054 
L 294.632112 205.01381 
L 299.009012 205.450661 
L 303.385912 207.821912 
L 307.762812 210.810427 
L 312.139711 214.421271 
L 316.516611 215.828045 
L 320.893511 216.799946 
L 325.27041 220.742108 
L 329.64731 222.815062 
L 334.02421 222.889871 
L 338.401109 223.469485 
L 342.778009 228.509886 
L 347.154909 230.58392 
L 351.531809 235.580207 
L 355.908708 236.259397 
L 360.285608 241.660865 
L 364.662508 244.355573 
L 369.039407 245.063601 
L 373.416307 245.391231 
L 377.793207 248.012278 
L 382.170106 251.229395 
L 386.547006 256.094132 
L 390.923906 256.537572 
L 395.300805 261.670269 
L 399.677705 265.090036 
L 404.054605 265.170133 
L 408.431505 265.879155 
L 412.808404 271.303654 
L 417.185304 274.723567 
L 421.562204 274.844443 
L 425.939103 278.19904 
L 430.316003 282.821215 
L 434.692903 287.725601 
L 439.069802 291.155833 
" style="fill:none;stroke:#000000;stroke-linecap:square;stroke-width:1.5;"/>
   </g>
   <g id="line2d_4">
    <path clip-path="url(#p9ffe58be3e)" d="M 27.641231 12.20377 
L 32.018131 13.357589 
L 36.39503 15.812417 
L 40.77193 25.253719 
L 45.14883 28.604068 
L 49.525729 37.089782 
L 53.902629 44.680464 
L 58.279529 47.982766 
L 62.656429 53.885988 
L 67.033328 61.644413 
L 71.410228 61.818574 
L 75.787128 70.753787 
L 80.164027 72.519585 
L 84.540927 77.943787 
L 88.917827 86.184158 
L 93.294726 94.312479 
L 97.671626 98.418681 
L 102.048526 106.909312 
L 106.425426 112.912703 
L 110.802325 116.368922 
L 115.179225 125.622523 
L 119.556125 131.652395 
L 123.933024 136.354028 
L 128.309924 145.327769 
L 132.686824 147.121136 
L 137.063723 150.85664 
L 141.440623 158.174188 
L 145.817523 160.298156 
L 150.194422 163.150205 
L 154.571322 170.688887 
L 158.948222 179.050829 
L 163.325122 184.221704 
L 167.702021 186.46882 
L 172.078921 188.182466 
L 176.455821 188.210441 
L 180.83272 188.50672 
L 185.20962 196.676601 
L 189.58652 200.445408 
L 193.963419 201.40317 
L 198.340319 210.694557 
L 202.717219 217.041864 
L 207.094119 224.661949 
L 211.471018 230.400996 
L 215.847918 230.95366 
L 220.224818 239.943356 
L 224.601717 247.884786 
L 228.978617 249.755429 
L 233.355517 252.31873 
L 237.732416 253.880725 
L 242.109316 260.961089 
L 246.486216 263.650353 
L 250.863116 267.870618 
L 255.240015 270.44007 
L 259.616915 277.3445 
L 263.993815 279.839608 
L 268.370714 289.135686 
L 272.747614 290.023657 
L 277.124514 296.290585 
L 281.501413 300.000715 
L 285.878313 303.175732 
L 290.255213 309.408764 
L 294.632112 313.211711 
L 299.009012 320.008719 
L 303.385912 329.478751 
L 307.762812 334.909605 
" style="fill:none;stroke:#000000;stroke-linecap:square;stroke-width:1.5;"/>
   </g>
   <g id="line2d_5">
    <path clip-path="url(#p9ffe58be3e)" d="M 27.641231 13.555827 
L 32.018131 16.587685 
L 36.39503 17.102897 
L 40.77193 19.300435 
L 45.14883 21.278394 
L 49.525729 27.493954 
L 53.902629 29.925205 
L 58.279529 31.51772 
L 62.656429 34.388663 
L 67.033328 42.386288 
L 71.410228 51.048967 
L 75.787128 55.983307 
L 80.164027 64.359102 
L 84.540927 66.68917 
L 88.917827 77.850559 
L 93.294726 81.979518 
L 97.671626 89.761262 
L 102.048526 103.21568 
L 106.425426 111.283874 
L 110.802325 123.262211 
L 115.179225 132.354308 
L 119.556125 136.837276 
L 123.933024 144.136773 
L 128.309924 153.146272 
L 132.686824 168.224363 
L 137.063723 182.360991 
L 141.440623 202.373782 
L 145.817523 218.153776 
L 150.194422 239.053723 
L 154.571322 246.846226 
L 158.948222 260.307152 
L 163.325122 283.961227 
L 167.702021 301.5551 
L 172.078921 320.324035 
L 176.455821 345.29532 
L 180.83272 363.157595 
L 185.20962 375.85383 
L 186.611043 381.485 
" style="fill:none;stroke:#000000;stroke-linecap:square;stroke-width:1.5;"/>
   </g>
   <g id="line2d_6">
    <defs>
     <path d="M 0 -10 
L -2.24514 -3.09017 
L -9.510565 -3.09017 
L -3.632713 1.18034 
L -5.877853 8.09017 
L -0 3.81966 
L 5.877853 8.09017 
L 3.632713 1.18034 
L 9.510565 -3.09017 
L 2.24514 -3.09017 
z
" id="mbaede9e2f7" style="stroke:#000000;stroke-linejoin:bevel;stroke-width:0.5;"/>
    </defs>
    <g clip-path="url(#p9ffe58be3e)">
     <use style="fill:#0000ff;stroke:#000000;stroke-linejoin:bevel;stroke-width:0.5;" x="290.255212766" xlink:href="#mbaede9e2f7" y="253.947353822"/>
    </g>
   </g>
   <g id="line2d_7">
    <defs>
     <path d="M 0 -10 
L -2.24514 -3.09017 
L -9.510565 -3.09017 
L -3.632713 1.18034 
L -5.877853 8.09017 
L -0 3.81966 
L 5.877853 8.09017 
L 3.632713 1.18034 
L 9.510565 -3.09017 
L 2.24514 -3.09017 
z
" id="m523939fd2d" style="stroke:#000000;stroke-linejoin:bevel;stroke-width:0.5;"/>
    </defs>
    <g clip-path="url(#p9ffe58be3e)">
     <use style="fill:#ff0000;stroke:#000000;stroke-linejoin:bevel;stroke-width:0.5;" x="253.05156535" xlink:href="#m523939fd2d" y="231.84"/>
    </g>
   </g>
   <g id="line2d_8">
    <g clip-path="url(#p9ffe58be3e)">
     <use style="fill:#0000ff;stroke:#000000;stroke-linejoin:bevel;stroke-width:0.5;" x="290.255212766" xlink:href="#mbaede9e2f7" y="40.9048456448"/>
    </g>
   </g>
   <g id="line2d_9">
    <g clip-path="url(#p9ffe58be3e)">
     <use style="fill:#0000ff;stroke:#000000;stroke-linejoin:bevel;stroke-width:0.5;" x="290.255212766" xlink:href="#mbaede9e2f7" y="200.326054294"/>
    </g>
   </g>
   <g id="line2d_10">
    <g clip-path="url(#p9ffe58be3e)">
     <use style="fill:#ff0000;stroke:#000000;stroke-linejoin:bevel;stroke-width:0.5;" x="349.343358663" xlink:href="#m523939fd2d" y="231.84"/>
    </g>
   </g>
   <g id="line2d_11">
    <g clip-path="url(#p9ffe58be3e)">
     <use style="fill:#0000ff;stroke:#000000;stroke-linejoin:bevel;stroke-width:0.5;" x="290.255212766" xlink:href="#mbaede9e2f7" y="309.408763924"/>
    </g>
   </g>
   <g id="line2d_12">
    <g clip-path="url(#p9ffe58be3e)">
     <use style="fill:#ff0000;stroke:#000000;stroke-linejoin:bevel;stroke-width:0.5;" x="218.036367781" xlink:href="#m523939fd2d" y="231.84"/>
    </g>
   </g>
   <g id="line2d_13">
    <g clip-path="url(#p9ffe58be3e)">
     <use style="fill:#0000ff;stroke:#000000;stroke-linejoin:bevel;stroke-width:0.5;" x="290.255212766" xlink:href="#mbaede9e2f7" y="1027.6252709"/>
    </g>
   </g>
   <g id="line2d_14">
    <g clip-path="url(#p9ffe58be3e)">
     <use style="fill:#ff0000;stroke:#000000;stroke-linejoin:bevel;stroke-width:0.5;" x="148.005972644" xlink:href="#m523939fd2d" y="231.84"/>
    </g>
   </g>
   <g id="line2d_15">
    <path clip-path="url(#p9ffe58be3e)" d="M 290.255213 352.8 
L 290.255213 7.2 
" style="fill:none;stroke:#0000ff;stroke-dasharray:6.000000,6.000000;stroke-dashoffset:0.0;stroke-width:1.5;"/>
   </g>
   <g id="line2d_16">
    <path clip-path="url(#p9ffe58be3e)" d="M 27.685 231.84 
L 474.085 231.84 
" style="fill:none;stroke:#ff0000;stroke-dasharray:6.000000,6.000000;stroke-dashoffset:0.0;stroke-width:1.5;"/>
   </g>
   <g id="patch_3">
    <path d="M 27.685 7.2 
L 474.085 7.2 
" style="fill:none;stroke:#000000;stroke-linecap:square;stroke-linejoin:miter;"/>
   </g>
   <g id="patch_4">
    <path d="M 474.085 352.8 
L 474.085 7.2 
" style="fill:none;stroke:#000000;stroke-linecap:square;stroke-linejoin:miter;"/>
   </g>
   <g id="patch_5">
    <path d="M 27.685 352.8 
L 474.085 352.8 
" style="fill:none;stroke:#000000;stroke-linecap:square;stroke-linejoin:miter;"/>
   </g>
   <g id="patch_6">
    <path d="M 27.685 352.8 
L 27.685 7.2 
" style="fill:none;stroke:#000000;stroke-linecap:square;stroke-linejoin:miter;"/>
   </g>
   <g id="matplotlib.axis_1">
    <g id="text_1">
     <!-- number of function evaluations -->
     <defs>
      <path id="BitstreamVeraSans-Roman-20"/>
      <path d="M 37.109375 75.984375 
L 37.109375 68.5 
L 28.515625 68.5 
Q 23.6875 68.5 21.796875 66.546875 
Q 19.921875 64.59375 19.921875 59.515625 
L 19.921875 54.6875 
L 34.71875 54.6875 
L 34.71875 47.703125 
L 19.921875 47.703125 
L 19.921875 0 
L 10.890625 0 
L 10.890625 47.703125 
L 2.296875 47.703125 
L 2.296875 54.6875 
L 10.890625 54.6875 
L 10.890625 58.5 
Q 10.890625 67.625 15.140625 71.796875 
Q 19.390625 75.984375 28.609375 75.984375 
z
" id="BitstreamVeraSans-Roman-66"/>
      <path d="M 34.28125 27.484375 
Q 23.390625 27.484375 19.1875 25 
Q 14.984375 22.515625 14.984375 16.5 
Q 14.984375 11.71875 18.140625 8.90625 
Q 21.296875 6.109375 26.703125 6.109375 
Q 34.1875 6.109375 38.703125 11.40625 
Q 43.21875 16.703125 43.21875 25.484375 
L 43.21875 27.484375 
z
M 52.203125 31.203125 
L 52.203125 0 
L 43.21875 0 
L 43.21875 8.296875 
Q 40.140625 3.328125 35.546875 0.953125 
Q 30.953125 -1.421875 24.3125 -1.421875 
Q 15.921875 -1.421875 10.953125 3.296875 
Q 6 8.015625 6 15.921875 
Q 6 25.140625 12.171875 29.828125 
Q 18.359375 34.515625 30.609375 34.515625 
L 43.21875 34.515625 
L 43.21875 35.40625 
Q 43.21875 41.609375 39.140625 45 
Q 35.0625 48.390625 27.6875 48.390625 
Q 23 48.390625 18.546875 47.265625 
Q 14.109375 46.140625 10.015625 43.890625 
L 10.015625 52.203125 
Q 14.9375 54.109375 19.578125 55.046875 
Q 24.21875 56 28.609375 56 
Q 40.484375 56 46.34375 49.84375 
Q 52.203125 43.703125 52.203125 31.203125 
" id="BitstreamVeraSans-Roman-61"/>
      <path d="M 54.890625 33.015625 
L 54.890625 0 
L 45.90625 0 
L 45.90625 32.71875 
Q 45.90625 40.484375 42.875 44.328125 
Q 39.84375 48.1875 33.796875 48.1875 
Q 26.515625 48.1875 22.3125 43.546875 
Q 18.109375 38.921875 18.109375 30.90625 
L 18.109375 0 
L 9.078125 0 
L 9.078125 54.6875 
L 18.109375 54.6875 
L 18.109375 46.1875 
Q 21.34375 51.125 25.703125 53.5625 
Q 30.078125 56 35.796875 56 
Q 45.21875 56 50.046875 50.171875 
Q 54.890625 44.34375 54.890625 33.015625 
" id="BitstreamVeraSans-Roman-6e"/>
      <path d="M 52 44.1875 
Q 55.375 50.25 60.0625 53.125 
Q 64.75 56 71.09375 56 
Q 79.640625 56 84.28125 50.015625 
Q 88.921875 44.046875 88.921875 33.015625 
L 88.921875 0 
L 79.890625 0 
L 79.890625 32.71875 
Q 79.890625 40.578125 77.09375 44.375 
Q 74.3125 48.1875 68.609375 48.1875 
Q 61.625 48.1875 57.5625 43.546875 
Q 53.515625 38.921875 53.515625 30.90625 
L 53.515625 0 
L 44.484375 0 
L 44.484375 32.71875 
Q 44.484375 40.625 41.703125 44.40625 
Q 38.921875 48.1875 33.109375 48.1875 
Q 26.21875 48.1875 22.15625 43.53125 
Q 18.109375 38.875 18.109375 30.90625 
L 18.109375 0 
L 9.078125 0 
L 9.078125 54.6875 
L 18.109375 54.6875 
L 18.109375 46.1875 
Q 21.1875 51.21875 25.484375 53.609375 
Q 29.78125 56 35.6875 56 
Q 41.65625 56 45.828125 52.96875 
Q 50 49.953125 52 44.1875 
" id="BitstreamVeraSans-Roman-6d"/>
      <path d="M 30.609375 48.390625 
Q 23.390625 48.390625 19.1875 42.75 
Q 14.984375 37.109375 14.984375 27.296875 
Q 14.984375 17.484375 19.15625 11.84375 
Q 23.34375 6.203125 30.609375 6.203125 
Q 37.796875 6.203125 41.984375 11.859375 
Q 46.1875 17.53125 46.1875 27.296875 
Q 46.1875 37.015625 41.984375 42.703125 
Q 37.796875 48.390625 30.609375 48.390625 
M 30.609375 56 
Q 42.328125 56 49.015625 48.375 
Q 55.71875 40.765625 55.71875 27.296875 
Q 55.71875 13.875 49.015625 6.21875 
Q 42.328125 -1.421875 30.609375 -1.421875 
Q 18.84375 -1.421875 12.171875 6.21875 
Q 5.515625 13.875 5.515625 27.296875 
Q 5.515625 40.765625 12.171875 48.375 
Q 18.84375 56 30.609375 56 
" id="BitstreamVeraSans-Roman-6f"/>
      <path d="M 9.421875 75.984375 
L 18.40625 75.984375 
L 18.40625 0 
L 9.421875 0 
z
" id="BitstreamVeraSans-Roman-6c"/>
      <path d="M 2.984375 54.6875 
L 12.5 54.6875 
L 29.59375 8.796875 
L 46.6875 54.6875 
L 56.203125 54.6875 
L 35.6875 0 
L 23.484375 0 
z
" id="BitstreamVeraSans-Roman-76"/>
      <path d="M 9.421875 54.6875 
L 18.40625 54.6875 
L 18.40625 0 
L 9.421875 0 
z
M 9.421875 75.984375 
L 18.40625 75.984375 
L 18.40625 64.59375 
L 9.421875 64.59375 
z
" id="BitstreamVeraSans-Roman-69"/>
      <path d="M 56.203125 29.59375 
L 56.203125 25.203125 
L 14.890625 25.203125 
Q 15.484375 15.921875 20.484375 11.0625 
Q 25.484375 6.203125 34.421875 6.203125 
Q 39.59375 6.203125 44.453125 7.46875 
Q 49.3125 8.734375 54.109375 11.28125 
L 54.109375 2.78125 
Q 49.265625 0.734375 44.1875 -0.34375 
Q 39.109375 -1.421875 33.890625 -1.421875 
Q 20.796875 -1.421875 13.15625 6.1875 
Q 5.515625 13.8125 5.515625 26.8125 
Q 5.515625 40.234375 12.765625 48.109375 
Q 20.015625 56 32.328125 56 
Q 43.359375 56 49.78125 48.890625 
Q 56.203125 41.796875 56.203125 29.59375 
M 47.21875 32.234375 
Q 47.125 39.59375 43.09375 43.984375 
Q 39.0625 48.390625 32.421875 48.390625 
Q 24.90625 48.390625 20.390625 44.140625 
Q 15.875 39.890625 15.1875 32.171875 
z
" id="BitstreamVeraSans-Roman-65"/>
      <path d="M 18.3125 70.21875 
L 18.3125 54.6875 
L 36.8125 54.6875 
L 36.8125 47.703125 
L 18.3125 47.703125 
L 18.3125 18.015625 
Q 18.3125 11.328125 20.140625 9.421875 
Q 21.96875 7.515625 27.59375 7.515625 
L 36.8125 7.515625 
L 36.8125 0 
L 27.59375 0 
Q 17.1875 0 13.234375 3.875 
Q 9.28125 7.765625 9.28125 18.015625 
L 9.28125 47.703125 
L 2.6875 47.703125 
L 2.6875 54.6875 
L 9.28125 54.6875 
L 9.28125 70.21875 
z
" id="BitstreamVeraSans-Roman-74"/>
      <path d="M 8.5 21.578125 
L 8.5 54.6875 
L 17.484375 54.6875 
L 17.484375 21.921875 
Q 17.484375 14.15625 20.5 10.265625 
Q 23.53125 6.390625 29.59375 6.390625 
Q 36.859375 6.390625 41.078125 11.03125 
Q 45.3125 15.671875 45.3125 23.6875 
L 45.3125 54.6875 
L 54.296875 54.6875 
L 54.296875 0 
L 45.3125 0 
L 45.3125 8.40625 
Q 42.046875 3.421875 37.71875 1 
Q 33.40625 -1.421875 27.6875 -1.421875 
Q 18.265625 -1.421875 13.375 4.4375 
Q 8.5 10.296875 8.5 21.578125 
" id="BitstreamVeraSans-Roman-75"/>
      <path d="M 41.109375 46.296875 
Q 39.59375 47.171875 37.8125 47.578125 
Q 36.03125 48 33.890625 48 
Q 26.265625 48 22.1875 43.046875 
Q 18.109375 38.09375 18.109375 28.8125 
L 18.109375 0 
L 9.078125 0 
L 9.078125 54.6875 
L 18.109375 54.6875 
L 18.109375 46.1875 
Q 20.953125 51.171875 25.484375 53.578125 
Q 30.03125 56 36.53125 56 
Q 37.453125 56 38.578125 55.875 
Q 39.703125 55.765625 41.0625 55.515625 
z
" id="BitstreamVeraSans-Roman-72"/>
      <path d="M 44.28125 53.078125 
L 44.28125 44.578125 
Q 40.484375 46.53125 36.375 47.5 
Q 32.28125 48.484375 27.875 48.484375 
Q 21.1875 48.484375 17.84375 46.4375 
Q 14.5 44.390625 14.5 40.28125 
Q 14.5 37.15625 16.890625 35.375 
Q 19.28125 33.59375 26.515625 31.984375 
L 29.59375 31.296875 
Q 39.15625 29.25 43.1875 25.515625 
Q 47.21875 21.78125 47.21875 15.09375 
Q 47.21875 7.46875 41.1875 3.015625 
Q 35.15625 -1.421875 24.609375 -1.421875 
Q 20.21875 -1.421875 15.453125 -0.5625 
Q 10.6875 0.296875 5.421875 2 
L 5.421875 11.28125 
Q 10.40625 8.6875 15.234375 7.390625 
Q 20.0625 6.109375 24.8125 6.109375 
Q 31.15625 6.109375 34.5625 8.28125 
Q 37.984375 10.453125 37.984375 14.40625 
Q 37.984375 18.0625 35.515625 20.015625 
Q 33.0625 21.96875 24.703125 23.78125 
L 21.578125 24.515625 
Q 13.234375 26.265625 9.515625 29.90625 
Q 5.8125 33.546875 5.8125 39.890625 
Q 5.8125 47.609375 11.28125 51.796875 
Q 16.75 56 26.8125 56 
Q 31.78125 56 36.171875 55.265625 
Q 40.578125 54.546875 44.28125 53.078125 
" id="BitstreamVeraSans-Roman-73"/>
      <path d="M 48.78125 52.59375 
L 48.78125 44.1875 
Q 44.96875 46.296875 41.140625 47.34375 
Q 37.3125 48.390625 33.40625 48.390625 
Q 24.65625 48.390625 19.8125 42.84375 
Q 14.984375 37.3125 14.984375 27.296875 
Q 14.984375 17.28125 19.8125 11.734375 
Q 24.65625 6.203125 33.40625 6.203125 
Q 37.3125 6.203125 41.140625 7.25 
Q 44.96875 8.296875 48.78125 10.40625 
L 48.78125 2.09375 
Q 45.015625 0.34375 40.984375 -0.53125 
Q 36.96875 -1.421875 32.421875 -1.421875 
Q 20.0625 -1.421875 12.78125 6.34375 
Q 5.515625 14.109375 5.515625 27.296875 
Q 5.515625 40.671875 12.859375 48.328125 
Q 20.21875 56 33.015625 56 
Q 37.15625 56 41.109375 55.140625 
Q 45.0625 54.296875 48.78125 52.59375 
" id="BitstreamVeraSans-Roman-63"/>
      <path d="M 48.6875 27.296875 
Q 48.6875 37.203125 44.609375 42.84375 
Q 40.53125 48.484375 33.40625 48.484375 
Q 26.265625 48.484375 22.1875 42.84375 
Q 18.109375 37.203125 18.109375 27.296875 
Q 18.109375 17.390625 22.1875 11.75 
Q 26.265625 6.109375 33.40625 6.109375 
Q 40.53125 6.109375 44.609375 11.75 
Q 48.6875 17.390625 48.6875 27.296875 
M 18.109375 46.390625 
Q 20.953125 51.265625 25.265625 53.625 
Q 29.59375 56 35.59375 56 
Q 45.5625 56 51.78125 48.09375 
Q 58.015625 40.1875 58.015625 27.296875 
Q 58.015625 14.40625 51.78125 6.484375 
Q 45.5625 -1.421875 35.59375 -1.421875 
Q 29.59375 -1.421875 25.265625 0.953125 
Q 20.953125 3.328125 18.109375 8.203125 
L 18.109375 0 
L 9.078125 0 
L 9.078125 75.984375 
L 18.109375 75.984375 
z
" id="BitstreamVeraSans-Roman-62"/>
     </defs>
     <g transform="translate(125.39875 369.9575)scale(0.16 -0.16)">
      <use xlink:href="#BitstreamVeraSans-Roman-6e"/>
      <use x="63.37890625" xlink:href="#BitstreamVeraSans-Roman-75"/>
      <use x="126.7578125" xlink:href="#BitstreamVeraSans-Roman-6d"/>
      <use x="224.169921875" xlink:href="#BitstreamVeraSans-Roman-62"/>
      <use x="287.646484375" xlink:href="#BitstreamVeraSans-Roman-65"/>
      <use x="349.169921875" xlink:href="#BitstreamVeraSans-Roman-72"/>
      <use x="390.283203125" xlink:href="#BitstreamVeraSans-Roman-20"/>
      <use x="422.0703125" xlink:href="#BitstreamVeraSans-Roman-6f"/>
      <use x="483.251953125" xlink:href="#BitstreamVeraSans-Roman-66"/>
      <use x="518.45703125" xlink:href="#BitstreamVeraSans-Roman-20"/>
      <use x="550.244140625" xlink:href="#BitstreamVeraSans-Roman-66"/>
      <use x="585.44921875" xlink:href="#BitstreamVeraSans-Roman-75"/>
      <use x="648.828125" xlink:href="#BitstreamVeraSans-Roman-6e"/>
      <use x="712.20703125" xlink:href="#BitstreamVeraSans-Roman-63"/>
      <use x="767.1875" xlink:href="#BitstreamVeraSans-Roman-74"/>
      <use x="806.396484375" xlink:href="#BitstreamVeraSans-Roman-69"/>
      <use x="834.1796875" xlink:href="#BitstreamVeraSans-Roman-6f"/>
      <use x="895.361328125" xlink:href="#BitstreamVeraSans-Roman-6e"/>
      <use x="958.740234375" xlink:href="#BitstreamVeraSans-Roman-20"/>
      <use x="990.52734375" xlink:href="#BitstreamVeraSans-Roman-65"/>
      <use x="1052.05078125" xlink:href="#BitstreamVeraSans-Roman-76"/>
      <use x="1111.23046875" xlink:href="#BitstreamVeraSans-Roman-61"/>
      <use x="1172.50976562" xlink:href="#BitstreamVeraSans-Roman-6c"/>
      <use x="1200.29296875" xlink:href="#BitstreamVeraSans-Roman-75"/>
      <use x="1263.671875" xlink:href="#BitstreamVeraSans-Roman-61"/>
      <use x="1324.95117188" xlink:href="#BitstreamVeraSans-Roman-74"/>
      <use x="1364.16015625" xlink:href="#BitstreamVeraSans-Roman-69"/>
      <use x="1391.94335938" xlink:href="#BitstreamVeraSans-Roman-6f"/>
      <use x="1453.125" xlink:href="#BitstreamVeraSans-Roman-6e"/>
      <use x="1516.50390625" xlink:href="#BitstreamVeraSans-Roman-73"/>
     </g>
    </g>
   </g>
   <g id="matplotlib.axis_2">
    <g id="text_2">
     <!-- quality indicator (to be minimized) -->
     <defs>
      <path d="M 8.015625 75.875 
L 15.828125 75.875 
Q 23.140625 64.359375 26.78125 53.3125 
Q 30.421875 42.28125 30.421875 31.390625 
Q 30.421875 20.453125 26.78125 9.375 
Q 23.140625 -1.703125 15.828125 -13.1875 
L 8.015625 -13.1875 
Q 14.5 -2 17.703125 9.0625 
Q 20.90625 20.125 20.90625 31.390625 
Q 20.90625 42.671875 17.703125 53.65625 
Q 14.5 64.65625 8.015625 75.875 
" id="BitstreamVeraSans-Roman-29"/>
      <path d="M 31 75.875 
Q 24.46875 64.65625 21.28125 53.65625 
Q 18.109375 42.671875 18.109375 31.390625 
Q 18.109375 20.125 21.3125 9.0625 
Q 24.515625 -2 31 -13.1875 
L 23.1875 -13.1875 
Q 15.875 -1.703125 12.234375 9.375 
Q 8.59375 20.453125 8.59375 31.390625 
Q 8.59375 42.28125 12.203125 53.3125 
Q 15.828125 64.359375 23.1875 75.875 
z
" id="BitstreamVeraSans-Roman-28"/>
      <path d="M 5.515625 54.6875 
L 48.1875 54.6875 
L 48.1875 46.484375 
L 14.40625 7.171875 
L 48.1875 7.171875 
L 48.1875 0 
L 4.296875 0 
L 4.296875 8.203125 
L 38.09375 47.515625 
L 5.515625 47.515625 
z
" id="BitstreamVeraSans-Roman-7a"/>
      <path d="M 32.171875 -5.078125 
Q 28.375 -14.84375 24.75 -17.8125 
Q 21.140625 -20.796875 15.09375 -20.796875 
L 7.90625 -20.796875 
L 7.90625 -13.28125 
L 13.1875 -13.28125 
Q 16.890625 -13.28125 18.9375 -11.515625 
Q 21 -9.765625 23.484375 -3.21875 
L 25.09375 0.875 
L 2.984375 54.6875 
L 12.5 54.6875 
L 29.59375 11.921875 
L 46.6875 54.6875 
L 56.203125 54.6875 
z
" id="BitstreamVeraSans-Roman-79"/>
      <path d="M 45.40625 46.390625 
L 45.40625 75.984375 
L 54.390625 75.984375 
L 54.390625 0 
L 45.40625 0 
L 45.40625 8.203125 
Q 42.578125 3.328125 38.25 0.953125 
Q 33.9375 -1.421875 27.875 -1.421875 
Q 17.96875 -1.421875 11.734375 6.484375 
Q 5.515625 14.40625 5.515625 27.296875 
Q 5.515625 40.1875 11.734375 48.09375 
Q 17.96875 56 27.875 56 
Q 33.9375 56 38.25 53.625 
Q 42.578125 51.265625 45.40625 46.390625 
M 14.796875 27.296875 
Q 14.796875 17.390625 18.875 11.75 
Q 22.953125 6.109375 30.078125 6.109375 
Q 37.203125 6.109375 41.296875 11.75 
Q 45.40625 17.390625 45.40625 27.296875 
Q 45.40625 37.203125 41.296875 42.84375 
Q 37.203125 48.484375 30.078125 48.484375 
Q 22.953125 48.484375 18.875 42.84375 
Q 14.796875 37.203125 14.796875 27.296875 
" id="BitstreamVeraSans-Roman-64"/>
      <path d="M 14.796875 27.296875 
Q 14.796875 17.390625 18.875 11.75 
Q 22.953125 6.109375 30.078125 6.109375 
Q 37.203125 6.109375 41.296875 11.75 
Q 45.40625 17.390625 45.40625 27.296875 
Q 45.40625 37.203125 41.296875 42.84375 
Q 37.203125 48.484375 30.078125 48.484375 
Q 22.953125 48.484375 18.875 42.84375 
Q 14.796875 37.203125 14.796875 27.296875 
M 45.40625 8.203125 
Q 42.578125 3.328125 38.25 0.953125 
Q 33.9375 -1.421875 27.875 -1.421875 
Q 17.96875 -1.421875 11.734375 6.484375 
Q 5.515625 14.40625 5.515625 27.296875 
Q 5.515625 40.1875 11.734375 48.09375 
Q 17.96875 56 27.875 56 
Q 33.9375 56 38.25 53.625 
Q 42.578125 51.265625 45.40625 46.390625 
L 45.40625 54.6875 
L 54.390625 54.6875 
L 54.390625 -20.796875 
L 45.40625 -20.796875 
z
" id="BitstreamVeraSans-Roman-71"/>
     </defs>
     <g transform="translate(19.3575 318.55)rotate(-90.0)scale(0.16 -0.16)">
      <use xlink:href="#BitstreamVeraSans-Roman-71"/>
      <use x="63.4765625" xlink:href="#BitstreamVeraSans-Roman-75"/>
      <use x="126.85546875" xlink:href="#BitstreamVeraSans-Roman-61"/>
      <use x="188.134765625" xlink:href="#BitstreamVeraSans-Roman-6c"/>
      <use x="215.91796875" xlink:href="#BitstreamVeraSans-Roman-69"/>
      <use x="243.701171875" xlink:href="#BitstreamVeraSans-Roman-74"/>
      <use x="282.91015625" xlink:href="#BitstreamVeraSans-Roman-79"/>
      <use x="342.08984375" xlink:href="#BitstreamVeraSans-Roman-20"/>
      <use x="373.876953125" xlink:href="#BitstreamVeraSans-Roman-69"/>
      <use x="401.66015625" xlink:href="#BitstreamVeraSans-Roman-6e"/>
      <use x="465.0390625" xlink:href="#BitstreamVeraSans-Roman-64"/>
      <use x="528.515625" xlink:href="#BitstreamVeraSans-Roman-69"/>
      <use x="556.298828125" xlink:href="#BitstreamVeraSans-Roman-63"/>
      <use x="611.279296875" xlink:href="#BitstreamVeraSans-Roman-61"/>
      <use x="672.55859375" xlink:href="#BitstreamVeraSans-Roman-74"/>
      <use x="711.767578125" xlink:href="#BitstreamVeraSans-Roman-6f"/>
      <use x="772.94921875" xlink:href="#BitstreamVeraSans-Roman-72"/>
      <use x="814.0625" xlink:href="#BitstreamVeraSans-Roman-20"/>
      <use x="845.849609375" xlink:href="#BitstreamVeraSans-Roman-28"/>
      <use x="884.86328125" xlink:href="#BitstreamVeraSans-Roman-74"/>
      <use x="924.072265625" xlink:href="#BitstreamVeraSans-Roman-6f"/>
      <use x="985.25390625" xlink:href="#BitstreamVeraSans-Roman-20"/>
      <use x="1017.04101562" xlink:href="#BitstreamVeraSans-Roman-62"/>
      <use x="1080.51757812" xlink:href="#BitstreamVeraSans-Roman-65"/>
      <use x="1142.04101562" xlink:href="#BitstreamVeraSans-Roman-20"/>
      <use x="1173.828125" xlink:href="#BitstreamVeraSans-Roman-6d"/>
      <use x="1271.24023438" xlink:href="#BitstreamVeraSans-Roman-69"/>
      <use x="1299.0234375" xlink:href="#BitstreamVeraSans-Roman-6e"/>
      <use x="1362.40234375" xlink:href="#BitstreamVeraSans-Roman-69"/>
      <use x="1390.18554688" xlink:href="#BitstreamVeraSans-Roman-6d"/>
      <use x="1487.59765625" xlink:href="#BitstreamVeraSans-Roman-69"/>
      <use x="1515.38085938" xlink:href="#BitstreamVeraSans-Roman-7a"/>
      <use x="1567.87109375" xlink:href="#BitstreamVeraSans-Roman-65"/>
      <use x="1629.39453125" xlink:href="#BitstreamVeraSans-Roman-64"/>
      <use x="1692.87109375" xlink:href="#BitstreamVeraSans-Roman-29"/>
     </g>
    </g>
   </g>
   <g id="text_3">
    <!-- fixed target -->
    <defs>
     <path d="M 45.40625 27.984375 
Q 45.40625 37.75 41.375 43.109375 
Q 37.359375 48.484375 30.078125 48.484375 
Q 22.859375 48.484375 18.828125 43.109375 
Q 14.796875 37.75 14.796875 27.984375 
Q 14.796875 18.265625 18.828125 12.890625 
Q 22.859375 7.515625 30.078125 7.515625 
Q 37.359375 7.515625 41.375 12.890625 
Q 45.40625 18.265625 45.40625 27.984375 
M 54.390625 6.78125 
Q 54.390625 -7.171875 48.1875 -13.984375 
Q 42 -20.796875 29.203125 -20.796875 
Q 24.46875 -20.796875 20.265625 -20.09375 
Q 16.0625 -19.390625 12.109375 -17.921875 
L 12.109375 -9.1875 
Q 16.0625 -11.328125 19.921875 -12.34375 
Q 23.78125 -13.375 27.78125 -13.375 
Q 36.625 -13.375 41.015625 -8.765625 
Q 45.40625 -4.15625 45.40625 5.171875 
L 45.40625 9.625 
Q 42.625 4.78125 38.28125 2.390625 
Q 33.9375 0 27.875 0 
Q 17.828125 0 11.671875 7.65625 
Q 5.515625 15.328125 5.515625 27.984375 
Q 5.515625 40.671875 11.671875 48.328125 
Q 17.828125 56 27.875 56 
Q 33.9375 56 38.28125 53.609375 
Q 42.625 51.21875 45.40625 46.390625 
L 45.40625 54.6875 
L 54.390625 54.6875 
z
" id="BitstreamVeraSans-Roman-67"/>
     <path d="M 54.890625 54.6875 
L 35.109375 28.078125 
L 55.90625 0 
L 45.3125 0 
L 29.390625 21.484375 
L 13.484375 0 
L 2.875 0 
L 24.125 28.609375 
L 4.6875 54.6875 
L 15.28125 54.6875 
L 29.78125 35.203125 
L 44.28125 54.6875 
z
" id="BitstreamVeraSans-Roman-78"/>
    </defs>
    <g style="fill:#ff0000;" transform="translate(36.3950303951 224.928)scale(0.16 -0.16)">
     <use xlink:href="#BitstreamVeraSans-Roman-66"/>
     <use x="35.205078125" xlink:href="#BitstreamVeraSans-Roman-69"/>
     <use x="62.98828125" xlink:href="#BitstreamVeraSans-Roman-78"/>
     <use x="122.12109375" xlink:href="#BitstreamVeraSans-Roman-65"/>
     <use x="183.64453125" xlink:href="#BitstreamVeraSans-Roman-64"/>
     <use x="247.12109375" xlink:href="#BitstreamVeraSans-Roman-20"/>
     <use x="278.908203125" xlink:href="#BitstreamVeraSans-Roman-74"/>
     <use x="318.1171875" xlink:href="#BitstreamVeraSans-Roman-61"/>
     <use x="379.396484375" xlink:href="#BitstreamVeraSans-Roman-72"/>
     <use x="420.494140625" xlink:href="#BitstreamVeraSans-Roman-67"/>
     <use x="483.970703125" xlink:href="#BitstreamVeraSans-Roman-65"/>
     <use x="545.494140625" xlink:href="#BitstreamVeraSans-Roman-74"/>
    </g>
   </g>
   <g id="text_4">
    <!-- fixed budget -->
    <g style="fill:#0000ff;" transform="translate(284.905113982 158.608)rotate(-90.0)scale(0.16 -0.16)">
     <use xlink:href="#BitstreamVeraSans-Roman-66"/>
     <use x="35.205078125" xlink:href="#BitstreamVeraSans-Roman-69"/>
     <use x="62.98828125" xlink:href="#BitstreamVeraSans-Roman-78"/>
     <use x="122.12109375" xlink:href="#BitstreamVeraSans-Roman-65"/>
     <use x="183.64453125" xlink:href="#BitstreamVeraSans-Roman-64"/>
     <use x="247.12109375" xlink:href="#BitstreamVeraSans-Roman-20"/>
     <use x="278.908203125" xlink:href="#BitstreamVeraSans-Roman-62"/>
     <use x="342.384765625" xlink:href="#BitstreamVeraSans-Roman-75"/>
     <use x="405.763671875" xlink:href="#BitstreamVeraSans-Roman-64"/>
     <use x="469.240234375" xlink:href="#BitstreamVeraSans-Roman-67"/>
     <use x="532.716796875" xlink:href="#BitstreamVeraSans-Roman-65"/>
     <use x="594.240234375" xlink:href="#BitstreamVeraSans-Roman-74"/>
    </g>
   </g>
  </g>
 </g>
 <defs>
  <clipPath id="p9ffe58be3e">
   <rect height="345.6" width="446.4" x="27.685" y="7.2"/>
  </clipPath>
 </defs>
</svg>
