<?xml version="1.0" encoding="utf-8" standalone="no"?>
<!DOCTYPE svg PUBLIC "-//W3C//DTD SVG 1.1//EN"
  "http://www.w3.org/Graphics/SVG/1.1/DTD/svg11.dtd">
<!-- Created with matplotlib (http://matplotlib.org/) -->
<svg height="384pt" version="1.1" viewBox="0 0 485 384" width="485pt" xmlns="http://www.w3.org/2000/svg" xmlns:xlink="http://www.w3.org/1999/xlink">
 <defs>
  <style type="text/css">
*{stroke-linecap:butt;stroke-linejoin:round;stroke-miterlimit:100000;}
  </style>
 </defs>
 <g id="figure_1">
  <g id="patch_1">
   <path d="M 0 384.485 
L 485.285 384.485 
L 485.285 0 
L 0 0 
z
" style="fill:#ffffff;"/>
  </g>
  <g id="axes_1">
   <g id="patch_2">
    <path d="M 31.685 352.8 
L 478.085 352.8 
L 478.085 7.2 
L 31.685 7.2 
z
" style="fill:#ffffff;"/>
   </g>
   <g id="line2d_1">
    <path clip-path="url(#p49f14b6b22)" d="M 31.641231 11.317228 
L 36.018131 12.747651 
L 40.39503 18.926572 
L 44.77193 24.544005 
L 49.14883 27.517556 
L 53.525729 34.929691 
L 57.902629 42.515298 
L 62.279529 43.922176 
L 66.656429 46.466934 
L 71.033328 47.860497 
L 75.410228 50.304028 
L 79.787128 52.428455 
L 84.164027 57.923017 
L 88.540927 62.452888 
L 92.917827 63.170844 
L 97.294726 64.857991 
L 101.671626 68.032202 
L 106.048526 73.980545 
L 110.425426 76.08969 
L 114.802325 77.429728 
L 119.179225 78.190051 
L 123.556125 81.561064 
L 127.933024 84.284282 
L 132.309924 89.858929 
L 136.686824 91.35709 
L 141.063723 94.048637 
L 145.440623 96.447166 
L 149.817523 100.512779 
L 154.194422 101.361438 
L 158.571322 106.530259 
L 162.948222 106.659007 
L 167.325122 106.775982 
L 171.702021 111.014265 
L 176.078921 113.813708 
L 180.455821 118.661533 
L 184.83272 124.82041 
L 189.20962 131.597789 
L 193.58652 138.89073 
L 197.963419 142.119778 
L 202.340319 144.844291 
L 206.717219 146.591309 
L 211.094119 150.78395 
L 215.471018 154.493587 
L 219.847918 158.445975 
L 224.224818 164.028991 
L 228.601717 165.370208 
L 232.978617 166.037107 
L 237.355517 173.513136 
L 241.732416 179.237293 
L 246.109316 182.775131 
L 250.486216 188.147233 
L 254.863116 188.536631 
L 259.240015 188.627182 
L 263.616915 189.796574 
L 267.993815 191.302964 
L 272.370714 194.692325 
L 276.747614 197.451326 
L 281.124514 201.467464 
L 285.501413 208.741998 
L 289.878313 216.312191 
L 294.255213 222.34195 
L 298.632112 225.353054 
L 303.009012 226.162632 
L 307.385912 229.112002 
L 311.762812 231.491071 
L 316.139711 235.427775 
L 320.516611 237.231452 
L 324.893511 242.498488 
L 329.27041 248.560758 
L 333.64731 248.566039 
L 338.02421 249.078377 
L 342.401109 254.124016 
L 346.778009 257.181962 
L 351.154909 259.96754 
L 355.531809 266.056177 
L 359.908708 272.104876 
L 364.285608 279.615328 
L 368.662508 280.823834 
L 373.039407 282.858732 
L 377.416307 286.846523 
L 381.793207 291.772392 
L 386.170106 293.165468 
L 390.547006 296.589305 
L 394.923906 301.785771 
L 399.300805 303.64765 
L 403.677705 308.756613 
L 408.054605 310.149796 
L 412.431505 312.376894 
L 416.808404 319.143165 
L 421.185304 325.480746 
L 425.562204 332.466096 
L 429.939103 333.616965 
L 434.316003 334.099834 
L 438.692903 333.845614 
L 443.069802 334.04007 
L 447.446702 334.152393 
L 451.823602 334.22236 
L 456.200502 334.276193 
L 460.577401 334.090668 
L 464.954301 334.062304 
" style="fill:none;stroke:#000000;stroke-linecap:square;stroke-width:1.5;"/>
   </g>
   <g id="line2d_2">
    <path clip-path="url(#p49f14b6b22)" d="M 31.641231 14.217806 
L 36.018131 17.897022 
L 40.39503 19.475967 
L 44.77193 20.360428 
L 49.14883 21.641287 
L 53.525729 23.45096 
L 57.902629 24.206338 
L 62.279529 24.67054 
L 66.656429 24.771171 
L 71.033328 25.670105 
L 75.410228 26.011617 
L 79.787128 26.947954 
L 84.164027 27.728593 
L 88.540927 28.64571 
L 92.917827 28.834025 
L 97.294726 29.018478 
L 101.671626 29.747316 
L 106.048526 30.284281 
L 110.425426 30.542481 
L 114.802325 31.05073 
L 119.179225 31.670655 
L 123.556125 31.766204 
L 127.933024 32.327308 
L 132.309924 32.656458 
L 136.686824 33.147907 
L 141.063723 33.429784 
L 145.440623 33.638978 
L 149.817523 33.954385 
L 154.194422 34.392071 
L 158.571322 34.791504 
L 162.948222 35.102094 
L 167.325122 35.532032 
L 171.702021 35.688128 
L 176.078921 35.909895 
L 180.455821 36.239758 
L 184.83272 36.551068 
L 189.20962 36.774044 
L 193.58652 36.778136 
L 197.963419 36.917089 
L 202.340319 37.05601 
L 206.717219 37.163233 
L 211.094119 37.342359 
L 215.471018 37.52065 
L 219.847918 37.702004 
L 224.224818 37.807279 
L 228.601717 38.088376 
L 232.978617 38.171031 
L 237.355517 38.194227 
L 241.732416 38.401638 
L 246.109316 38.471984 
L 250.486216 38.65591 
L 254.863116 38.745025 
L 259.240015 38.963426 
L 263.616915 39.124894 
L 267.993815 39.369368 
L 272.370714 39.558692 
L 276.747614 39.695985 
L 281.124514 39.869117 
L 285.501413 39.919589 
L 289.878313 40.015419 
L 294.255213 40.20257 
L 298.632112 40.405275 
L 303.009012 40.449009 
L 307.385912 40.663439 
L 311.762812 40.776022 
L 316.139711 40.980901 
L 320.516611 40.991118 
L 324.893511 41.097777 
L 329.27041 41.291206 
L 333.64731 41.343178 
L 338.02421 41.518785 
L 342.401109 41.627678 
L 346.778009 41.722501 
L 351.154909 41.795137 
L 355.531809 41.890172 
L 359.908708 42.062723 
L 364.285608 42.229057 
L 368.662508 42.310327 
L 373.039407 42.452575 
L 377.416307 42.594613 
L 381.793207 42.720672 
L 386.170106 42.829002 
L 390.547006 42.964721 
L 394.923906 42.996192 
L 399.300805 43.062593 
L 403.677705 43.118771 
L 408.054605 43.187797 
L 412.431505 43.194551 
L 416.808404 43.309823 
L 421.185304 43.350077 
L 425.562204 43.474266 
L 429.939103 43.559754 
L 434.316003 43.614008 
L 438.692903 43.695324 
L 443.069802 43.712377 
L 447.446702 43.80803 
L 451.823602 43.948765 
L 456.200502 43.980038 
L 460.577401 44.024948 
L 464.954301 44.156612 
L 469.331201 44.214815 
L 473.7081 44.260494 
L 478.085 44.263322 
L 482.4619 44.33614 
L 486.285 44.446514 
" style="fill:none;stroke:#000000;stroke-linecap:square;stroke-width:1.5;"/>
   </g>
   <g id="line2d_3">
    <path clip-path="url(#p49f14b6b22)" d="M 31.641231 8.115483 
L 36.018131 9.503492 
L 40.39503 10.986776 
L 44.77193 11.205181 
L 49.14883 14.165649 
L 53.525729 17.638235 
L 57.902629 21.296643 
L 62.279529 23.495678 
L 66.656429 27.745044 
L 71.033328 30.599324 
L 75.410228 35.594855 
L 79.787128 37.437511 
L 84.164027 38.261914 
L 88.540927 43.259523 
L 92.917827 45.710386 
L 97.294726 51.072492 
L 101.671626 55.0895 
L 106.048526 60.5548 
L 110.425426 62.228916 
L 114.802325 65.519016 
L 119.179225 70.904828 
L 123.556125 73.535519 
L 127.933024 79.10062 
L 132.309924 83.023371 
L 136.686824 84.173494 
L 141.063723 86.934391 
L 145.440623 87.292353 
L 149.817523 90.130643 
L 154.194422 91.756272 
L 158.571322 95.423993 
L 162.948222 100.847693 
L 167.325122 104.782117 
L 171.702021 107.656159 
L 176.078921 109.042647 
L 180.455821 114.385312 
L 184.83272 115.161391 
L 189.20962 119.024297 
L 193.58652 120.533463 
L 197.963419 124.167004 
L 202.340319 127.990909 
L 206.717219 130.064654 
L 211.094119 131.147901 
L 215.471018 135.938528 
L 219.847918 141.445912 
L 224.224818 142.894778 
L 228.601717 146.23539 
L 232.978617 147.344171 
L 237.355517 147.958498 
L 241.732416 152.763581 
L 246.109316 157.436381 
L 250.486216 161.068004 
L 254.863116 165.714479 
L 259.240015 169.537271 
L 263.616915 173.540165 
L 267.993815 178.416486 
L 272.370714 181.032429 
L 276.747614 183.125389 
L 281.124514 185.386314 
L 285.501413 189.046006 
L 289.878313 193.733095 
L 294.255213 195.628826 
L 298.632112 199.99867 
L 303.009012 201.848743 
L 307.385912 203.068207 
L 311.762812 204.923515 
L 316.139711 209.366047 
L 320.516611 212.72343 
L 324.893511 213.251352 
L 329.27041 216.943876 
L 333.64731 221.805043 
L 338.02421 222.610449 
L 342.401109 224.140555 
L 346.778009 224.491897 
L 351.154909 226.750531 
L 355.531809 230.36513 
L 359.908708 232.089309 
L 364.285608 237.342037 
L 368.662508 240.120265 
L 373.039407 245.464113 
L 377.416307 246.590139 
L 381.793207 248.823009 
L 386.170106 249.491523 
L 390.547006 251.2089 
L 394.923906 255.047755 
L 399.300805 259.895236 
L 403.677705 263.272551 
L 408.054605 263.657668 
L 412.431505 264.03799 
L 416.808404 264.456867 
L 421.185304 264.38125 
L 425.562204 264.309233 
L 429.939103 264.250792 
L 434.316003 264.236493 
L 438.692903 264.368174 
L 443.069802 264.327651 
" style="fill:none;stroke:#000000;stroke-linecap:square;stroke-width:1.5;"/>
   </g>
   <g id="line2d_4">
    <path clip-path="url(#p49f14b6b22)" d="M 31.641231 7.831556 
L 36.018131 9.803701 
L 40.39503 16.935895 
L 44.77193 22.551665 
L 49.14883 31.123404 
L 53.525729 35.622369 
L 57.902629 37.125657 
L 62.279529 39.130554 
L 66.656429 44.840564 
L 71.033328 50.457676 
L 75.410228 55.63266 
L 79.787128 58.068167 
L 84.164027 67.305616 
L 88.540927 67.531558 
L 92.917827 73.43273 
L 97.294726 73.645932 
L 101.671626 79.897505 
L 106.048526 80.849792 
L 110.425426 89.53973 
L 114.802325 92.309909 
L 119.179225 95.229772 
L 123.556125 95.368823 
L 127.933024 96.659628 
L 132.309924 98.699522 
L 136.686824 102.786801 
L 141.063723 107.942591 
L 145.440623 116.765407 
L 149.817523 121.683694 
L 154.194422 126.410622 
L 158.571322 131.768024 
L 162.948222 137.718663 
L 167.325122 143.047223 
L 171.702021 149.061426 
L 176.078921 153.68809 
L 180.455821 155.430718 
L 184.83272 163.70996 
L 189.20962 168.648159 
L 193.58652 174.753335 
L 197.963419 180.300494 
L 202.340319 187.374002 
L 206.717219 191.739184 
L 211.094119 195.352766 
L 215.471018 198.310456 
L 219.847918 200.044166 
L 224.224818 206.302757 
L 228.601717 214.863218 
L 232.978617 221.327106 
L 237.355517 221.64296 
L 241.732416 223.842224 
L 246.109316 230.526803 
L 250.486216 231.03454 
L 254.863116 236.465062 
L 259.240015 244.938546 
L 263.616915 245.737925 
L 267.993815 250.006691 
L 272.370714 253.405686 
L 276.747614 254.377511 
L 281.124514 254.859583 
L 285.501413 255.048458 
L 289.878313 255.10176 
L 294.255213 255.468701 
L 298.632112 255.71972 
L 303.009012 255.691192 
L 307.385912 255.693638 
L 311.762812 255.753417 
" style="fill:none;stroke:#000000;stroke-linecap:square;stroke-width:1.5;"/>
   </g>
   <g id="line2d_5">
    <path clip-path="url(#p49f14b6b22)" d="M 31.641231 7.461084 
L 36.018131 11.838042 
L 40.39503 12.863765 
L 44.77193 13.308434 
L 49.14883 14.058079 
L 53.525729 15.404936 
L 57.902629 20.109976 
L 62.279529 25.488593 
L 66.656429 32.832104 
L 71.033328 38.752349 
L 75.410228 48.693118 
L 79.787128 52.790462 
L 84.164027 63.354683 
L 88.540927 69.191321 
L 92.917827 71.355811 
L 97.294726 79.966179 
L 101.671626 91.40598 
L 106.048526 95.486831 
L 110.425426 108.672966 
L 114.802325 115.240549 
L 119.179225 122.564258 
L 123.556125 129.430382 
L 127.933024 138.786935 
L 132.309924 156.231446 
L 136.686824 166.938368 
L 141.063723 179.193233 
L 145.440623 222.618545 
L 149.817523 264.319783 
L 154.194422 327.089146 
L 157.605744 385.485 
" style="fill:none;stroke:#000000;stroke-linecap:square;stroke-width:1.5;"/>
   </g>
   <g id="line2d_6">
    <defs>
     <path d="M 0 -10 
L -2.24514 -3.09017 
L -9.510565 -3.09017 
L -3.632713 1.18034 
L -5.877853 8.09017 
L -0 3.81966 
L 5.877853 8.09017 
L 3.632713 1.18034 
L 9.510565 -3.09017 
L 2.24514 -3.09017 
z
" id="m32bc80c74a" style="stroke:#000000;stroke-linejoin:bevel;stroke-width:0.5;"/>
    </defs>
    <g clip-path="url(#p49f14b6b22)">
     <use style="fill:#0000ff;stroke:#000000;stroke-linejoin:bevel;stroke-width:0.5;" x="294.255212766" xlink:href="#m32bc80c74a" y="222.341949717"/>
    </g>
   </g>
   <g id="line2d_7">
    <defs>
     <path d="M 0 -10 
L -2.24514 -3.09017 
L -9.510565 -3.09017 
L -3.632713 1.18034 
L -5.877853 8.09017 
L -0 3.81966 
L 5.877853 8.09017 
L 3.632713 1.18034 
L 9.510565 -3.09017 
L 2.24514 -3.09017 
z
" id="m7eec8738bb" style="stroke:#000000;stroke-linejoin:bevel;stroke-width:0.5;"/>
    </defs>
    <g clip-path="url(#p49f14b6b22)">
     <use style="fill:#ff0000;stroke:#000000;stroke-linejoin:bevel;stroke-width:0.5;" x="313.951261398" xlink:href="#m7eec8738bb" y="231.84"/>
    </g>
   </g>
   <g id="line2d_8">
    <g clip-path="url(#p49f14b6b22)">
     <use style="fill:#0000ff;stroke:#000000;stroke-linejoin:bevel;stroke-width:0.5;" x="294.255212766" xlink:href="#m32bc80c74a" y="40.2025698673"/>
    </g>
   </g>
   <g id="line2d_9">
    <g clip-path="url(#p49f14b6b22)">
     <use style="fill:#0000ff;stroke:#000000;stroke-linejoin:bevel;stroke-width:0.5;" x="294.255212766" xlink:href="#m32bc80c74a" y="195.628826147"/>
    </g>
   </g>
   <g id="line2d_10">
    <g clip-path="url(#p49f14b6b22)">
     <use style="fill:#ff0000;stroke:#000000;stroke-linejoin:bevel;stroke-width:0.5;" x="357.720258359" xlink:href="#m7eec8738bb" y="231.84"/>
    </g>
   </g>
   <g id="line2d_11">
    <g clip-path="url(#p49f14b6b22)">
     <use style="fill:#0000ff;stroke:#000000;stroke-linejoin:bevel;stroke-width:0.5;" x="294.255212766" xlink:href="#m32bc80c74a" y="255.468700659"/>
    </g>
   </g>
   <g id="line2d_12">
    <g clip-path="url(#p49f14b6b22)">
     <use style="fill:#ff0000;stroke:#000000;stroke-linejoin:bevel;stroke-width:0.5;" x="252.674665653" xlink:href="#m7eec8738bb" y="231.84"/>
    </g>
   </g>
   <g id="line2d_13">
    <g clip-path="url(#p49f14b6b22)">
     <use style="fill:#0000ff;stroke:#000000;stroke-linejoin:bevel;stroke-width:0.5;" x="294.255212766" xlink:href="#m32bc80c74a" y="82313.3325561"/>
    </g>
   </g>
   <g id="line2d_14">
    <g clip-path="url(#p49f14b6b22)">
     <use style="fill:#ff0000;stroke:#000000;stroke-linejoin:bevel;stroke-width:0.5;" x="147.629072948" xlink:href="#m7eec8738bb" y="231.84"/>
    </g>
   </g>
   <g id="line2d_15">
    <path clip-path="url(#p49f14b6b22)" d="M 294.255213 48384007.2 
M 294.255213 385.485 
L 294.255213 7.2 
" style="fill:none;stroke:#0000ff;stroke-dasharray:6.000000,6.000000;stroke-dashoffset:0.0;stroke-width:1.5;"/>
   </g>
   <g id="line2d_16">
    <path clip-path="url(#p49f14b6b22)" d="M 31.641231 231.84 
L 486.285 231.84 
" style="fill:none;stroke:#ff0000;stroke-dasharray:6.000000,6.000000;stroke-dashoffset:0.0;stroke-width:1.5;"/>
   </g>
   <g id="patch_3">
    <path d="M 31.685 7.2 
L 478.085 7.2 
" style="fill:none;stroke:#000000;stroke-linecap:square;stroke-linejoin:miter;"/>
   </g>
   <g id="patch_4">
    <path d="M 478.085 352.8 
L 478.085 7.2 
" style="fill:none;stroke:#000000;stroke-linecap:square;stroke-linejoin:miter;"/>
   </g>
   <g id="patch_5">
    <path d="M 31.685 352.8 
L 478.085 352.8 
" style="fill:none;stroke:#000000;stroke-linecap:square;stroke-linejoin:miter;"/>
   </g>
   <g id="patch_6">
    <path d="M 31.685 352.8 
L 31.685 7.2 
" style="fill:none;stroke:#000000;stroke-linecap:square;stroke-linejoin:miter;"/>
   </g>
   <g id="matplotlib.axis_1">
    <g id="xtick_1"/>
    <g id="xtick_2">
     <g id="line2d_17">
      <path clip-path="url(#p49f14b6b22)" d="M 119.179225 352.8 
L 119.179225 7.2 
" style="fill:none;stroke:#000000;stroke-dasharray:1.000000,3.000000;stroke-dashoffset:0.0;stroke-width:0.5;"/>
     </g>
     <g id="line2d_18">
      <defs>
       <path d="M 0 0 
L 0 -4 
" id="m164cac3103" style="stroke:#000000;stroke-width:0.5;"/>
      </defs>
      <g>
       <use style="stroke:#000000;stroke-width:0.5;" x="119.179224924" xlink:href="#m164cac3103" y="352.8"/>
      </g>
     </g>
     <g id="line2d_19">
      <defs>
       <path d="M 0 0 
L 0 4 
" id="m3e4564bbd5" style="stroke:#000000;stroke-width:0.5;"/>
      </defs>
      <g>
       <use style="stroke:#000000;stroke-width:0.5;" x="119.179224924" xlink:href="#m3e4564bbd5" y="7.2"/>
      </g>
     </g>
    </g>
    <g id="xtick_3">
     <g id="line2d_20">
      <path clip-path="url(#p49f14b6b22)" d="M 206.717219 352.8 
L 206.717219 7.2 
" style="fill:none;stroke:#000000;stroke-dasharray:1.000000,3.000000;stroke-dashoffset:0.0;stroke-width:0.5;"/>
     </g>
     <g id="line2d_21">
      <g>
       <use style="stroke:#000000;stroke-width:0.5;" x="206.717218845" xlink:href="#m164cac3103" y="352.8"/>
      </g>
     </g>
     <g id="line2d_22">
      <g>
       <use style="stroke:#000000;stroke-width:0.5;" x="206.717218845" xlink:href="#m3e4564bbd5" y="7.2"/>
      </g>
     </g>
    </g>
    <g id="xtick_4">
     <g id="line2d_23">
      <path clip-path="url(#p49f14b6b22)" d="M 294.255213 352.8 
L 294.255213 7.2 
" style="fill:none;stroke:#000000;stroke-dasharray:1.000000,3.000000;stroke-dashoffset:0.0;stroke-width:0.5;"/>
     </g>
     <g id="line2d_24">
      <g>
       <use style="stroke:#000000;stroke-width:0.5;" x="294.255212766" xlink:href="#m164cac3103" y="352.8"/>
      </g>
     </g>
     <g id="line2d_25">
      <g>
       <use style="stroke:#000000;stroke-width:0.5;" x="294.255212766" xlink:href="#m3e4564bbd5" y="7.2"/>
      </g>
     </g>
    </g>
    <g id="xtick_5">
     <g id="line2d_26">
      <path clip-path="url(#p49f14b6b22)" d="M 381.793207 352.8 
L 381.793207 7.2 
" style="fill:none;stroke:#000000;stroke-dasharray:1.000000,3.000000;stroke-dashoffset:0.0;stroke-width:0.5;"/>
     </g>
     <g id="line2d_27">
      <g>
       <use style="stroke:#000000;stroke-width:0.5;" x="381.793206687" xlink:href="#m164cac3103" y="352.8"/>
      </g>
     </g>
     <g id="line2d_28">
      <g>
       <use style="stroke:#000000;stroke-width:0.5;" x="381.793206687" xlink:href="#m3e4564bbd5" y="7.2"/>
      </g>
     </g>
    </g>
    <g id="xtick_6">
     <g id="line2d_29">
      <path clip-path="url(#p49f14b6b22)" d="M 469.331201 352.8 
L 469.331201 7.2 
" style="fill:none;stroke:#000000;stroke-dasharray:1.000000,3.000000;stroke-dashoffset:0.0;stroke-width:0.5;"/>
     </g>
     <g id="line2d_30">
      <g>
       <use style="stroke:#000000;stroke-width:0.5;" x="469.331200608" xlink:href="#m164cac3103" y="352.8"/>
      </g>
     </g>
     <g id="line2d_31">
      <g>
       <use style="stroke:#000000;stroke-width:0.5;" x="469.331200608" xlink:href="#m3e4564bbd5" y="7.2"/>
      </g>
     </g>
    </g>
    <g id="text_1">
     <!-- number of function evaluations -->
     <defs>
      <path id="BitstreamVeraSans-Roman-20"/>
      <path d="M 37.109375 75.984375 
L 37.109375 68.5 
L 28.515625 68.5 
Q 23.6875 68.5 21.796875 66.546875 
Q 19.921875 64.59375 19.921875 59.515625 
L 19.921875 54.6875 
L 34.71875 54.6875 
L 34.71875 47.703125 
L 19.921875 47.703125 
L 19.921875 0 
L 10.890625 0 
L 10.890625 47.703125 
L 2.296875 47.703125 
L 2.296875 54.6875 
L 10.890625 54.6875 
L 10.890625 58.5 
Q 10.890625 67.625 15.140625 71.796875 
Q 19.390625 75.984375 28.609375 75.984375 
z
" id="BitstreamVeraSans-Roman-66"/>
      <path d="M 34.28125 27.484375 
Q 23.390625 27.484375 19.1875 25 
Q 14.984375 22.515625 14.984375 16.5 
Q 14.984375 11.71875 18.140625 8.90625 
Q 21.296875 6.109375 26.703125 6.109375 
Q 34.1875 6.109375 38.703125 11.40625 
Q 43.21875 16.703125 43.21875 25.484375 
L 43.21875 27.484375 
z
M 52.203125 31.203125 
L 52.203125 0 
L 43.21875 0 
L 43.21875 8.296875 
Q 40.140625 3.328125 35.546875 0.953125 
Q 30.953125 -1.421875 24.3125 -1.421875 
Q 15.921875 -1.421875 10.953125 3.296875 
Q 6 8.015625 6 15.921875 
Q 6 25.140625 12.171875 29.828125 
Q 18.359375 34.515625 30.609375 34.515625 
L 43.21875 34.515625 
L 43.21875 35.40625 
Q 43.21875 41.609375 39.140625 45 
Q 35.0625 48.390625 27.6875 48.390625 
Q 23 48.390625 18.546875 47.265625 
Q 14.109375 46.140625 10.015625 43.890625 
L 10.015625 52.203125 
Q 14.9375 54.109375 19.578125 55.046875 
Q 24.21875 56 28.609375 56 
Q 40.484375 56 46.34375 49.84375 
Q 52.203125 43.703125 52.203125 31.203125 
" id="BitstreamVeraSans-Roman-61"/>
      <path d="M 54.890625 33.015625 
L 54.890625 0 
L 45.90625 0 
L 45.90625 32.71875 
Q 45.90625 40.484375 42.875 44.328125 
Q 39.84375 48.1875 33.796875 48.1875 
Q 26.515625 48.1875 22.3125 43.546875 
Q 18.109375 38.921875 18.109375 30.90625 
L 18.109375 0 
L 9.078125 0 
L 9.078125 54.6875 
L 18.109375 54.6875 
L 18.109375 46.1875 
Q 21.34375 51.125 25.703125 53.5625 
Q 30.078125 56 35.796875 56 
Q 45.21875 56 50.046875 50.171875 
Q 54.890625 44.34375 54.890625 33.015625 
" id="BitstreamVeraSans-Roman-6e"/>
      <path d="M 52 44.1875 
Q 55.375 50.25 60.0625 53.125 
Q 64.75 56 71.09375 56 
Q 79.640625 56 84.28125 50.015625 
Q 88.921875 44.046875 88.921875 33.015625 
L 88.921875 0 
L 79.890625 0 
L 79.890625 32.71875 
Q 79.890625 40.578125 77.09375 44.375 
Q 74.3125 48.1875 68.609375 48.1875 
Q 61.625 48.1875 57.5625 43.546875 
Q 53.515625 38.921875 53.515625 30.90625 
L 53.515625 0 
L 44.484375 0 
L 44.484375 32.71875 
Q 44.484375 40.625 41.703125 44.40625 
Q 38.921875 48.1875 33.109375 48.1875 
Q 26.21875 48.1875 22.15625 43.53125 
Q 18.109375 38.875 18.109375 30.90625 
L 18.109375 0 
L 9.078125 0 
L 9.078125 54.6875 
L 18.109375 54.6875 
L 18.109375 46.1875 
Q 21.1875 51.21875 25.484375 53.609375 
Q 29.78125 56 35.6875 56 
Q 41.65625 56 45.828125 52.96875 
Q 50 49.953125 52 44.1875 
" id="BitstreamVeraSans-Roman-6d"/>
      <path d="M 30.609375 48.390625 
Q 23.390625 48.390625 19.1875 42.75 
Q 14.984375 37.109375 14.984375 27.296875 
Q 14.984375 17.484375 19.15625 11.84375 
Q 23.34375 6.203125 30.609375 6.203125 
Q 37.796875 6.203125 41.984375 11.859375 
Q 46.1875 17.53125 46.1875 27.296875 
Q 46.1875 37.015625 41.984375 42.703125 
Q 37.796875 48.390625 30.609375 48.390625 
M 30.609375 56 
Q 42.328125 56 49.015625 48.375 
Q 55.71875 40.765625 55.71875 27.296875 
Q 55.71875 13.875 49.015625 6.21875 
Q 42.328125 -1.421875 30.609375 -1.421875 
Q 18.84375 -1.421875 12.171875 6.21875 
Q 5.515625 13.875 5.515625 27.296875 
Q 5.515625 40.765625 12.171875 48.375 
Q 18.84375 56 30.609375 56 
" id="BitstreamVeraSans-Roman-6f"/>
      <path d="M 9.421875 75.984375 
L 18.40625 75.984375 
L 18.40625 0 
L 9.421875 0 
z
" id="BitstreamVeraSans-Roman-6c"/>
      <path d="M 2.984375 54.6875 
L 12.5 54.6875 
L 29.59375 8.796875 
L 46.6875 54.6875 
L 56.203125 54.6875 
L 35.6875 0 
L 23.484375 0 
z
" id="BitstreamVeraSans-Roman-76"/>
      <path d="M 9.421875 54.6875 
L 18.40625 54.6875 
L 18.40625 0 
L 9.421875 0 
z
M 9.421875 75.984375 
L 18.40625 75.984375 
L 18.40625 64.59375 
L 9.421875 64.59375 
z
" id="BitstreamVeraSans-Roman-69"/>
      <path d="M 56.203125 29.59375 
L 56.203125 25.203125 
L 14.890625 25.203125 
Q 15.484375 15.921875 20.484375 11.0625 
Q 25.484375 6.203125 34.421875 6.203125 
Q 39.59375 6.203125 44.453125 7.46875 
Q 49.3125 8.734375 54.109375 11.28125 
L 54.109375 2.78125 
Q 49.265625 0.734375 44.1875 -0.34375 
Q 39.109375 -1.421875 33.890625 -1.421875 
Q 20.796875 -1.421875 13.15625 6.1875 
Q 5.515625 13.8125 5.515625 26.8125 
Q 5.515625 40.234375 12.765625 48.109375 
Q 20.015625 56 32.328125 56 
Q 43.359375 56 49.78125 48.890625 
Q 56.203125 41.796875 56.203125 29.59375 
M 47.21875 32.234375 
Q 47.125 39.59375 43.09375 43.984375 
Q 39.0625 48.390625 32.421875 48.390625 
Q 24.90625 48.390625 20.390625 44.140625 
Q 15.875 39.890625 15.1875 32.171875 
z
" id="BitstreamVeraSans-Roman-65"/>
      <path d="M 18.3125 70.21875 
L 18.3125 54.6875 
L 36.8125 54.6875 
L 36.8125 47.703125 
L 18.3125 47.703125 
L 18.3125 18.015625 
Q 18.3125 11.328125 20.140625 9.421875 
Q 21.96875 7.515625 27.59375 7.515625 
L 36.8125 7.515625 
L 36.8125 0 
L 27.59375 0 
Q 17.1875 0 13.234375 3.875 
Q 9.28125 7.765625 9.28125 18.015625 
L 9.28125 47.703125 
L 2.6875 47.703125 
L 2.6875 54.6875 
L 9.28125 54.6875 
L 9.28125 70.21875 
z
" id="BitstreamVeraSans-Roman-74"/>
      <path d="M 8.5 21.578125 
L 8.5 54.6875 
L 17.484375 54.6875 
L 17.484375 21.921875 
Q 17.484375 14.15625 20.5 10.265625 
Q 23.53125 6.390625 29.59375 6.390625 
Q 36.859375 6.390625 41.078125 11.03125 
Q 45.3125 15.671875 45.3125 23.6875 
L 45.3125 54.6875 
L 54.296875 54.6875 
L 54.296875 0 
L 45.3125 0 
L 45.3125 8.40625 
Q 42.046875 3.421875 37.71875 1 
Q 33.40625 -1.421875 27.6875 -1.421875 
Q 18.265625 -1.421875 13.375 4.4375 
Q 8.5 10.296875 8.5 21.578125 
" id="BitstreamVeraSans-Roman-75"/>
      <path d="M 41.109375 46.296875 
Q 39.59375 47.171875 37.8125 47.578125 
Q 36.03125 48 33.890625 48 
Q 26.265625 48 22.1875 43.046875 
Q 18.109375 38.09375 18.109375 28.8125 
L 18.109375 0 
L 9.078125 0 
L 9.078125 54.6875 
L 18.109375 54.6875 
L 18.109375 46.1875 
Q 20.953125 51.171875 25.484375 53.578125 
Q 30.03125 56 36.53125 56 
Q 37.453125 56 38.578125 55.875 
Q 39.703125 55.765625 41.0625 55.515625 
z
" id="BitstreamVeraSans-Roman-72"/>
      <path d="M 44.28125 53.078125 
L 44.28125 44.578125 
Q 40.484375 46.53125 36.375 47.5 
Q 32.28125 48.484375 27.875 48.484375 
Q 21.1875 48.484375 17.84375 46.4375 
Q 14.5 44.390625 14.5 40.28125 
Q 14.5 37.15625 16.890625 35.375 
Q 19.28125 33.59375 26.515625 31.984375 
L 29.59375 31.296875 
Q 39.15625 29.25 43.1875 25.515625 
Q 47.21875 21.78125 47.21875 15.09375 
Q 47.21875 7.46875 41.1875 3.015625 
Q 35.15625 -1.421875 24.609375 -1.421875 
Q 20.21875 -1.421875 15.453125 -0.5625 
Q 10.6875 0.296875 5.421875 2 
L 5.421875 11.28125 
Q 10.40625 8.6875 15.234375 7.390625 
Q 20.0625 6.109375 24.8125 6.109375 
Q 31.15625 6.109375 34.5625 8.28125 
Q 37.984375 10.453125 37.984375 14.40625 
Q 37.984375 18.0625 35.515625 20.015625 
Q 33.0625 21.96875 24.703125 23.78125 
L 21.578125 24.515625 
Q 13.234375 26.265625 9.515625 29.90625 
Q 5.8125 33.546875 5.8125 39.890625 
Q 5.8125 47.609375 11.28125 51.796875 
Q 16.75 56 26.8125 56 
Q 31.78125 56 36.171875 55.265625 
Q 40.578125 54.546875 44.28125 53.078125 
" id="BitstreamVeraSans-Roman-73"/>
      <path d="M 48.78125 52.59375 
L 48.78125 44.1875 
Q 44.96875 46.296875 41.140625 47.34375 
Q 37.3125 48.390625 33.40625 48.390625 
Q 24.65625 48.390625 19.8125 42.84375 
Q 14.984375 37.3125 14.984375 27.296875 
Q 14.984375 17.28125 19.8125 11.734375 
Q 24.65625 6.203125 33.40625 6.203125 
Q 37.3125 6.203125 41.140625 7.25 
Q 44.96875 8.296875 48.78125 10.40625 
L 48.78125 2.09375 
Q 45.015625 0.34375 40.984375 -0.53125 
Q 36.96875 -1.421875 32.421875 -1.421875 
Q 20.0625 -1.421875 12.78125 6.34375 
Q 5.515625 14.109375 5.515625 27.296875 
Q 5.515625 40.671875 12.859375 48.328125 
Q 20.21875 56 33.015625 56 
Q 37.15625 56 41.109375 55.140625 
Q 45.0625 54.296875 48.78125 52.59375 
" id="BitstreamVeraSans-Roman-63"/>
      <path d="M 48.6875 27.296875 
Q 48.6875 37.203125 44.609375 42.84375 
Q 40.53125 48.484375 33.40625 48.484375 
Q 26.265625 48.484375 22.1875 42.84375 
Q 18.109375 37.203125 18.109375 27.296875 
Q 18.109375 17.390625 22.1875 11.75 
Q 26.265625 6.109375 33.40625 6.109375 
Q 40.53125 6.109375 44.609375 11.75 
Q 48.6875 17.390625 48.6875 27.296875 
M 18.109375 46.390625 
Q 20.953125 51.265625 25.265625 53.625 
Q 29.59375 56 35.59375 56 
Q 45.5625 56 51.78125 48.09375 
Q 58.015625 40.1875 58.015625 27.296875 
Q 58.015625 14.40625 51.78125 6.484375 
Q 45.5625 -1.421875 35.59375 -1.421875 
Q 29.59375 -1.421875 25.265625 0.953125 
Q 20.953125 3.328125 18.109375 8.203125 
L 18.109375 0 
L 9.078125 0 
L 9.078125 75.984375 
L 18.109375 75.984375 
z
" id="BitstreamVeraSans-Roman-62"/>
     </defs>
     <g transform="translate(129.39875 373.9575)scale(0.16 -0.16)">
      <use xlink:href="#BitstreamVeraSans-Roman-6e"/>
      <use x="63.37890625" xlink:href="#BitstreamVeraSans-Roman-75"/>
      <use x="126.7578125" xlink:href="#BitstreamVeraSans-Roman-6d"/>
      <use x="224.169921875" xlink:href="#BitstreamVeraSans-Roman-62"/>
      <use x="287.646484375" xlink:href="#BitstreamVeraSans-Roman-65"/>
      <use x="349.169921875" xlink:href="#BitstreamVeraSans-Roman-72"/>
      <use x="390.283203125" xlink:href="#BitstreamVeraSans-Roman-20"/>
      <use x="422.0703125" xlink:href="#BitstreamVeraSans-Roman-6f"/>
      <use x="483.251953125" xlink:href="#BitstreamVeraSans-Roman-66"/>
      <use x="518.45703125" xlink:href="#BitstreamVeraSans-Roman-20"/>
      <use x="550.244140625" xlink:href="#BitstreamVeraSans-Roman-66"/>
      <use x="585.44921875" xlink:href="#BitstreamVeraSans-Roman-75"/>
      <use x="648.828125" xlink:href="#BitstreamVeraSans-Roman-6e"/>
      <use x="712.20703125" xlink:href="#BitstreamVeraSans-Roman-63"/>
      <use x="767.1875" xlink:href="#BitstreamVeraSans-Roman-74"/>
      <use x="806.396484375" xlink:href="#BitstreamVeraSans-Roman-69"/>
      <use x="834.1796875" xlink:href="#BitstreamVeraSans-Roman-6f"/>
      <use x="895.361328125" xlink:href="#BitstreamVeraSans-Roman-6e"/>
      <use x="958.740234375" xlink:href="#BitstreamVeraSans-Roman-20"/>
      <use x="990.52734375" xlink:href="#BitstreamVeraSans-Roman-65"/>
      <use x="1052.05078125" xlink:href="#BitstreamVeraSans-Roman-76"/>
      <use x="1111.23046875" xlink:href="#BitstreamVeraSans-Roman-61"/>
      <use x="1172.50976562" xlink:href="#BitstreamVeraSans-Roman-6c"/>
      <use x="1200.29296875" xlink:href="#BitstreamVeraSans-Roman-75"/>
      <use x="1263.671875" xlink:href="#BitstreamVeraSans-Roman-61"/>
      <use x="1324.95117188" xlink:href="#BitstreamVeraSans-Roman-74"/>
      <use x="1364.16015625" xlink:href="#BitstreamVeraSans-Roman-69"/>
      <use x="1391.94335938" xlink:href="#BitstreamVeraSans-Roman-6f"/>
      <use x="1453.125" xlink:href="#BitstreamVeraSans-Roman-6e"/>
      <use x="1516.50390625" xlink:href="#BitstreamVeraSans-Roman-73"/>
     </g>
    </g>
   </g>
   <g id="matplotlib.axis_2">
    <g id="ytick_1">
     <g id="line2d_32">
      <path clip-path="url(#p49f14b6b22)" d="M 31.685 352.8 
L 478.085 352.8 
" style="fill:none;stroke:#000000;stroke-dasharray:1.000000,3.000000;stroke-dashoffset:0.0;stroke-width:0.5;"/>
     </g>
     <g id="line2d_33">
      <defs>
       <path d="M 0 0 
L 4 0 
" id="m090361198d" style="stroke:#000000;stroke-width:0.5;"/>
      </defs>
      <g>
       <use style="stroke:#000000;stroke-width:0.5;" x="31.685" xlink:href="#m090361198d" y="352.8"/>
      </g>
     </g>
     <g id="line2d_34">
      <defs>
       <path d="M 0 0 
L -4 0 
" id="m5de3566b61" style="stroke:#000000;stroke-width:0.5;"/>
      </defs>
      <g>
       <use style="stroke:#000000;stroke-width:0.5;" x="478.085" xlink:href="#m5de3566b61" y="352.8"/>
      </g>
     </g>
    </g>
    <g id="ytick_2">
     <g id="line2d_35">
      <path clip-path="url(#p49f14b6b22)" d="M 31.685 283.68 
L 478.085 283.68 
" style="fill:none;stroke:#000000;stroke-dasharray:1.000000,3.000000;stroke-dashoffset:0.0;stroke-width:0.5;"/>
     </g>
     <g id="line2d_36">
      <g>
       <use style="stroke:#000000;stroke-width:0.5;" x="31.685" xlink:href="#m090361198d" y="283.68"/>
      </g>
     </g>
     <g id="line2d_37">
      <g>
       <use style="stroke:#000000;stroke-width:0.5;" x="478.085" xlink:href="#m5de3566b61" y="283.68"/>
      </g>
     </g>
    </g>
    <g id="ytick_3">
     <g id="line2d_38">
      <path clip-path="url(#p49f14b6b22)" d="M 31.685 214.56 
L 478.085 214.56 
" style="fill:none;stroke:#000000;stroke-dasharray:1.000000,3.000000;stroke-dashoffset:0.0;stroke-width:0.5;"/>
     </g>
     <g id="line2d_39">
      <g>
       <use style="stroke:#000000;stroke-width:0.5;" x="31.685" xlink:href="#m090361198d" y="214.56"/>
      </g>
     </g>
     <g id="line2d_40">
      <g>
       <use style="stroke:#000000;stroke-width:0.5;" x="478.085" xlink:href="#m5de3566b61" y="214.56"/>
      </g>
     </g>
    </g>
    <g id="ytick_4">
     <g id="line2d_41">
      <path clip-path="url(#p49f14b6b22)" d="M 31.685 145.44 
L 478.085 145.44 
" style="fill:none;stroke:#000000;stroke-dasharray:1.000000,3.000000;stroke-dashoffset:0.0;stroke-width:0.5;"/>
     </g>
     <g id="line2d_42">
      <g>
       <use style="stroke:#000000;stroke-width:0.5;" x="31.685" xlink:href="#m090361198d" y="145.44"/>
      </g>
     </g>
     <g id="line2d_43">
      <g>
       <use style="stroke:#000000;stroke-width:0.5;" x="478.085" xlink:href="#m5de3566b61" y="145.44"/>
      </g>
     </g>
    </g>
    <g id="ytick_5">
     <g id="line2d_44">
      <path clip-path="url(#p49f14b6b22)" d="M 31.685 76.32 
L 478.085 76.32 
" style="fill:none;stroke:#000000;stroke-dasharray:1.000000,3.000000;stroke-dashoffset:0.0;stroke-width:0.5;"/>
     </g>
     <g id="line2d_45">
      <g>
       <use style="stroke:#000000;stroke-width:0.5;" x="31.685" xlink:href="#m090361198d" y="76.32"/>
      </g>
     </g>
     <g id="line2d_46">
      <g>
       <use style="stroke:#000000;stroke-width:0.5;" x="478.085" xlink:href="#m5de3566b61" y="76.32"/>
      </g>
     </g>
    </g>
    <g id="ytick_6">
     <g id="line2d_47">
      <path clip-path="url(#p49f14b6b22)" d="M 31.685 7.2 
L 478.085 7.2 
" style="fill:none;stroke:#000000;stroke-dasharray:1.000000,3.000000;stroke-dashoffset:0.0;stroke-width:0.5;"/>
     </g>
     <g id="line2d_48">
      <g>
       <use style="stroke:#000000;stroke-width:0.5;" x="31.685" xlink:href="#m090361198d" y="7.2"/>
      </g>
     </g>
     <g id="line2d_49">
      <g>
       <use style="stroke:#000000;stroke-width:0.5;" x="478.085" xlink:href="#m5de3566b61" y="7.2"/>
      </g>
     </g>
    </g>
    <g id="text_2">
     <!-- quality indicator (to be minimized) -->
     <defs>
      <path d="M 8.015625 75.875 
L 15.828125 75.875 
Q 23.140625 64.359375 26.78125 53.3125 
Q 30.421875 42.28125 30.421875 31.390625 
Q 30.421875 20.453125 26.78125 9.375 
Q 23.140625 -1.703125 15.828125 -13.1875 
L 8.015625 -13.1875 
Q 14.5 -2 17.703125 9.0625 
Q 20.90625 20.125 20.90625 31.390625 
Q 20.90625 42.671875 17.703125 53.65625 
Q 14.5 64.65625 8.015625 75.875 
" id="BitstreamVeraSans-Roman-29"/>
      <path d="M 31 75.875 
Q 24.46875 64.65625 21.28125 53.65625 
Q 18.109375 42.671875 18.109375 31.390625 
Q 18.109375 20.125 21.3125 9.0625 
Q 24.515625 -2 31 -13.1875 
L 23.1875 -13.1875 
Q 15.875 -1.703125 12.234375 9.375 
Q 8.59375 20.453125 8.59375 31.390625 
Q 8.59375 42.28125 12.203125 53.3125 
Q 15.828125 64.359375 23.1875 75.875 
z
" id="BitstreamVeraSans-Roman-28"/>
      <path d="M 5.515625 54.6875 
L 48.1875 54.6875 
L 48.1875 46.484375 
L 14.40625 7.171875 
L 48.1875 7.171875 
L 48.1875 0 
L 4.296875 0 
L 4.296875 8.203125 
L 38.09375 47.515625 
L 5.515625 47.515625 
z
" id="BitstreamVeraSans-Roman-7a"/>
      <path d="M 32.171875 -5.078125 
Q 28.375 -14.84375 24.75 -17.8125 
Q 21.140625 -20.796875 15.09375 -20.796875 
L 7.90625 -20.796875 
L 7.90625 -13.28125 
L 13.1875 -13.28125 
Q 16.890625 -13.28125 18.9375 -11.515625 
Q 21 -9.765625 23.484375 -3.21875 
L 25.09375 0.875 
L 2.984375 54.6875 
L 12.5 54.6875 
L 29.59375 11.921875 
L 46.6875 54.6875 
L 56.203125 54.6875 
z
" id="BitstreamVeraSans-Roman-79"/>
      <path d="M 45.40625 46.390625 
L 45.40625 75.984375 
L 54.390625 75.984375 
L 54.390625 0 
L 45.40625 0 
L 45.40625 8.203125 
Q 42.578125 3.328125 38.25 0.953125 
Q 33.9375 -1.421875 27.875 -1.421875 
Q 17.96875 -1.421875 11.734375 6.484375 
Q 5.515625 14.40625 5.515625 27.296875 
Q 5.515625 40.1875 11.734375 48.09375 
Q 17.96875 56 27.875 56 
Q 33.9375 56 38.25 53.625 
Q 42.578125 51.265625 45.40625 46.390625 
M 14.796875 27.296875 
Q 14.796875 17.390625 18.875 11.75 
Q 22.953125 6.109375 30.078125 6.109375 
Q 37.203125 6.109375 41.296875 11.75 
Q 45.40625 17.390625 45.40625 27.296875 
Q 45.40625 37.203125 41.296875 42.84375 
Q 37.203125 48.484375 30.078125 48.484375 
Q 22.953125 48.484375 18.875 42.84375 
Q 14.796875 37.203125 14.796875 27.296875 
" id="BitstreamVeraSans-Roman-64"/>
      <path d="M 14.796875 27.296875 
Q 14.796875 17.390625 18.875 11.75 
Q 22.953125 6.109375 30.078125 6.109375 
Q 37.203125 6.109375 41.296875 11.75 
Q 45.40625 17.390625 45.40625 27.296875 
Q 45.40625 37.203125 41.296875 42.84375 
Q 37.203125 48.484375 30.078125 48.484375 
Q 22.953125 48.484375 18.875 42.84375 
Q 14.796875 37.203125 14.796875 27.296875 
M 45.40625 8.203125 
Q 42.578125 3.328125 38.25 0.953125 
Q 33.9375 -1.421875 27.875 -1.421875 
Q 17.96875 -1.421875 11.734375 6.484375 
Q 5.515625 14.40625 5.515625 27.296875 
Q 5.515625 40.1875 11.734375 48.09375 
Q 17.96875 56 27.875 56 
Q 33.9375 56 38.25 53.625 
Q 42.578125 51.265625 45.40625 46.390625 
L 45.40625 54.6875 
L 54.390625 54.6875 
L 54.390625 -20.796875 
L 45.40625 -20.796875 
z
" id="BitstreamVeraSans-Roman-71"/>
     </defs>
     <g transform="translate(19.3575 318.55)rotate(-90.0)scale(0.16 -0.16)">
      <use xlink:href="#BitstreamVeraSans-Roman-71"/>
      <use x="63.4765625" xlink:href="#BitstreamVeraSans-Roman-75"/>
      <use x="126.85546875" xlink:href="#BitstreamVeraSans-Roman-61"/>
      <use x="188.134765625" xlink:href="#BitstreamVeraSans-Roman-6c"/>
      <use x="215.91796875" xlink:href="#BitstreamVeraSans-Roman-69"/>
      <use x="243.701171875" xlink:href="#BitstreamVeraSans-Roman-74"/>
      <use x="282.91015625" xlink:href="#BitstreamVeraSans-Roman-79"/>
      <use x="342.08984375" xlink:href="#BitstreamVeraSans-Roman-20"/>
      <use x="373.876953125" xlink:href="#BitstreamVeraSans-Roman-69"/>
      <use x="401.66015625" xlink:href="#BitstreamVeraSans-Roman-6e"/>
      <use x="465.0390625" xlink:href="#BitstreamVeraSans-Roman-64"/>
      <use x="528.515625" xlink:href="#BitstreamVeraSans-Roman-69"/>
      <use x="556.298828125" xlink:href="#BitstreamVeraSans-Roman-63"/>
      <use x="611.279296875" xlink:href="#BitstreamVeraSans-Roman-61"/>
      <use x="672.55859375" xlink:href="#BitstreamVeraSans-Roman-74"/>
      <use x="711.767578125" xlink:href="#BitstreamVeraSans-Roman-6f"/>
      <use x="772.94921875" xlink:href="#BitstreamVeraSans-Roman-72"/>
      <use x="814.0625" xlink:href="#BitstreamVeraSans-Roman-20"/>
      <use x="845.849609375" xlink:href="#BitstreamVeraSans-Roman-28"/>
      <use x="884.86328125" xlink:href="#BitstreamVeraSans-Roman-74"/>
      <use x="924.072265625" xlink:href="#BitstreamVeraSans-Roman-6f"/>
      <use x="985.25390625" xlink:href="#BitstreamVeraSans-Roman-20"/>
      <use x="1017.04101562" xlink:href="#BitstreamVeraSans-Roman-62"/>
      <use x="1080.51757812" xlink:href="#BitstreamVeraSans-Roman-65"/>
      <use x="1142.04101562" xlink:href="#BitstreamVeraSans-Roman-20"/>
      <use x="1173.828125" xlink:href="#BitstreamVeraSans-Roman-6d"/>
      <use x="1271.24023438" xlink:href="#BitstreamVeraSans-Roman-69"/>
      <use x="1299.0234375" xlink:href="#BitstreamVeraSans-Roman-6e"/>
      <use x="1362.40234375" xlink:href="#BitstreamVeraSans-Roman-69"/>
      <use x="1390.18554688" xlink:href="#BitstreamVeraSans-Roman-6d"/>
      <use x="1487.59765625" xlink:href="#BitstreamVeraSans-Roman-69"/>
      <use x="1515.38085938" xlink:href="#BitstreamVeraSans-Roman-7a"/>
      <use x="1567.87109375" xlink:href="#BitstreamVeraSans-Roman-65"/>
      <use x="1629.39453125" xlink:href="#BitstreamVeraSans-Roman-64"/>
      <use x="1692.87109375" xlink:href="#BitstreamVeraSans-Roman-29"/>
     </g>
    </g>
   </g>
   <g id="text_3">
    <!-- fixed target -->
    <defs>
     <path d="M 45.40625 27.984375 
Q 45.40625 37.75 41.375 43.109375 
Q 37.359375 48.484375 30.078125 48.484375 
Q 22.859375 48.484375 18.828125 43.109375 
Q 14.796875 37.75 14.796875 27.984375 
Q 14.796875 18.265625 18.828125 12.890625 
Q 22.859375 7.515625 30.078125 7.515625 
Q 37.359375 7.515625 41.375 12.890625 
Q 45.40625 18.265625 45.40625 27.984375 
M 54.390625 6.78125 
Q 54.390625 -7.171875 48.1875 -13.984375 
Q 42 -20.796875 29.203125 -20.796875 
Q 24.46875 -20.796875 20.265625 -20.09375 
Q 16.0625 -19.390625 12.109375 -17.921875 
L 12.109375 -9.1875 
Q 16.0625 -11.328125 19.921875 -12.34375 
Q 23.78125 -13.375 27.78125 -13.375 
Q 36.625 -13.375 41.015625 -8.765625 
Q 45.40625 -4.15625 45.40625 5.171875 
L 45.40625 9.625 
Q 42.625 4.78125 38.28125 2.390625 
Q 33.9375 0 27.875 0 
Q 17.828125 0 11.671875 7.65625 
Q 5.515625 15.328125 5.515625 27.984375 
Q 5.515625 40.671875 11.671875 48.328125 
Q 17.828125 56 27.875 56 
Q 33.9375 56 38.28125 53.609375 
Q 42.625 51.21875 45.40625 46.390625 
L 45.40625 54.6875 
L 54.390625 54.6875 
z
" id="BitstreamVeraSans-Roman-67"/>
     <path d="M 54.890625 54.6875 
L 35.109375 28.078125 
L 55.90625 0 
L 45.3125 0 
L 29.390625 21.484375 
L 13.484375 0 
L 2.875 0 
L 24.125 28.609375 
L 4.6875 54.6875 
L 15.28125 54.6875 
L 29.78125 35.203125 
L 44.28125 54.6875 
z
" id="BitstreamVeraSans-Roman-78"/>
    </defs>
    <g style="fill:#ff0000;" transform="translate(40.3950303951 224.928)scale(0.16 -0.16)">
     <use xlink:href="#BitstreamVeraSans-Roman-66"/>
     <use x="35.205078125" xlink:href="#BitstreamVeraSans-Roman-69"/>
     <use x="62.98828125" xlink:href="#BitstreamVeraSans-Roman-78"/>
     <use x="122.12109375" xlink:href="#BitstreamVeraSans-Roman-65"/>
     <use x="183.64453125" xlink:href="#BitstreamVeraSans-Roman-64"/>
     <use x="247.12109375" xlink:href="#BitstreamVeraSans-Roman-20"/>
     <use x="278.908203125" xlink:href="#BitstreamVeraSans-Roman-74"/>
     <use x="318.1171875" xlink:href="#BitstreamVeraSans-Roman-61"/>
     <use x="379.396484375" xlink:href="#BitstreamVeraSans-Roman-72"/>
     <use x="420.494140625" xlink:href="#BitstreamVeraSans-Roman-67"/>
     <use x="483.970703125" xlink:href="#BitstreamVeraSans-Roman-65"/>
     <use x="545.494140625" xlink:href="#BitstreamVeraSans-Roman-74"/>
    </g>
   </g>
   <g id="text_4">
    <!-- fixed budget -->
    <g style="fill:#0000ff;" transform="translate(288.905113982 155.152)rotate(-90.0)scale(0.16 -0.16)">
     <use xlink:href="#BitstreamVeraSans-Roman-66"/>
     <use x="35.205078125" xlink:href="#BitstreamVeraSans-Roman-69"/>
     <use x="62.98828125" xlink:href="#BitstreamVeraSans-Roman-78"/>
     <use x="122.12109375" xlink:href="#BitstreamVeraSans-Roman-65"/>
     <use x="183.64453125" xlink:href="#BitstreamVeraSans-Roman-64"/>
     <use x="247.12109375" xlink:href="#BitstreamVeraSans-Roman-20"/>
     <use x="278.908203125" xlink:href="#BitstreamVeraSans-Roman-62"/>
     <use x="342.384765625" xlink:href="#BitstreamVeraSans-Roman-75"/>
     <use x="405.763671875" xlink:href="#BitstreamVeraSans-Roman-64"/>
     <use x="469.240234375" xlink:href="#BitstreamVeraSans-Roman-67"/>
     <use x="532.716796875" xlink:href="#BitstreamVeraSans-Roman-65"/>
     <use x="594.240234375" xlink:href="#BitstreamVeraSans-Roman-74"/>
    </g>
   </g>
  </g>
 </g>
 <defs>
  <clipPath id="p49f14b6b22">
   <rect height="345.6" width="446.4" x="31.685" y="7.2"/>
  </clipPath>
 </defs>
</svg>
