<?xml version="1.0" encoding="UTF-8" standalone="no"?>
<!-- Created with Inkscape (http://www.inkscape.org/) -->

<svg
   xmlns:dc="http://purl.org/dc/elements/1.1/"
   xmlns:cc="http://creativecommons.org/ns#"
   xmlns:rdf="http://www.w3.org/1999/02/22-rdf-syntax-ns#"
   xmlns:svg="http://www.w3.org/2000/svg"
   xmlns="http://www.w3.org/2000/svg"
   xmlns:sodipodi="http://sodipodi.sourceforge.net/DTD/sodipodi-0.dtd"
   xmlns:inkscape="http://www.inkscape.org/namespaces/inkscape"
   id="svg2"
   version="1.1"
   inkscape:version="0.91 r13725"
   xml:space="preserve"
   width="783.42816"
   height="579.44867"
   viewBox="0 0 783.42816 579.44867"
   sodipodi:docname="HorizontalvsVertical.svg"
   inkscape:export-filename="C:\Users\dimo\Desktop\numbbo-github\numbbo-newcococode-brockho\docs\coco-generic\coco-perf-assessment\source\HorizontalvsVertical.png"
   inkscape:export-xdpi="300.05997"
   inkscape:export-ydpi="300.05997"><metadata
     id="metadata8"><rdf:RDF><cc:Work
         rdf:about=""><dc:format>image/svg+xml</dc:format><dc:type
           rdf:resource="http://purl.org/dc/dcmitype/StillImage" /><dc:title></dc:title></cc:Work></rdf:RDF></metadata><defs
     id="defs6"><marker
       inkscape:stockid="Arrow1Lend"
       orient="auto"
       refY="0"
       refX="0"
       id="Arrow1Lend"
       style="overflow:visible"
       inkscape:isstock="true"><path
         id="path4190"
         d="M 0,0 5,-5 -12.5,0 5,5 0,0 Z"
         style="fill:#000000;fill-opacity:1;fill-rule:evenodd;stroke:#000000;stroke-width:1pt;stroke-opacity:1"
         transform="matrix(-0.8,0,0,-0.8,-10,0)"
         inkscape:connector-curvature="0" /></marker><clipPath
       clipPathUnits="userSpaceOnUse"
       id="clipPath18"><path
         d="M 0,0 580,0 580,422 0,422 0,0 Z"
         id="path20"
         inkscape:connector-curvature="0" /></clipPath><marker
       inkscape:stockid="Arrow1Lend"
       orient="auto"
       refY="0"
       refX="0"
       id="Arrow1Lend-5"
       style="overflow:visible"
       inkscape:isstock="true"><path
         inkscape:connector-curvature="0"
         id="path4190-5"
         d="M 0,0 5,-5 -12.5,0 5,5 0,0 Z"
         style="fill:#000000;fill-opacity:1;fill-rule:evenodd;stroke:#000000;stroke-width:1pt;stroke-opacity:1"
         transform="matrix(-0.8,0,0,-0.8,-10,0)" /></marker></defs><sodipodi:namedview
     pagecolor="#ffffff"
     bordercolor="#666666"
     borderopacity="1"
     objecttolerance="10"
     gridtolerance="10"
     guidetolerance="10"
     inkscape:pageopacity="0"
     inkscape:pageshadow="2"
     inkscape:window-width="1600"
     inkscape:window-height="838"
     id="namedview4"
     showgrid="true"
     inkscape:zoom="0.63270976"
     inkscape:cx="425.05057"
     inkscape:cy="404.62938"
     inkscape:window-x="-8"
     inkscape:window-y="-8"
     inkscape:window-maximized="1"
     inkscape:current-layer="flowRoot5124"
     fit-margin-top="0"
     fit-margin-left="0"
     fit-margin-right="0"
     fit-margin-bottom="0"><inkscape:grid
       type="xygrid"
       id="grid4240"
       originx="39.788136"
       originy="38.250339" /></sodipodi:namedview><g
     id="g10"
     inkscape:groupmode="layer"
     inkscape:label="HorizontalvsVertical"
     transform="matrix(1.25,0,0,-1.25,39.788136,541.19831)"><g
       id="g12" /><text
       xml:space="preserve"
       style="font-style:normal;font-weight:normal;font-size:32px;line-height:125%;font-family:sans-serif;letter-spacing:0px;word-spacing:0px;fill:#000000;fill-opacity:1;stroke:none;stroke-width:1px;stroke-linecap:butt;stroke-linejoin:miter;stroke-opacity:1"
       x="224"
       y="48"
       id="text5132"
       sodipodi:linespacing="125%"
       transform="scale(1,-1)"><tspan
         sodipodi:role="line"
         id="tspan5134"
         x="224"
         y="48" /></text>
<g
       id="g3374"
       inkscape:export-xdpi="300"
       inkscape:export-ydpi="300"><path
         sodipodi:nodetypes="cssscsc"
         inkscape:connector-curvature="0"
         id="path24"
         style="fill:none;stroke:#000000;stroke-width:1.93299997;stroke-linecap:butt;stroke-linejoin:miter;stroke-miterlimit:10;stroke-dasharray:none;stroke-opacity:1"
         d="M 0.33000423,396.99186 C 13.420005,393.05986 34.661,381.753 49.157,375.325 c 28.333,-12.564 62.078,-23.021 86.614,-40.429 35.489,-25.179 68.83,-47.77 105.987,-69.739 36.28,-21.45 86.242,-41.157 106.3912,-59.47692 11.24282,-5.38867 29.69809,-30.48449 114.08596,-30.97044 4.56348,-0.0263 112.13757,-0.87465 117.09596,-0.74999"
         inkscape:export-xdpi="300"
         inkscape:export-ydpi="300" /><path
         sodipodi:nodetypes="ccccccccc"
         inkscape:connector-curvature="0"
         id="path26"
         style="fill:none;stroke:#000000;stroke-width:1.93299997;stroke-linecap:butt;stroke-linejoin:miter;stroke-miterlimit:10;stroke-dasharray:none;stroke-opacity:1"
         d="M 0.35541945,394.07182 C 9.0674194,392.59082 12.328,376.062 17.659,370.02 c 2.588,-2.934 5.177,-5.868 7.766,-8.802 12.367,-14.016 25.167,-21.197 44.01001,-30.807 28.611,-14.591 59.22999,-32.741 82.84299,-52.812 34.313,-29.165 73.029,-52.171 107.438,-81.418 27.937,-23.747 41.63656,-34.00641 67.48356,-55.97541 C 352.04156,119.08959 439.185,104.508 469.412,86.15601 506.71912,64.684863 549.31613,28.968861 580.32351,2.3155234"
         inkscape:export-xdpi="300"
         inkscape:export-ydpi="300" /><path
         sodipodi:nodetypes="cccccccc"
         inkscape:connector-curvature="0"
         id="path28"
         style="fill:none;stroke:#000000;stroke-width:1.93299997;stroke-linecap:butt;stroke-linejoin:miter;stroke-miterlimit:10;stroke-dasharray:none;stroke-opacity:1"
         d="M 0.33155505,406.33296 C 4.0895551,400.12396 45.796,383.773 54.444,380.915 c 28.024,-9.261 73.403,-52.386 98.253,-78.516 23.386,-24.593 43.731,-51.869 65.233,-78.517 13.869,-17.189 36.743,-29.651 47.515,-51.901 4.8,-9.914 51.866,-55.789 62.012,-69.201 C 336.499,90.826 348,68 358.866,54.871 372,32 373.78814,23.529661 381.59436,-0.55203688"
         inkscape:export-xdpi="300"
         inkscape:export-ydpi="300" /><path
         sodipodi:nodetypes="ccccssc"
         inkscape:connector-curvature="0"
         id="path30"
         style="fill:none;stroke:#000000;stroke-width:1.93299997;stroke-linecap:butt;stroke-linejoin:miter;stroke-miterlimit:10;stroke-dasharray:none;stroke-opacity:1"
         d="M 0.36741525,388.67576 C 3.2574153,387.25376 6.852,360.015 16.459,353.397 43.714,334.621 74.75401,312.626 96.773,288.925 130.48,252.641 177.178,227.882 213.84,192.802 253.738,154.627 303.158,130.386 356.772,111.919 406.103,94.927 453.776,65.57101 498.342,41.585 518.901,30.52 540.39606,12.153347 559.65006,-0.28265255"
         inkscape:export-xdpi="300"
         inkscape:export-ydpi="300" /><path
         sodipodi:nodetypes="cccscccc"
         inkscape:connector-curvature="0"
         id="path32"
         style="fill:none;stroke:#000000;stroke-width:1.93299997;stroke-linecap:butt;stroke-linejoin:miter;stroke-miterlimit:10;stroke-dasharray:none;stroke-opacity:1"
         d="M 0.44176275,392.89231 C 7.3447628,385.40431 20.423,382.246 28.538,368.16 41.456,345.736 48.796,323.206 65.33,308.855 c 20.291,-17.611 39.999,-50.076 57.816,-74.131 11.194,-15.113 26.302,-41.977 40.077,-46.76 10.693,-3.712 44.532,-44.84 54.531,-59.305 14.074,-20.359 25.21159,-36.863078 37.99759,-59.058068 9.91417,-22.85058 23.25362,-44.08666 28.02383,-68.90884667"
         inkscape:export-xdpi="300"
         inkscape:export-ydpi="300" /><path
         inkscape:connector-curvature="0"
         id="path34"
         style="fill:#4730f4;fill-opacity:1;fill-rule:evenodd;stroke:none"
         d="m 3.571,112.11 c 572.572,-5.714 572.572,-4.571 572.572,-4.571"
         inkscape:export-xdpi="300"
         inkscape:export-ydpi="300" /><path
         inkscape:connector-curvature="0"
         id="path36"
         style="fill:none;stroke:#4730f4;stroke-width:2.78399992;stroke-linecap:butt;stroke-linejoin:miter;stroke-miterlimit:10;stroke-dasharray:16.704, 5.568;stroke-dashoffset:0;stroke-opacity:1"
         d="m 3.571,112.11 c 572.572,-5.714 572.572,-4.571 572.572,-4.571"
         inkscape:export-xdpi="300"
         inkscape:export-ydpi="300" /><path
         inkscape:connector-curvature="0"
         id="path38"
         style="fill:#f6250e;fill-opacity:1;fill-rule:evenodd;stroke:none"
         d="m 292.467,1.923 c -2.286,417.142 -2.286,417.142 -2.286,417.142"
         inkscape:export-xdpi="300"
         inkscape:export-ydpi="300" /><path
         inkscape:connector-curvature="0"
         id="path40"
         style="fill:none;stroke:#ff2800;stroke-width:3.06699991;stroke-linecap:butt;stroke-linejoin:miter;stroke-miterlimit:10;stroke-dasharray:12.268, 6.134;stroke-dashoffset:0;stroke-opacity:1"
         d="m 292.467,1.923 c -2.286,417.142 -2.286,417.142 -2.286,417.142"
         inkscape:export-xdpi="300"
         inkscape:export-ydpi="300" /><path
         inkscape:connector-curvature="0"
         id="path94"
         style="fill:#ff2800;fill-opacity:1;fill-rule:nonzero;stroke:none"
         d="m 282.509,233.769 7.068,0.257 4.245,-5.032 1.909,6.057 6.693,2.036 -5.888,3.486 -0.108,6.29 -5.548,-3.903 -6.761,1.852 2.46,-5.898 -4.07,-5.145"
         inkscape:export-xdpi="300"
         inkscape:export-ydpi="300" /><path
         inkscape:connector-curvature="0"
         id="path96"
         style="fill:#4730f4;fill-opacity:1;fill-rule:nonzero;stroke:none"
         d="m 221.426,106.095 7.068,0.257 4.245,-5.032 1.909,6.057 6.694,2.036 -5.888,3.486 -0.109,6.29 -5.548,-3.903 -6.76,1.852 2.459,-5.898 -4.07,-5.145"
         inkscape:export-xdpi="300"
         inkscape:export-ydpi="300" /><path
         inkscape:connector-curvature="0"
         id="path98"
         style="fill:#4730f4;fill-opacity:1;fill-rule:nonzero;stroke:none"
         d="m 312.19,105.459 7.068,0.257 4.245,-5.032 1.909,6.057 6.693,2.036 -5.888,3.486 -0.108,6.29 -5.548,-3.903 -6.761,1.852 2.46,-5.898 -4.07,-5.145"
         inkscape:export-xdpi="300"
         inkscape:export-ydpi="300" /><path
         inkscape:connector-curvature="0"
         id="path100"
         style="fill:#4730f4;fill-opacity:1;fill-rule:nonzero;stroke:none"
         d="m 354.813,104.803 7.068,0.257 4.245,-5.032 1.909,6.057 6.693,2.036 -5.888,3.486 -0.108,6.29 -5.548,-3.902 -6.761,1.852 2.46,-5.899 -4.07,-5.145"
         inkscape:export-xdpi="300"
         inkscape:export-ydpi="300" /><path
         inkscape:connector-curvature="0"
         id="path102"
         style="fill:#4730f4;fill-opacity:1;fill-rule:nonzero;stroke:none"
         d="m 401.396,103.492 7.068,0.257 4.245,-5.032 1.909,6.057 6.694,2.035 -5.888,3.487 -0.109,6.29 -5.548,-3.903 -6.76,1.852 2.459,-5.898 -4.07,-5.145"
         inkscape:export-xdpi="300"
         inkscape:export-ydpi="300" /><path
         inkscape:connector-curvature="0"
         id="path106"
         style="fill:#ff2800;fill-opacity:1;fill-rule:nonzero;stroke:none"
         d="m 282.682,166.311 7.068,0.257 4.245,-5.032 1.909,6.058 6.693,2.035 -5.888,3.487 -0.108,6.289 -5.548,-3.902 -6.761,1.852 2.459,-5.898 -4.069,-5.146"
         inkscape:export-xdpi="300"
         inkscape:export-ydpi="300" /><path
         inkscape:connector-curvature="0"
         id="path108"
         style="fill:#ff2800;fill-opacity:1;fill-rule:nonzero;stroke:none"
         d="m 280.714,139.557 7.068,0.257 4.245,-5.032 1.91,6.058 6.693,2.035 -5.888,3.486 -0.109,6.29 -5.548,-3.902 -6.76,1.852 2.459,-5.898 -4.07,-5.146"
         inkscape:export-xdpi="300"
         inkscape:export-ydpi="300" /><path
         inkscape:connector-curvature="0"
         id="path110"
         style="fill:#ff2800;fill-opacity:1;fill-rule:nonzero;stroke:none"
         d="m 280.714,136.278 7.068,0.258 4.245,-5.032 1.91,6.057 6.693,2.035 -5.888,3.487 -0.109,6.29 -5.548,-3.903 -6.76,1.852 2.459,-5.898 -4.07,-5.146"
         inkscape:export-xdpi="300"
         inkscape:export-ydpi="300" /><path
         inkscape:connector-curvature="0"
         id="path4181"
         d="M 0,0 592,0"
         style="fill:none;fill-rule:evenodd;stroke:#000000;stroke-width:1.60000002;stroke-linecap:butt;stroke-linejoin:miter;stroke-miterlimit:4;stroke-dasharray:none;stroke-opacity:1;marker-end:url(#Arrow1Lend)"
         inkscape:export-xdpi="300"
         inkscape:export-ydpi="300" /><path
         sodipodi:nodetypes="cc"
         inkscape:connector-curvature="0"
         id="path4181-3"
         d="M 0.41101688,-0.89406782 0.42637703,430.15837"
         style="fill:none;fill-rule:evenodd;stroke:#000000;stroke-width:1.60000002;stroke-linecap:butt;stroke-linejoin:miter;stroke-miterlimit:4;stroke-dasharray:none;stroke-opacity:1;marker-end:url(#Arrow1Lend-5)"
         inkscape:export-xdpi="300"
         inkscape:export-ydpi="300" /><text
         transform="scale(1,-1)"
         sodipodi:linespacing="125%"
         id="text5160"
         y="30.258474"
         x="292.41974"
         style="font-style:normal;font-weight:normal;font-size:32px;line-height:125%;font-family:sans-serif;letter-spacing:0px;word-spacing:0px;fill:#000000;fill-opacity:1;stroke:none;stroke-width:1px;stroke-linecap:butt;stroke-linejoin:miter;stroke-opacity:1"
         xml:space="preserve"
         inkscape:export-xdpi="300"
         inkscape:export-ydpi="300"><tspan
           style="font-style:normal;font-variant:normal;font-weight:normal;font-stretch:normal;font-size:28px;font-family:'Lucida Sans Unicode';-inkscape-font-specification:'Lucida Sans Unicode';text-align:center;text-anchor:middle"
           y="30.258474"
           x="292.41974"
           id="tspan5162"
           sodipodi:role="line">number of function evaluations</tspan></text>
<text
         transform="matrix(0,1,1,0,0,0)"
         sodipodi:linespacing="125%"
         id="text5160-9"
         y="-9.9008217"
         x="199.62787"
         style="font-style:normal;font-weight:normal;font-size:32px;line-height:125%;font-family:sans-serif;letter-spacing:0px;word-spacing:0px;fill:#000000;fill-opacity:1;stroke:none;stroke-width:1px;stroke-linecap:butt;stroke-linejoin:miter;stroke-opacity:1"
         xml:space="preserve"
         inkscape:export-xdpi="300"
         inkscape:export-ydpi="300"><tspan
           style="font-style:normal;font-variant:normal;font-weight:normal;font-stretch:normal;font-size:28px;font-family:'Lucida Sans Unicode';-inkscape-font-specification:'Lucida Sans Unicode';text-align:center;text-anchor:middle"
           y="-9.9008217"
           x="199.62787"
           id="tspan5162-5"
           sodipodi:role="line">function or quality indicator value</tspan></text>
</g><g
       transform="matrix(0,0.8,0.8,0,-207.83363,225.59561)"
       style="font-style:normal;font-weight:normal;font-size:40px;line-height:125%;font-family:sans-serif;letter-spacing:0px;word-spacing:0px;fill:#000000;fill-opacity:1;stroke:none;stroke-width:1px;stroke-linecap:butt;stroke-linejoin:miter;stroke-opacity:1"
       id="flowRoot5124-9"><path
         d="m 47.211914,608.72418 -6.904297,-18.55957 3.366699,0 5.400391,14.44092 5.690918,-14.44092 3.144531,0 -7.331543,18.55957 -3.366699,0 z"
         style="font-style:normal;font-variant:normal;font-weight:normal;font-stretch:normal;font-size:35px;font-family:'Lucida Sans Unicode';-inkscape-font-specification:'Lucida Sans Unicode';fill:#f6250e;fill-opacity:1"
         id="path4220" /><path
         d="m 75.085449,608.12604 q -3.383789,1.02539 -5.793457,1.02539 -4.118652,0 -6.699219,-2.71729 -2.580566,-2.73437 -2.580566,-7.07519 0,-4.22119 2.272949,-6.92139 2.290039,-2.70019 5.844727,-2.70019 3.366699,0 5.195312,2.40966 1.845703,2.39258 1.845703,6.80176 l -0.01709,1.02539 -11.706543,0 q 0.734863,6.61377 6.47705,6.61377 2.102051,0 5.161133,-1.12793 l 0,2.66602 z m -11.484375,-10.68116 8.186035,0 q 0,-5.17822 -3.862304,-5.17822 -3.879395,0 -4.323731,5.17822 z"
         style="font-style:normal;font-variant:normal;font-weight:normal;font-stretch:normal;font-size:35px;font-family:'Lucida Sans Unicode';-inkscape-font-specification:'Lucida Sans Unicode';fill:#f6250e;fill-opacity:1"
         id="path4222" /><path
         d="m 80.964355,608.72418 0,-18.55957 3.3667,0 0,3.48633 q 1.999511,-3.89648 5.810547,-3.89648 0.512695,0 1.07666,0.0854 l 0,3.14454 q -0.871582,-0.29053 -1.538086,-0.29053 -3.195801,0 -5.349121,3.79394 l 0,12.23633 -3.3667,0 z"
         style="font-style:normal;font-variant:normal;font-weight:normal;font-stretch:normal;font-size:35px;font-family:'Lucida Sans Unicode';-inkscape-font-specification:'Lucida Sans Unicode';fill:#f6250e;fill-opacity:1"
         id="path4224" /><path
         d="m 103.59131,608.72418 q -1.55518,0.42725 -2.7002,0.42725 -2.563473,0 -3.99902,-1.46973 -1.435547,-1.46973 -1.435547,-4.08447 l 0,-10.90332 -2.324219,0 0,-2.5293 2.324219,0 0,-3.3667 3.366699,-0.3247 0,3.6914 4.853518,0 0,2.5293 -4.853518,0 0,10.28808 q 0,3.64014 3.144528,3.64014 0.66651,0 1.62354,-0.22217 l 0,2.32422 z"
         style="font-style:normal;font-variant:normal;font-weight:normal;font-stretch:normal;font-size:35px;font-family:'Lucida Sans Unicode';-inkscape-font-specification:'Lucida Sans Unicode';fill:#f6250e;fill-opacity:1"
         id="path4226" /><path
         d="m 108.44482,608.72418 0,-18.55957 3.3667,0 0,18.55957 -3.3667,0 z m 0,-21.92627 0,-3.3667 3.3667,0 0,3.3667 -3.3667,0 z"
         style="font-style:normal;font-variant:normal;font-weight:normal;font-stretch:normal;font-size:35px;font-family:'Lucida Sans Unicode';-inkscape-font-specification:'Lucida Sans Unicode';fill:#f6250e;fill-opacity:1"
         id="path4228" /><path
         d="m 131.44775,608.16022 q -3.26416,0.99121 -5.63964,0.99121 -3.75977,0 -6.2378,-2.78565 -2.47802,-2.78564 -2.47802,-7.02392 0,-4.52881 2.44384,-7.05811 2.46094,-2.52929 6.85303,-2.52929 2.17041,0 4.85352,0.59814 l 0,2.81982 q -2.85401,-0.8374 -4.64844,-0.8374 -2.59766,0 -4.15283,1.94824 -1.55518,1.93116 -1.55518,5.16114 0,3.12744 1.60645,5.05859 1.60644,1.93115 4.2041,1.93115 2.30713,0 4.75097,-1.1792 l 0,2.90528 z"
         style="font-style:normal;font-variant:normal;font-weight:normal;font-stretch:normal;font-size:35px;font-family:'Lucida Sans Unicode';-inkscape-font-specification:'Lucida Sans Unicode';fill:#f6250e;fill-opacity:1"
         id="path4230" /><path
         d="m 146.04248,606.36578 q -3.0249,2.78565 -5.82764,2.78565 -2.30713,0 -3.82812,-1.43555 -1.521,-1.45264 -1.521,-3.65723 0,-3.04199 2.54639,-4.66552 2.56348,-1.64063 7.34863,-1.64063 l 0.78613,0 0,-2.23877 q 0,-3.22998 -3.36669,-3.22998 -2.61475,0 -5.70801,1.64063 l 0,-2.78565 q 3.40088,-1.38427 6.40869,-1.38427 3.09326,0 4.56299,1.41845 1.46972,1.40137 1.46972,4.34082 l 0,8.40821 q 0,2.88818 1.77735,2.88818 0.22217,0 0.64941,-0.0684 l 0.23926,1.86279 q -1.14502,0.54688 -2.5293,0.54688 -2.3584,0 -3.00781,-2.78565 z m -0.49561,-1.82861 0,-4.80225 -1.07666,-0.0342 q -2.80273,0 -4.5288,1.04248 -1.70899,1.04249 -1.70899,2.76856 0,1.21338 0.85449,2.05078 0.8545,0.8374 2.08496,0.8374 2.10206,0 4.375,-1.86279 z"
         style="font-style:normal;font-variant:normal;font-weight:normal;font-stretch:normal;font-size:35px;font-family:'Lucida Sans Unicode';-inkscape-font-specification:'Lucida Sans Unicode';fill:#f6250e;fill-opacity:1"
         id="path4232" /><path
         d="m 155.81787,608.72418 0,-26.98486 3.3667,0 0,26.98486 -3.3667,0 z"
         style="font-style:normal;font-variant:normal;font-weight:normal;font-stretch:normal;font-size:35px;font-family:'Lucida Sans Unicode';-inkscape-font-specification:'Lucida Sans Unicode';fill:#f6250e;fill-opacity:1"
         id="path4234" /><path
         d="m 180.85449,608.72418 -6.90429,-18.55957 3.36669,0 5.4004,14.44092 5.69091,-14.44092 3.14453,0 -7.33154,18.55957 -3.3667,0 z"
         style="font-style:normal;font-variant:normal;font-weight:normal;font-stretch:normal;font-size:35px;font-family:'Lucida Sans Unicode';-inkscape-font-specification:'Lucida Sans Unicode';fill:#f6250e;fill-opacity:1"
         id="path4236" /><path
         d="m 195.12451,608.72418 0,-18.55957 3.3667,0 0,18.55957 -3.3667,0 z m 0,-21.92627 0,-3.3667 3.3667,0 0,3.3667 -3.3667,0 z"
         style="font-style:normal;font-variant:normal;font-weight:normal;font-stretch:normal;font-size:35px;font-family:'Lucida Sans Unicode';-inkscape-font-specification:'Lucida Sans Unicode';fill:#f6250e;fill-opacity:1"
         id="path4238" /><path
         d="m 218.84521,608.12604 q -3.38378,1.02539 -5.79345,1.02539 -4.11865,0 -6.69922,-2.71729 -2.58057,-2.73437 -2.58057,-7.07519 0,-4.22119 2.27295,-6.92139 2.29004,-2.70019 5.84473,-2.70019 3.3667,0 5.19531,2.40966 1.8457,2.39258 1.8457,6.80176 l -0.0171,1.02539 -11.70654,0 q 0.73486,6.61377 6.47705,6.61377 2.10205,0 5.16113,-1.12793 l 0,2.66602 z m -11.48437,-10.68116 8.18603,0 q 0,-5.17822 -3.8623,-5.17822 -3.87939,0 -4.32373,5.17822 z"
         style="font-style:normal;font-variant:normal;font-weight:normal;font-stretch:normal;font-size:35px;font-family:'Lucida Sans Unicode';-inkscape-font-specification:'Lucida Sans Unicode';fill:#f6250e;fill-opacity:1"
         id="path4240" /><path
         d="m 226.87744,608.72418 -5.31494,-18.55957 3.29834,0 4.06738,14.37256 4.39209,-14.37256 3.3667,0 3.84522,14.37256 4.66552,-14.37256 2.88819,0 -6.04981,18.55957 -3.38379,0 -3.93066,-14.37256 -4.44336,14.37256 -3.40088,0 z"
         style="font-style:normal;font-variant:normal;font-weight:normal;font-stretch:normal;font-size:35px;font-family:'Lucida Sans Unicode';-inkscape-font-specification:'Lucida Sans Unicode';fill:#f6250e;fill-opacity:1"
         id="path4242" /></g><g
       transform="matrix(0.8,0,0,-0.8,351.36864,605.2839)"
       style="font-style:normal;font-weight:normal;font-size:40px;line-height:125%;font-family:sans-serif;letter-spacing:0px;word-spacing:0px;fill:#000000;fill-opacity:1;stroke:none;stroke-width:1px;stroke-linecap:butt;stroke-linejoin:miter;stroke-opacity:1"
       id="flowRoot5124"><path
         d="m 43.366699,608.72418 0,-26.98486 3.366699,0 0,11.91162 q 2.666016,-3.89648 6.528321,-3.89648 2.426758,0 3.845215,1.53808 1.435546,1.521 1.435546,4.10156 l 0,13.33008 -3.366699,0 0,-12.23633 q 0,-2.06787 -0.615234,-2.93945 -0.598145,-0.88867 -1.999512,-0.88867 -3.093262,0 -5.827637,4.05029 l 0,12.01416 -3.366699,0 z"
         style="font-style:normal;font-variant:normal;font-weight:normal;font-stretch:normal;font-size:35px;font-family:'Lucida Sans Unicode';-inkscape-font-specification:'Lucida Sans Unicode';fill:#294ef4;fill-opacity:1"
         id="path4262" /><path
         d="m 72.487793,609.15143 q -4.084473,0 -6.477051,-2.61475 -2.375488,-2.61474 -2.375488,-7.09228 0,-4.47754 2.375488,-7.0752 2.392578,-2.61474 6.477051,-2.61474 4.084473,0 6.459961,2.61474 2.392578,2.59766 2.392578,7.0752 0,4.47754 -2.392578,7.09228 -2.375488,2.61475 -6.459961,2.61475 z m 0,-2.5293 q 2.512207,0 3.896484,-1.87988 1.384278,-1.87988 1.384278,-5.29785 0,-3.41797 -1.384278,-5.28077 Q 75,592.28375 72.487793,592.28375 q -2.512207,0 -3.896484,1.87988 -1.367188,1.8628 -1.367188,5.28077 0,3.41797 1.367188,5.29785 1.384277,1.87988 3.896484,1.87988 z"
         style="font-style:normal;font-variant:normal;font-weight:normal;font-stretch:normal;font-size:35px;font-family:'Lucida Sans Unicode';-inkscape-font-specification:'Lucida Sans Unicode';fill:#294ef4;fill-opacity:1"
         id="path4264" /><path
         d="m 86.638184,608.72418 0,-18.55957 3.366699,0 0,3.48633 q 1.999512,-3.89648 5.810547,-3.89648 0.512695,0 1.07666,0.0854 l 0,3.14454 q -0.871582,-0.29053 -1.538086,-0.29053 -3.195801,0 -5.349121,3.79394 l 0,12.23633 -3.366699,0 z"
         style="font-style:normal;font-variant:normal;font-weight:normal;font-stretch:normal;font-size:35px;font-family:'Lucida Sans Unicode';-inkscape-font-specification:'Lucida Sans Unicode';fill:#294ef4;fill-opacity:1"
         id="path4266" /><path
         d="m 100.99365,608.72418 0,-18.55957 3.3667,0 0,18.55957 -3.3667,0 z m 0,-21.92627 0,-3.3667 3.3667,0 0,3.3667 -3.3667,0 z"
         style="font-style:normal;font-variant:normal;font-weight:normal;font-stretch:normal;font-size:35px;font-family:'Lucida Sans Unicode';-inkscape-font-specification:'Lucida Sans Unicode';fill:#294ef4;fill-opacity:1"
         id="path4268" /><path
         d="m 109.84619,608.72418 0,-2.5293 11.48438,-13.50097 -10.95459,0 0,-2.5293 15.10742,0 0,2.5293 -11.48438,13.50097 11.70655,0 0,2.5293 -15.85938,0 z"
         style="font-style:normal;font-variant:normal;font-weight:normal;font-stretch:normal;font-size:35px;font-family:'Lucida Sans Unicode';-inkscape-font-specification:'Lucida Sans Unicode';fill:#294ef4;fill-opacity:1"
         id="path4270" /><path
         d="m 138.59131,609.15143 q -4.08447,0 -6.47705,-2.61475 -2.37549,-2.61474 -2.37549,-7.09228 0,-4.47754 2.37549,-7.0752 2.39258,-2.61474 6.47705,-2.61474 4.08447,0 6.45996,2.61474 2.39258,2.59766 2.39258,7.0752 0,4.47754 -2.39258,7.09228 -2.37549,2.61475 -6.45996,2.61475 z m 0,-2.5293 q 2.51221,0 3.89648,-1.87988 1.38428,-1.87988 1.38428,-5.29785 0,-3.41797 -1.38428,-5.28077 -1.38427,-1.87988 -3.89648,-1.87988 -2.51221,0 -3.89649,1.87988 -1.36718,1.8628 -1.36718,5.28077 0,3.41797 1.36718,5.29785 1.38428,1.87988 3.89649,1.87988 z"
         style="font-style:normal;font-variant:normal;font-weight:normal;font-stretch:normal;font-size:35px;font-family:'Lucida Sans Unicode';-inkscape-font-specification:'Lucida Sans Unicode';fill:#294ef4;fill-opacity:1"
         id="path4272" /><path
         d="m 152.7417,608.72418 0,-18.55957 3.3667,0 0,3.48633 q 2.66601,-3.89648 6.52832,-3.89648 2.42676,0 3.84521,1.53808 1.43555,1.521 1.43555,4.10156 l 0,13.33008 -3.3667,0 0,-12.23633 q 0,-2.06787 -0.61523,-2.93945 -0.59815,-0.88867 -1.99951,-0.88867 -3.09327,0 -5.82764,4.05029 l 0,12.01416 -3.3667,0 z"
         style="font-style:normal;font-variant:normal;font-weight:normal;font-stretch:normal;font-size:35px;font-family:'Lucida Sans Unicode';-inkscape-font-specification:'Lucida Sans Unicode';fill:#294ef4;fill-opacity:1"
         id="path4274" /><path
         d="m 182.75146,608.72418 q -1.55517,0.42725 -2.70019,0.42725 -2.56348,0 -3.99902,-1.46973 -1.43555,-1.46973 -1.43555,-4.08447 l 0,-10.90332 -2.32422,0 0,-2.5293 2.32422,0 0,-3.3667 3.3667,-0.3247 0,3.6914 4.85351,0 0,2.5293 -4.85351,0 0,10.28808 q 0,3.64014 3.14453,3.64014 0.6665,0 1.62353,-0.22217 l 0,2.32422 z"
         style="font-style:normal;font-variant:normal;font-weight:normal;font-stretch:normal;font-size:35px;font-family:'Lucida Sans Unicode';-inkscape-font-specification:'Lucida Sans Unicode';fill:#294ef4;fill-opacity:1"
         id="path4276" /><path
         d="m 197.17529,606.36578 q -3.0249,2.78565 -5.82763,2.78565 -2.30713,0 -3.82813,-1.43555 -1.52099,-1.45264 -1.52099,-3.65723 0,-3.04199 2.54638,-4.66552 2.56348,-1.64063 7.34863,-1.64063 l 0.78614,0 0,-2.23877 q 0,-3.22998 -3.3667,-3.22998 -2.61475,0 -5.70801,1.64063 l 0,-2.78565 q 3.40088,-1.38427 6.40869,-1.38427 3.09326,0 4.56299,1.41845 1.46973,1.40137 1.46973,4.34082 l 0,8.40821 q 0,2.88818 1.77734,2.88818 0.22217,0 0.64941,-0.0684 l 0.23926,1.86279 q -1.14502,0.54688 -2.52929,0.54688 -2.3584,0 -3.00782,-2.78565 z m -0.4956,-1.82861 0,-4.80225 -1.07666,-0.0342 q -2.80274,0 -4.52881,1.04248 -1.70899,1.04249 -1.70899,2.76856 0,1.21338 0.8545,2.05078 0.85449,0.8374 2.08496,0.8374 2.10205,0 4.375,-1.86279 z"
         style="font-style:normal;font-variant:normal;font-weight:normal;font-stretch:normal;font-size:35px;font-family:'Lucida Sans Unicode';-inkscape-font-specification:'Lucida Sans Unicode';fill:#294ef4;fill-opacity:1"
         id="path4278" /><path
         d="m 206.95068,608.72418 0,-26.98486 3.3667,0 0,26.98486 -3.3667,0 z"
         style="font-style:normal;font-variant:normal;font-weight:normal;font-stretch:normal;font-size:35px;font-family:'Lucida Sans Unicode';-inkscape-font-specification:'Lucida Sans Unicode';fill:#294ef4;fill-opacity:1"
         id="path4280" /><path
         d="m 231.9873,608.72418 -6.90429,-18.55957 3.3667,0 5.40039,14.44092 5.69092,-14.44092 3.14453,0 -7.33155,18.55957 -3.3667,0 z"
         style="font-style:normal;font-variant:normal;font-weight:normal;font-stretch:normal;font-size:35px;font-family:'Lucida Sans Unicode';-inkscape-font-specification:'Lucida Sans Unicode';fill:#294ef4;fill-opacity:1"
         id="path4282" /><path
         d="m 246.25732,608.72418 0,-18.55957 3.3667,0 0,18.55957 -3.3667,0 z m 0,-21.92627 0,-3.3667 3.3667,0 0,3.3667 -3.3667,0 z"
         style="font-style:normal;font-variant:normal;font-weight:normal;font-stretch:normal;font-size:35px;font-family:'Lucida Sans Unicode';-inkscape-font-specification:'Lucida Sans Unicode';fill:#294ef4;fill-opacity:1"
         id="path4284" /><path
         d="m 269.97803,608.12604 q -3.38379,1.02539 -5.79346,1.02539 -4.11865,0 -6.69922,-2.71729 -2.58056,-2.73437 -2.58056,-7.07519 0,-4.22119 2.27294,-6.92139 2.29004,-2.70019 5.84473,-2.70019 3.3667,0 5.19531,2.40966 1.84571,2.39258 1.84571,6.80176 l -0.0171,1.02539 -11.70655,0 q 0.73487,6.61377 6.47705,6.61377 2.10206,0 5.16114,-1.12793 l 0,2.66602 z m -11.48438,-10.68116 8.18604,0 q 0,-5.17822 -3.86231,-5.17822 -3.87939,0 -4.32373,5.17822 z"
         style="font-style:normal;font-variant:normal;font-weight:normal;font-stretch:normal;font-size:35px;font-family:'Lucida Sans Unicode';-inkscape-font-specification:'Lucida Sans Unicode';fill:#294ef4;fill-opacity:1"
         id="path4286" /><path
         d="m 278.01025,608.72418 -5.31494,-18.55957 3.29834,0 4.06739,14.37256 4.39208,-14.37256 3.3667,0 3.84522,14.37256 4.66553,-14.37256 2.88818,0 -6.0498,18.55957 -3.38379,0 -3.93067,-14.37256 -4.44336,14.37256 -3.40088,0 z"
         style="font-style:normal;font-variant:normal;font-weight:normal;font-stretch:normal;font-size:35px;font-family:'Lucida Sans Unicode';-inkscape-font-specification:'Lucida Sans Unicode';fill:#294ef4;fill-opacity:1"
         id="path4288" /></g></g></svg>